<?xml version="1.0" encoding="UTF-8"?>
<!DOCTYPE svg PUBLIC "-//W3C//DTD SVG 1.1//EN" "http://www.w3.org/Graphics/SVG/1.1/DTD/svg11.dtd">
<svg xmlns="http://www.w3.org/2000/svg" version="1.1" width="1024px" height="1024px" style="shape-rendering:geometricPrecision; text-rendering:geometricPrecision; image-rendering:optimizeQuality; fill-rule:evenodd; clip-rule:evenodd" xmlns:xlink="http://www.w3.org/1999/xlink">
<g><path style="opacity:1" fill="#434443" d="M 259.5,141.5 C 260.833,142.167 260.833,142.167 259.5,141.5 Z"/></g>
<g><path style="opacity:1" fill="#000000" d="M 177.5,312.5 C 176.833,311.167 176.833,311.167 177.5,312.5 Z"/></g>
<g><path style="opacity:1" fill="#000000" d="M 421.5,403.5 C 421.866,404.695 422.699,405.361 424,405.5C 429.147,403.387 434.313,403.22 439.5,405C 440.786,407.022 441.786,409.189 442.5,411.5C 443.167,411.833 443.833,412.167 444.5,412.5C 448.123,411.344 451.789,410.344 455.5,409.5C 457.568,409.967 459.568,410.634 461.5,411.5C 464.304,409.862 466.971,408.029 469.5,406C 472.14,405.161 474.473,405.661 476.5,407.5C 480.839,404.824 485.172,402.158 489.5,399.5C 490.736,400.246 492.07,400.579 493.5,400.5C 493.833,401.5 494.5,402.167 495.5,402.5C 495.811,403.478 496.478,404.145 497.5,404.5C 502.261,401.202 507.428,398.868 513,397.5C 514.698,399.266 516.031,401.266 517,403.5C 521.849,399.485 527.349,397.319 533.5,397C 534.05,398.845 535.05,400.345 536.5,401.5C 541.35,398.075 546.683,395.742 552.5,394.5C 553.442,394.608 554.275,394.941 555,395.5C 555.098,397.619 555.931,399.286 557.5,400.5C 563.394,396.636 569.727,395.303 576.5,396.5C 577.308,398.423 577.808,400.423 578,402.5C 583.98,398.713 590.48,397.213 597.5,398C 599.35,399.845 599.683,401.845 598.5,404C 602.78,403.739 606.78,402.573 610.5,400.5C 613.187,400.336 615.854,400.503 618.5,401C 619.127,403.343 620.127,405.51 621.5,407.5C 626.593,405.059 631.926,403.892 637.5,404C 638.167,405 638.833,406 639.5,407C 638.663,408.011 638.33,409.178 638.5,410.5C 641.568,409.978 644.568,409.145 647.5,408C 654.033,405.679 657.366,407.846 657.5,414.5C 662.727,412.864 668.06,412.364 673.5,413C 674.257,414.512 675.257,415.846 676.5,417C 674.405,417.556 674.238,418.056 676,418.5C 681.046,416.712 686.212,416.212 691.5,417C 692.423,419.041 692.756,421.208 692.5,423.5C 698.442,421.649 704.442,421.315 710.5,422.5C 710.5,423.5 710.5,424.5 710.5,425.5C 708.069,427.33 708.236,428.33 711,428.5C 715.805,427.475 720.638,427.308 725.5,428C 726.406,429.699 726.739,431.533 726.5,433.5C 731.522,433.218 736.522,433.051 741.5,433C 742.833,435 742.833,437 741.5,439C 746.816,438.737 752.149,438.737 757.5,439C 758.833,440.667 758.833,442.333 757.5,444C 758.5,444.5 759.5,445 760.5,445.5C 764.777,444.394 769.11,444.228 773.5,445C 774.516,445.519 775.182,446.353 775.5,447.5C 774.57,449.105 774.57,450.605 775.5,452C 778.984,451.765 782.317,451.598 785.5,451.5C 787.167,452.167 788.833,452.833 790.5,453.5C 791.681,455.135 791.681,456.802 790.5,458.5C 795.908,458.69 801.241,459.023 806.5,459.5C 806.739,461.467 806.406,463.301 805.5,465C 811.167,465.333 816.833,465.667 822.5,466C 823.285,468.042 822.952,470.042 821.5,472C 827.167,472.333 832.833,472.667 838.5,473C 839.5,474 840.5,475 841.5,476C 840.707,477.085 840.04,478.252 839.5,479.5C 844.911,480.097 850.245,480.931 855.5,482C 856.357,482.689 857.023,483.522 857.5,484.5C 856.05,485.85 855.383,487.516 855.5,489.5C 860.046,489.268 864.379,490.101 868.5,492C 870.994,494.244 870.994,496.577 868.5,499C 871.92,499.429 875.254,500.262 878.5,501.5C 880.592,503.789 880.926,506.289 879.5,509C 881.764,510.258 884.098,511.425 886.5,512.5C 887.611,518.722 890.278,524.056 894.5,528.5C 902.477,540.46 908.31,553.46 912,567.5C 916.503,590.99 909.67,610.49 891.5,626C 870.832,641.573 847.832,652.573 822.5,659C 776.467,670.228 729.8,677.561 682.5,681C 638.771,685.086 595.104,686.42 551.5,685C 538.822,684.333 526.489,682 514.5,678C 522.31,676.21 529.977,674.376 537.5,672.5C 559.2,668.193 580.867,663.693 602.5,659C 607.447,657.268 612.281,655.435 617,653.5C 617.561,654.022 618.228,654.355 619,654.5C 625.984,652.187 633.15,650.854 640.5,650.5C 640.695,646.808 642.695,644.974 646.5,645C 651.519,644.502 656.519,644.668 661.5,645.5C 661.027,642.167 662.36,640 665.5,639C 667.891,638.713 670.224,638.213 672.5,637.5C 677.479,638.783 682.479,638.783 687.5,637.5C 686.383,633.409 688.049,630.909 692.5,630C 699.514,629.501 706.514,629.668 713.5,630.5C 713.192,628.076 713.526,625.743 714.5,623.5C 716.717,622.428 719.05,621.761 721.5,621.5C 727.457,622.805 733.457,623.305 739.5,623C 737.652,619.214 738.652,616.548 742.5,615C 750.174,614.596 757.841,614.762 765.5,615.5C 765.298,613.05 765.631,610.717 766.5,608.5C 769.142,607.147 771.976,606.481 775,606.5C 779.2,607.467 783.367,607.467 787.5,606.5C 786.497,603.965 787.163,601.798 789.5,600C 795.419,598.804 801.419,598.138 807.5,598C 808.833,597 808.833,596 807.5,595C 808.5,594 809.5,593 810.5,592C 814.749,590.874 819.082,590.208 823.5,590C 824.711,588.887 824.711,587.72 823.5,586.5C 827.055,583.062 831.388,581.228 836.5,581C 836.957,580.586 837.291,580.086 837.5,579.5C 819.686,560.921 798.019,549.087 772.5,544C 759.952,541.227 747.619,539.56 735.5,539C 740.076,548.974 740.576,559.141 737,569.5C 731.194,573.996 724.694,577.163 717.5,579C 705.239,582.152 692.906,584.985 680.5,587.5C 678.534,587.105 676.534,586.772 674.5,586.5C 667.06,589.423 659.394,591.756 651.5,593.5C 651.346,589.975 652.679,587.141 655.5,585C 647.027,584.163 638.86,585.329 631,588.5C 629.256,587.351 629.089,586.017 630.5,584.5C 632.688,581.478 635.355,578.978 638.5,577C 629.215,576.024 620.215,577.191 611.5,580.5C 613.742,573.209 618.409,568.042 625.5,565C 624.833,564.833 624.167,564.667 623.5,564.5C 604.165,572.167 584.165,577.334 563.5,580C 559.642,589.03 553.642,596.363 545.5,602C 534.953,608.94 523.62,614.273 511.5,618C 514.463,619.961 517.129,622.294 519.5,625C 503.82,625.978 488.154,627.311 472.5,629C 464.684,631.825 457.184,635.325 450,639.5C 448.805,636.472 449.305,633.472 451.5,630.5C 444.024,630.866 436.69,632.532 429.5,635.5C 428.833,635.333 428.167,635.167 427.5,635C 429.206,630.792 431.539,626.959 434.5,623.5C 428.179,623.466 422.012,624.8 416,627.5C 415.543,622.92 417.376,619.42 421.5,617C 423.333,615.833 425.167,614.667 427,613.5C 427.293,611.075 428.459,609.242 430.5,608C 438.5,604.633 446.833,602.633 455.5,602C 461.167,597 466.833,592 472.5,587C 443.169,586.834 415.169,580.667 388.5,568.5C 374.602,579.079 358.935,585.245 341.5,587C 339.221,587.473 337.221,588.473 335.5,590C 327.93,590.913 320.597,592.746 313.5,595.5C 313.167,594.667 312.833,593.833 312.5,593C 313.156,591.091 313.656,589.258 314,587.5C 306.75,588.617 299.75,590.617 293,593.5C 292.25,592.874 291.416,592.374 290.5,592C 293.278,589.397 294.944,586.23 295.5,582.5C 290.023,582.729 284.689,583.729 279.5,585.5C 279.167,585 278.833,584.5 278.5,584C 281.621,578.877 285.955,575.21 291.5,573C 290.944,572.617 290.611,572.117 290.5,571.5C 291.186,570.152 292.186,568.985 293.5,568C 297.123,566.844 300.789,565.844 304.5,565C 311.524,564.831 318.524,564.331 325.5,563.5C 328.893,557.602 333.226,552.435 338.5,548C 329.577,544.47 320.577,541.137 311.5,538C 296.396,534.142 281.063,532.809 265.5,534C 247.121,537.409 228.788,541.076 210.5,545C 196.015,548.084 182.348,546.084 169.5,539C 163.672,533.857 161.172,527.357 162,519.5C 161.682,517.939 160.849,516.772 159.5,516C 160.972,512.933 162.305,509.767 163.5,506.5C 165.49,509.488 167.823,512.155 170.5,514.5C 170.981,508.679 171.981,503.012 173.5,497.5C 174.478,497.977 175.311,498.643 176,499.5C 177.648,503.072 179.148,506.739 180.5,510.5C 182.782,511.9 184.282,511.234 185,508.5C 186.153,511.152 187.987,513.152 190.5,514.5C 191.251,513.624 191.751,512.624 192,511.5C 192.333,513.167 192.667,514.833 193,516.5C 193.145,512.477 193.979,508.644 195.5,505C 197.482,505.594 199.316,506.76 201,508.5C 202.265,505.539 203.431,502.539 204.5,499.5C 206.398,498.266 208.065,498.599 209.5,500.5C 210.814,499.687 211.981,498.687 213,497.5C 213.948,490.79 215.114,484.123 216.5,477.5C 218.698,480.533 220.698,483.7 222.5,487C 225.176,487.617 225.843,486.784 224.5,484.5C 225.922,482.035 226.922,479.369 227.5,476.5C 229.5,478.833 231.5,481.167 233.5,483.5C 234.921,478.565 236.921,473.898 239.5,469.5C 244.413,474.029 246.746,473.196 246.5,467C 247.701,466.097 248.535,464.931 249,463.5C 250.154,465.957 251.488,465.957 253,463.5C 253.883,460.898 255.383,458.731 257.5,457C 257.167,456.667 256.833,456.333 256.5,456C 257.332,455.312 257.998,455.479 258.5,456.5C 258.533,457.989 259.033,459.322 260,460.5C 260.803,457.756 261.803,455.089 263,452.5C 265.831,452.042 268.164,450.708 270,448.5C 283.02,432.798 283.687,416.464 272,399.5C 270.571,402.762 269.071,405.929 267.5,409C 266.668,409.688 266.002,409.521 265.5,408.5C 264.332,405.161 263.166,401.828 262,398.5C 261.027,401.779 259.527,404.779 257.5,407.5C 255.221,403.422 253.387,399.088 252,394.5C 250.579,397.009 248.912,399.343 247,401.5C 245.14,397.382 243.807,393.048 243,388.5C 240.828,389.585 238.828,390.919 237,392.5C 234.922,389.897 233.589,386.897 233,383.5C 231.043,386.557 229.376,390.223 228,394.5C 227.282,395.451 226.449,395.617 225.5,395C 223.883,390.498 222.049,385.998 220,381.5C 217.584,384.663 215.418,387.996 213.5,391.5C 212.011,385.914 210.844,380.247 210,374.5C 207.971,377.029 206.138,379.696 204.5,382.5C 202.768,378.35 201.601,374.017 201,369.5C 200.333,368.833 199.667,368.167 199,367.5C 197.316,369.351 195.483,371.018 193.5,372.5C 191.904,368.455 190.571,364.288 189.5,360C 188.365,359.251 187.365,359.417 186.5,360.5C 184.067,364.599 181.567,367.932 179,370.5C 178.531,364.81 177.864,359.143 177,353.5C 176.667,354.5 176.333,355.5 176,356.5C 175.667,356.167 175.333,355.833 175,355.5C 173.039,358.463 170.706,361.129 168,363.5C 166.05,353.201 163.55,343.035 160.5,333C 161.842,322.435 167.509,315.602 177.5,312.5C 187.239,309.857 196.906,310.023 206.5,313C 208.167,314 209.833,315 211.5,316C 214.022,320.034 217.022,323.701 220.5,327C 226.123,330.955 231.457,335.288 236.5,340C 246.683,343.838 256.85,347.672 267,351.5C 270.409,350.378 273.909,350.211 277.5,351C 282.725,353.446 288.058,355.613 293.5,357.5C 300.854,356.296 308.187,354.963 315.5,353.5C 321.4,354.284 326.734,356.451 331.5,360C 334.535,363.37 337.868,366.37 341.5,369C 345.637,369.934 349.637,371.268 353.5,373C 358.123,373.958 362.79,374.625 367.5,375C 369.286,375.785 370.786,376.951 372,378.5C 377.768,376.013 381.935,377.847 384.5,384C 388.5,384.333 392.5,384.667 396.5,385C 397.886,388.802 399.219,392.635 400.5,396.5C 406.013,394.55 411.68,394.05 417.5,395C 418.893,397.858 420.227,400.692 421.5,403.5 Z M 312.5,370.5 C 315.405,369.299 318.405,369.466 321.5,371C 318.469,371.495 315.469,371.329 312.5,370.5 Z M 340.5,445.5 C 339.738,447.262 338.404,448.262 336.5,448.5C 337.262,446.738 338.596,445.738 340.5,445.5 Z M 333.5,451.5 C 332.92,453.749 331.587,455.415 329.5,456.5C 330.08,454.251 331.413,452.585 333.5,451.5 Z M 302.5,483.5 C 302.5,484.833 301.833,485.5 300.5,485.5C 300.833,484.5 301.5,483.833 302.5,483.5 Z M 299.5,486.5 C 297.178,488.664 294.511,490.331 291.5,491.5C 293.613,489.669 294.78,487.669 295,485.5C 296.356,486.38 297.856,486.714 299.5,486.5 Z M 284.5,495.5 C 284.158,496.338 283.492,496.672 282.5,496.5C 281.938,494.504 282.438,492.504 284,490.5C 283.904,492.381 284.071,494.047 284.5,495.5 Z M 274.5,496.5 C 274.826,499.607 273.659,501.94 271,503.5C 270.996,501.632 271.496,499.798 272.5,498C 272.836,496.97 273.503,496.47 274.5,496.5 Z M 262.5,502.5 C 264.14,503.32 265.807,504.153 267.5,505C 265.156,506.028 262.823,506.694 260.5,507C 261.582,505.67 262.249,504.17 262.5,502.5 Z M 250.5,506.5 C 251.249,507.531 251.915,508.698 252.5,510C 251.421,510.956 250.255,511.789 249,512.5C 248.964,510.428 249.464,508.428 250.5,506.5 Z M 239.5,513.5 C 240.376,513.369 241.043,513.702 241.5,514.5C 239.192,515.873 238.525,515.54 239.5,513.5 Z M 546.5,544.5 C 545.244,544.539 544.244,544.039 543.5,543C 544.998,542.415 545.998,542.915 546.5,544.5 Z M 662.5,546.5 C 665.176,548.836 667.842,551.169 670.5,553.5C 661.497,555.038 652.497,556.205 643.5,557C 650.798,555.022 657.132,551.522 662.5,546.5 Z M 550.5,547.5 C 552.027,547.427 553.027,548.094 553.5,549.5C 551.973,549.573 550.973,548.906 550.5,547.5 Z M 555.5,551.5 C 556.906,551.973 557.573,552.973 557.5,554.5C 556.094,554.027 555.427,553.027 555.5,551.5 Z M 474.5,554.5 C 480.519,560.51 487.519,565.01 495.5,568C 493.089,570.698 490.423,571.032 487.5,569C 484.963,566.128 482.13,563.628 479,561.5C 477.25,559.266 475.75,556.932 474.5,554.5 Z M 636.5,559.5 C 635.415,561.587 633.749,562.92 631.5,563.5C 631.746,560.53 633.412,559.197 636.5,559.5 Z"/></g>
<g><path style="opacity:1" fill="#050605" d="M 162.5,347.5 C 163.833,348.167 163.833,348.167 162.5,347.5 Z"/></g>
<g><path style="opacity:1" fill="#3d3e3d" d="M 1003.5,349.5 C 1004.83,350.167 1004.83,350.167 1003.5,349.5 Z"/></g>
<g><path style="opacity:1" fill="#000000" d="M 175.5,357.5 C 176.525,357.897 176.692,358.563 176,359.5C 175.536,358.906 175.369,358.239 175.5,357.5 Z"/></g>
<g><path style="opacity:1" fill="#000006" d="M 176.5,364.5 C 177.833,365.167 177.833,365.167 176.5,364.5 Z"/></g>
<g><path style="opacity:1" fill="#000000" d="M 220.5,386.5 C 221.833,387.167 221.833,387.167 220.5,386.5 Z"/></g>
<g><path style="opacity:1" fill="#000000" d="M 242.5,395.5 C 241.833,394.167 241.833,394.167 242.5,395.5 Z"/></g>
<g><path style="opacity:1" fill="#000006" d="M 242.5,395.5 C 243.833,396.167 243.833,396.167 242.5,395.5 Z"/></g>
<g><path style="opacity:1" fill="#000000" d="M 251.5,396.5 C 252.833,397.167 252.833,397.167 251.5,396.5 Z"/></g>
<g><path style="opacity:1" fill="#000000" d="M 493.5,399.5 C 494.833,400.167 494.833,400.167 493.5,399.5 Z"/></g>
<g><path style="opacity:1" fill="#000000" d="M 495.5,399.5 C 496.833,400.167 496.833,400.167 495.5,399.5 Z"/></g>
<g><path style="opacity:1" fill="#000000" d="M 610.5,400.5 C 609.833,399.167 609.833,399.167 610.5,400.5 Z"/></g>
<g><path style="opacity:1" fill="#000000" d="M 252.5,400.5 C 253.833,401.167 253.833,401.167 252.5,400.5 Z"/></g>
<g><path style="opacity:1" fill="#000000" d="M 495.5,401.5 C 496.833,402.167 496.833,402.167 495.5,401.5 Z"/></g>
<g><path style="opacity:1" fill="#050000" d="M 636.5,401.5 C 637.833,402.167 637.833,402.167 636.5,401.5 Z"/></g>
<g><path style="opacity:1" fill="#000000" d="M 421.5,402.5 C 422.833,403.167 422.833,403.167 421.5,402.5 Z"/></g>
<g><path style="opacity:1" fill="#000000" d="M 260.5,404.5 C 261.833,405.167 261.833,405.167 260.5,404.5 Z"/></g>
<g><path style="opacity:1" fill="#050605" d="M 675.5,413.5 C 676.833,414.167 676.833,414.167 675.5,413.5 Z"/></g>
<g><path style="opacity:1" fill="#050605" d="M 719.5,423.5 C 720.833,424.167 720.833,424.167 719.5,423.5 Z"/></g>
<g><path style="opacity:1" fill="#000000" d="M 710.5,425.5 C 711.525,425.897 711.692,426.563 711,427.5C 710.536,426.906 710.369,426.239 710.5,425.5 Z"/></g>
<g><path style="opacity:1" fill="#000000" d="M 727.5,432.5 C 728.601,431.402 729.934,431.235 731.5,432C 730.207,432.49 728.873,432.657 727.5,432.5 Z"/></g>
<g><path style="opacity:1" fill="#000000" d="M 732.5,431.5 C 733.833,432.167 733.833,432.167 732.5,431.5 Z"/></g>
<g><path style="opacity:1" fill="#000000" d="M 742.5,431.5 C 743.833,432.167 743.833,432.167 742.5,431.5 Z"/></g>
<g><path style="opacity:1" fill="#000605" d="M 803.5,457.5 C 804.833,458.167 804.833,458.167 803.5,457.5 Z"/></g>
<g><path style="opacity:1" fill="#050600" d="M 805.5,457.5 C 806.833,458.167 806.833,458.167 805.5,457.5 Z"/></g>
<g><path style="opacity:1" fill="#000000" d="M 816.5,464.5 C 816.897,463.475 817.563,463.308 818.5,464C 817.906,464.464 817.239,464.631 816.5,464.5 Z"/></g>
<g><path style="opacity:1" fill="#000000" d="M 821.5,464.5 C 821.897,463.475 822.563,463.308 823.5,464C 822.906,464.464 822.239,464.631 821.5,464.5 Z"/></g>
<g><path style="opacity:1" fill="#000000" d="M 224.5,481.5 C 225.833,482.167 225.833,482.167 224.5,481.5 Z"/></g>
<g><path style="opacity:1" fill="#000000" d="M 856.5,487.5 C 857.833,488.167 857.833,488.167 856.5,487.5 Z"/></g>
<g><path style="opacity:1" fill="#000000" d="M 858.5,487.5 C 859.833,488.167 859.833,488.167 858.5,487.5 Z"/></g>
<g><path style="opacity:1" fill="#000006" d="M 204.5,496.5 C 205.833,497.167 205.833,497.167 204.5,496.5 Z"/></g>
<g><path style="opacity:1" fill="#050605" d="M 169.5,502.5 C 170.833,503.167 170.833,503.167 169.5,502.5 Z"/></g>
<g><path style="opacity:1" fill="#0b0c0b" d="M 161.5,505.5 C 161.897,504.475 162.563,504.308 163.5,505C 162.906,505.464 162.239,505.631 161.5,505.5 Z"/></g>
<g><path style="opacity:1" fill="#05060c" d="M 881.5,506.5 C 882.833,507.167 882.833,507.167 881.5,506.5 Z"/></g>
<g><path style="opacity:1" fill="#0b0605" d="M 886.5,507.5 C 887.833,508.167 887.833,508.167 886.5,507.5 Z"/></g>
<g><path style="opacity:1" fill="#050605" d="M 159.5,518.5 C 160.833,519.167 160.833,519.167 159.5,518.5 Z"/></g>
<g><path style="opacity:1" fill="#000600" d="M 894.5,527.5 C 895.833,528.167 895.833,528.167 894.5,527.5 Z"/></g>
<g><path style="opacity:1" fill="#050605" d="M 161.5,530.5 C 162.833,531.167 162.833,531.167 161.5,530.5 Z"/></g>
<g><path style="opacity:1" fill="#000000" d="M 214.5,545.5 C 215.833,546.167 215.833,546.167 214.5,545.5 Z"/></g>
<g><path style="opacity:1" fill="#000000" d="M 288.5,569.5 C 288.897,568.475 289.563,568.308 290.5,569C 289.906,569.464 289.239,569.631 288.5,569.5 Z"/></g>
<g><path style="opacity:1" fill="#000000" d="M 290.5,571.5 C 289.833,570.167 289.833,570.167 290.5,571.5 Z"/></g>
<g><path style="opacity:1" fill="#000000" d="M 312.5,596.5 C 313.833,597.167 313.833,597.167 312.5,596.5 Z"/></g>
<g><path style="opacity:1" fill="#000000" d="M 766.5,608.5 C 765.833,607.167 765.833,607.167 766.5,608.5 Z"/></g>
<g><path style="opacity:1" fill="#000600" d="M 417.5,627.5 C 418.833,628.167 418.833,628.167 417.5,627.5 Z"/></g>
<g><path style="opacity:1" fill="#000000" d="M 477.5,629.5 C 478.525,629.897 478.692,630.563 478,631.5C 477.536,630.906 477.369,630.239 477.5,629.5 Z"/></g>
<g><path style="opacity:1" fill="#000000" d="M 569.5,664.5 C 569.897,663.475 570.563,663.308 571.5,664C 570.906,664.464 570.239,664.631 569.5,664.5 Z"/></g>
<g><path style="opacity:1" fill="#000000" d="M 789.5,667.5 C 790.833,668.167 790.833,668.167 789.5,667.5 Z"/></g>
<g><path style="opacity:1" fill="#000000" d="M 537.5,672.5 C 536.833,671.167 536.833,671.167 537.5,672.5 Z"/></g>
<g><path style="opacity:1" fill="#000000" d="M 631.5,685.5 C 632.833,686.167 632.833,686.167 631.5,685.5 Z"/></g>
<g><path style="opacity:1" fill="#000000" d="M 634.5,685.5 C 635.833,686.167 635.833,686.167 634.5,685.5 Z"/></g>
<g><path style="opacity:1" fill="#000000" d="M 603.5,687.5 C 603.897,686.475 604.563,686.308 605.5,687C 604.906,687.464 604.239,687.631 603.5,687.5 Z"/></g>
<g><path style="opacity:1" fill="#3d3e3d" d="M 307.5,933.5 C 308.833,934.167 308.833,934.167 307.5,933.5 Z"/></g>
</svg>
