<?xml version="1.0" encoding="UTF-8"?>
<!DOCTYPE svg PUBLIC "-//W3C//DTD SVG 1.1//EN" "http://www.w3.org/Graphics/SVG/1.1/DTD/svg11.dtd">
<svg xmlns="http://www.w3.org/2000/svg" version="1.1" width="1024px" height="1024px" style="shape-rendering:geometricPrecision; text-rendering:geometricPrecision; image-rendering:optimizeQuality; fill-rule:evenodd; clip-rule:evenodd" xmlns:xlink="http://www.w3.org/1999/xlink">
<g><path style="opacity:1" fill="#322f2d" d="M 215.5,168.5 C 215.897,167.475 216.563,167.308 217.5,168C 216.906,168.464 216.239,168.631 215.5,168.5 Z"/></g>
<g><path style="opacity:1" fill="#000000" d="M 270.5,254.5 C 272.627,257.241 275.294,258.241 278.5,257.5C 279.911,250.434 282.411,243.767 286,237.5C 288.907,233.219 290.74,233.553 291.5,238.5C 287.937,252.624 289.103,266.291 295,279.5C 301.831,287.131 309.664,288.298 318.5,283C 320.996,281.669 322.996,279.836 324.5,277.5C 338.64,265.221 346.473,249.554 348,230.5C 348.419,229.328 349.085,228.328 350,227.5C 352.789,230.979 354.122,234.979 354,239.5C 354,246.167 354,252.833 354,259.5C 357.025,258.806 359.858,257.806 362.5,256.5C 367.061,255.054 370.728,252.387 373.5,248.5C 377.856,244.464 380.69,239.464 382,233.5C 383.986,225.416 383.819,217.416 381.5,209.5C 384.396,206.736 386.562,207.403 388,211.5C 391.454,219.098 393.454,227.098 394,235.5C 398.483,229.045 400.316,221.878 399.5,214C 399.333,210.5 399.167,207 399,203.5C 397.386,196.832 395.886,190.165 394.5,183.5C 395.873,183.343 397.207,183.51 398.5,184C 401.388,187.222 403.888,190.722 406,194.5C 409.358,203.313 411.692,212.313 413,221.5C 418.185,216.469 421.852,210.469 424,203.5C 425.492,193.138 425.992,182.805 425.5,172.5C 426.651,171.269 427.817,171.269 429,172.5C 437.328,186.099 438.662,200.432 433,215.5C 423.942,234.558 410.109,249.058 391.5,259C 377.956,265.939 364.289,272.605 350.5,279C 346.503,281.245 343.003,284.078 340,287.5C 339.251,288.635 339.417,289.635 340.5,290.5C 353.44,280.406 368.107,274.406 384.5,272.5C 387.01,272.833 389.177,273.833 391,275.5C 391.175,287.986 386.342,298.152 376.5,306C 367.629,312.767 357.629,316.767 346.5,318C 350.035,344.069 361.035,366.402 379.5,385C 391.231,393.849 403.398,396.015 416,391.5C 425.134,392.516 434.301,393.682 443.5,395C 457.503,398.001 471.503,401.001 485.5,404C 494.962,405.241 504.462,406.074 514,406.5C 534.211,405.162 554.377,403.329 574.5,401C 618.685,393.327 660.351,400.66 699.5,423C 708.833,428.333 718.167,433.667 727.5,439C 743.337,454.503 753.003,473.336 756.5,495.5C 755.797,498.368 753.964,500.035 751,500.5C 737.056,499.711 728.056,492.711 724,479.5C 723.852,498.799 722.186,518.132 719,537.5C 716.448,558.174 721.782,576.507 735,592.5C 743.07,599.9 750.404,607.9 757,616.5C 759.245,660.226 766.078,703.226 777.5,745.5C 777.093,751.956 774.593,752.956 770,748.5C 770.459,752.447 770.126,756.78 769,761.5C 767.314,766.605 763.814,769.771 758.5,771C 752.167,771.667 745.833,771.667 739.5,771C 736.606,770.131 735.439,768.298 736,765.5C 740.54,758.959 744.207,751.959 747,744.5C 749.158,727.922 747.825,711.589 743,695.5C 740.667,686.505 738.334,677.505 736,668.5C 734.434,663.944 732.601,659.61 730.5,655.5C 727.069,645.882 721.403,637.716 713.5,631C 701.346,621.424 689.013,612.09 676.5,603C 671.032,598.533 665.865,593.7 661,588.5C 660.879,590.684 661.379,592.684 662.5,594.5C 662.687,596.564 663.187,598.564 664,600.5C 669.08,610.327 674.413,619.994 680,629.5C 680.667,633.167 680.667,636.833 680,640.5C 662.724,667.049 648.057,695.049 636,724.5C 633.128,732.783 630.461,741.116 628,749.5C 627.311,750.357 626.478,751.023 625.5,751.5C 623.577,751.37 621.744,751.036 620,750.5C 616.699,759.636 610.199,764.303 600.5,764.5C 595.828,763.776 591.162,762.943 586.5,762C 585.643,761.311 584.977,760.478 584.5,759.5C 590.858,751.643 597.025,743.643 603,735.5C 620.553,706.687 632.719,675.687 639.5,642.5C 639.031,638.926 637.864,635.592 636,632.5C 612.98,612.143 596.313,587.476 586,558.5C 550.886,570.908 514.886,576.908 478,576.5C 476.768,579.3 476.101,582.3 476,585.5C 471.619,636.024 477.786,685.19 494.5,733C 494.064,737.444 491.897,739.611 488,739.5C 490.259,751.854 485.425,759.354 473.5,762C 468.792,762.496 464.125,762.162 459.5,761C 454.11,759.72 453.11,756.886 456.5,752.5C 466.201,741.713 469.701,729.046 467,714.5C 465.191,692.258 459.191,671.258 449,651.5C 443.826,636.969 439.993,622.136 437.5,607C 438.779,602.262 439.279,597.429 439,592.5C 432.408,618.276 425.408,643.943 418,669.5C 411.767,696.062 409.267,722.895 410.5,750C 408.187,753.037 405.687,753.204 403,750.5C 400.712,767.25 391.212,773.417 374.5,769C 370.718,768.889 369.218,767.056 370,763.5C 372.51,759.805 375.01,756.138 377.5,752.5C 383,745.868 386.5,738.202 388,729.5C 391.128,709.047 393.295,688.547 394.5,668C 393.815,640.421 392.648,612.588 391,584.5C 389.078,578.57 385.578,573.737 380.5,570C 360.764,558.931 344.93,543.764 333,524.5C 323.42,507 313.087,490 302,473.5C 285.821,441.439 278.988,407.439 281.5,371.5C 265.713,374.938 257.047,368.605 255.5,352.5C 256.964,345.24 259.797,338.573 264,332.5C 264.667,327.833 264.667,323.167 264,318.5C 263.682,316.939 262.849,315.772 261.5,315C 261.957,314.586 262.291,314.086 262.5,313.5C 254.581,310.055 247.081,305.055 240,298.5C 232.254,289.593 228.254,279.26 228,267.5C 229.594,265.703 231.594,264.703 234,264.5C 242.557,266.075 250.724,268.742 258.5,272.5C 265.058,276.878 271.224,281.878 277,287.5C 277.692,286.975 278.192,286.308 278.5,285.5C 277.244,281.984 275.244,278.984 272.5,276.5C 259.309,266.142 245.976,255.975 232.5,246C 221.424,236.267 213.59,224.434 209,210.5C 206.371,198.192 207.371,186.192 212,174.5C 213.046,172.91 214.213,171.41 215.5,170C 216.784,169.316 217.951,169.483 219,170.5C 218.548,177.045 217.715,183.545 216.5,190C 216.301,202.012 220.801,212.179 230,220.5C 231.489,209.874 234.822,199.874 240,190.5C 242.192,186.087 245.525,184.087 250,184.5C 250.667,185.833 250.667,187.167 250,188.5C 241.937,202.912 240.271,217.912 245,233.5C 245.333,233.167 245.667,232.833 246,232.5C 246.44,225.008 248.94,218.341 253.5,212.5C 254.002,211.479 254.668,211.312 255.5,212C 255.252,220.823 255.752,229.656 257,238.5C 259.876,245.283 264.376,250.617 270.5,254.5 Z"/></g>
<g><path style="opacity:1" fill="#181918" d="M 236.5,192.5 C 237.833,193.167 237.833,193.167 236.5,192.5 Z"/></g>
<g><path style="opacity:1" fill="#111211" d="M 381.5,209.5 C 380.833,208.167 380.833,208.167 381.5,209.5 Z"/></g>
<g><path style="opacity:1" fill="#0b0c0b" d="M 292.5,236.5 C 293.833,237.167 293.833,237.167 292.5,236.5 Z"/></g>
<g><path style="opacity:1" fill="#000000" d="M 373.5,248.5 C 372.833,247.167 372.833,247.167 373.5,248.5 Z"/></g>
<g><path style="opacity:1" fill="#050000" d="M 270.5,253.5 C 271.833,254.167 271.833,254.167 270.5,253.5 Z"/></g>
<g><path style="opacity:1" fill="#000000" d="M 362.5,256.5 C 361.761,256.631 361.094,256.464 360.5,256C 361.437,255.308 362.103,255.475 362.5,256.5 Z"/></g>
<g><path style="opacity:1" fill="#000000" d="M 276.5,256.5 C 277.833,257.167 277.833,257.167 276.5,256.5 Z"/></g>
<g><path style="opacity:1" fill="#000000" d="M 237.5,264.5 C 237.897,263.475 238.563,263.308 239.5,264C 238.906,264.464 238.239,264.631 237.5,264.5 Z"/></g>
<g><path style="opacity:1" fill="#000000" d="M 258.5,271.5 C 259.833,272.167 259.833,272.167 258.5,271.5 Z"/></g>
<g><path style="opacity:1" fill="#000000" d="M 376.5,271.5 C 377.833,272.167 377.833,272.167 376.5,271.5 Z"/></g>
<g><path style="opacity:1" fill="#000000" d="M 324.5,277.5 C 323.833,276.167 323.833,276.167 324.5,277.5 Z"/></g>
<g><path style="opacity:1" fill="#000000" d="M 348.5,318.5 C 349.833,319.167 349.833,319.167 348.5,318.5 Z"/></g>
<g><path style="opacity:1" fill="#000000" d="M 255.5,361.5 C 256.833,362.167 256.833,362.167 255.5,361.5 Z"/></g>
<g><path style="opacity:1" fill="#000000" d="M 279.5,372.5 C 280.573,373.251 280.74,374.251 280,375.5C 279.517,374.552 279.351,373.552 279.5,372.5 Z"/></g>
<g><path style="opacity:1" fill="#000000" d="M 408.5,391.5 C 409.833,392.167 409.833,392.167 408.5,391.5 Z"/></g>
<g><path style="opacity:1" fill="#000000" d="M 433.5,391.5 C 434.833,392.167 434.833,392.167 433.5,391.5 Z"/></g>
<g><path style="opacity:1" fill="#000000" d="M 568.5,400.5 C 569.251,399.427 570.251,399.26 571.5,400C 570.552,400.483 569.552,400.649 568.5,400.5 Z"/></g>
<g><path style="opacity:1" fill="#000000" d="M 280.5,403.5 C 281.525,403.897 281.692,404.563 281,405.5C 280.536,404.906 280.369,404.239 280.5,403.5 Z"/></g>
<g><path style="opacity:1" fill="#000000" d="M 281.5,418.5 C 282.833,419.167 282.833,419.167 281.5,418.5 Z"/></g>
<g><path style="opacity:1" fill="#050605" d="M 747.5,463.5 C 748.833,464.167 748.833,464.167 747.5,463.5 Z"/></g>
<g><path style="opacity:1" fill="#000000" d="M 319.5,504.5 C 320.833,505.167 320.833,505.167 319.5,504.5 Z"/></g>
<g><path style="opacity:1" fill="#000000" d="M 336.5,532.5 C 337.833,533.167 337.833,533.167 336.5,532.5 Z"/></g>
<g><path style="opacity:1" fill="#000000" d="M 586.5,565.5 C 587.833,566.167 587.833,566.167 586.5,565.5 Z"/></g>
<g><path style="opacity:1" fill="#000000" d="M 536.5,572.5 C 537.833,573.167 537.833,573.167 536.5,572.5 Z"/></g>
<g><path style="opacity:1" fill="#000000" d="M 524.5,575.5 C 524.897,574.475 525.563,574.308 526.5,575C 525.906,575.464 525.239,575.631 524.5,575.5 Z"/></g>
<g><path style="opacity:1" fill="#000000" d="M 591.5,576.5 C 592.833,577.167 592.833,577.167 591.5,576.5 Z"/></g>
<g><path style="opacity:1" fill="#000000" d="M 477.5,579.5 C 477.897,578.475 478.563,578.308 479.5,579C 478.906,579.464 478.239,579.631 477.5,579.5 Z"/></g>
<g><path style="opacity:1" fill="#000000" d="M 477.5,582.5 C 478.833,583.167 478.833,583.167 477.5,582.5 Z"/></g>
<g><path style="opacity:1" fill="#000000" d="M 662.5,593.5 C 663.833,594.167 663.833,594.167 662.5,593.5 Z"/></g>
<g><path style="opacity:1" fill="#000000" d="M 436.5,608.5 C 437.833,609.167 437.833,609.167 436.5,608.5 Z"/></g>
<g><path style="opacity:1" fill="#000000" d="M 436.5,610.5 C 437.833,611.167 437.833,611.167 436.5,610.5 Z"/></g>
<g><path style="opacity:1" fill="#000000" d="M 439.5,625.5 C 440.833,626.167 440.833,626.167 439.5,625.5 Z"/></g>
<g><path style="opacity:1" fill="#000000" d="M 678.5,645.5 C 679.833,646.167 679.833,646.167 678.5,645.5 Z"/></g>
<g><path style="opacity:1" fill="#000000" d="M 391.5,648.5 C 392.525,648.897 392.692,649.563 392,650.5C 391.536,649.906 391.369,649.239 391.5,648.5 Z"/></g>
<g><path style="opacity:1" fill="#000000" d="M 636.5,648.5 C 637.833,649.167 637.833,649.167 636.5,648.5 Z"/></g>
<g><path style="opacity:1" fill="#000000" d="M 730.5,655.5 C 729.833,656.167 729.833,656.167 730.5,655.5 Z"/></g>
<g><path style="opacity:1" fill="#050605" d="M 761.5,656.5 C 762.833,657.167 762.833,657.167 761.5,656.5 Z"/></g>
<g><path style="opacity:1" fill="#000000" d="M 391.5,657.5 C 392.833,658.167 392.833,658.167 391.5,657.5 Z"/></g>
<g><path style="opacity:1" fill="#000000" d="M 478.5,664.5 C 479.833,665.167 479.833,665.167 478.5,664.5 Z"/></g>
<g><path style="opacity:1" fill="#000000" d="M 732.5,664.5 C 733.833,665.167 733.833,665.167 732.5,664.5 Z"/></g>
<g><path style="opacity:1" fill="#000000" d="M 419.5,669.5 C 420.833,670.167 420.833,670.167 419.5,669.5 Z"/></g>
<g><path style="opacity:1" fill="#000000" d="M 735.5,673.5 C 736.833,674.167 736.833,674.167 735.5,673.5 Z"/></g>
<g><path style="opacity:1" fill="#000000" d="M 623.5,689.5 C 624.833,690.167 624.833,690.167 623.5,689.5 Z"/></g>
<g><path style="opacity:1" fill="#000000" d="M 463.5,701.5 C 464.833,702.167 464.833,702.167 463.5,701.5 Z"/></g>
<g><path style="opacity:1" fill="#000000" d="M 486.5,703.5 C 487.833,704.167 487.833,704.167 486.5,703.5 Z"/></g>
<g><path style="opacity:1" fill="#000000" d="M 464.5,711.5 C 465.833,712.167 465.833,712.167 464.5,711.5 Z"/></g>
<g><path style="opacity:1" fill="#000000" d="M 464.5,713.5 C 465.833,714.167 465.833,714.167 464.5,713.5 Z"/></g>
<g><path style="opacity:1" fill="#000000" d="M 744.5,714.5 C 745.833,715.167 745.833,715.167 744.5,714.5 Z"/></g>
<g><path style="opacity:1" fill="#000100" d="M 465.5,721.5 C 466.613,722.946 466.78,724.613 466,726.5C 465.506,724.866 465.34,723.199 465.5,721.5 Z"/></g>
<g><path style="opacity:1" fill="#000000" d="M 604.5,728.5 C 605.833,729.167 605.833,729.167 604.5,728.5 Z"/></g>
<g><path style="opacity:1" fill="#000000" d="M 746.5,728.5 C 747.833,729.167 747.833,729.167 746.5,728.5 Z"/></g>
<g><path style="opacity:1" fill="#050605" d="M 494.5,736.5 C 495.833,737.167 495.833,737.167 494.5,736.5 Z"/></g>
<g><path style="opacity:1" fill="#000000" d="M 463.5,737.5 C 464.833,738.167 464.833,738.167 463.5,737.5 Z"/></g>
<g><path style="opacity:1" fill="#05060c" d="M 411.5,750.5 C 412.833,751.167 412.833,751.167 411.5,750.5 Z"/></g>
<g><path style="opacity:1" fill="#050605" d="M 377.5,752.5 C 376.833,751.167 376.833,751.167 377.5,752.5 Z"/></g>
<g><path style="opacity:1" fill="#050600" d="M 456.5,752.5 C 455.833,751.167 455.833,751.167 456.5,752.5 Z"/></g>
<g><path style="opacity:1" fill="#11120b" d="M 592.5,764.5 C 593.833,765.167 593.833,765.167 592.5,764.5 Z"/></g>
<g><path style="opacity:1" fill="#181918" d="M 371.5,769.5 C 372.833,770.167 372.833,770.167 371.5,769.5 Z"/></g>
<g><path style="opacity:1" fill="#181218" d="M 377.5,770.5 C 378.833,771.167 378.833,771.167 377.5,770.5 Z"/></g>
<g><path style="opacity:1" fill="#111211" d="M 382.5,770.5 C 383.833,771.167 383.833,771.167 382.5,770.5 Z"/></g>
<g><path style="opacity:1" fill="#111211" d="M 385.5,770.5 C 386.833,771.167 386.833,771.167 385.5,770.5 Z"/></g>
<g><path style="opacity:1" fill="#828382" d="M 307.5,933.5 C 308.833,934.167 308.833,934.167 307.5,933.5 Z"/></g>
</svg>
