<?xml version="1.0" encoding="UTF-8"?>
<!DOCTYPE svg PUBLIC "-//W3C//DTD SVG 1.1//EN" "http://www.w3.org/Graphics/SVG/1.1/DTD/svg11.dtd">
<svg xmlns="http://www.w3.org/2000/svg" version="1.1" width="1024px" height="1024px" style="shape-rendering:geometricPrecision; text-rendering:geometricPrecision; image-rendering:optimizeQuality; fill-rule:evenodd; clip-rule:evenodd" xmlns:xlink="http://www.w3.org/1999/xlink">
<g><path style="opacity:1" fill="#272828" d="M 303.5,257.5 C 302.167,257.5 300.833,257.5 299.5,257.5C 300.531,256.751 301.698,256.085 303,255.5C 303.464,256.094 303.631,256.761 303.5,257.5 Z"/></g>
<g><path style="opacity:1" fill="#000000" d="M 299.5,257.5 C 300.833,257.5 302.167,257.5 303.5,257.5C 308.001,263.159 311.501,269.492 314,276.5C 315.277,278.747 316.777,280.747 318.5,282.5C 322.811,289.671 326.978,297.004 331,304.5C 351.219,323.72 371.052,343.22 390.5,363C 398.888,367.861 407.554,372.194 416.5,376C 419.99,378.911 423.656,381.578 427.5,384C 451.496,389.333 475.496,394.666 499.5,400C 539.083,401.018 578.416,404.684 617.5,411C 632.961,414.113 647.961,418.613 662.5,424.5C 684.208,434.042 701.042,449.042 713,469.5C 717.81,478.807 722.31,488.14 726.5,497.5C 733.684,519.868 744.017,540.535 757.5,559.5C 759.738,564.071 762.738,568.071 766.5,571.5C 771.391,578.399 777.725,583.399 785.5,586.5C 790.105,589.296 795.105,591.296 800.5,592.5C 808.716,595.027 816.216,599.027 823,604.5C 823.868,608.672 822.368,611.838 818.5,614C 809.448,620.464 799.448,624.797 788.5,627C 783.809,627.65 779.143,627.483 774.5,626.5C 772.389,626.486 770.555,627.152 769,628.5C 754.848,623.755 742.848,615.755 733,604.5C 732.833,605 732.667,605.5 732.5,606C 737.447,617.704 744.947,627.537 755,635.5C 757.194,638.554 758.861,641.888 760,645.5C 762.39,666.845 764.89,688.178 767.5,709.5C 767.655,716.05 766.655,722.384 764.5,728.5C 761.168,734.173 756.168,737.34 749.5,738C 742.167,738.667 734.833,738.667 727.5,738C 717.324,738.135 713.49,733.302 716,723.5C 720.126,715.845 726.626,711.845 735.5,711.5C 740.104,689.141 736.271,668.141 724,648.5C 715.989,638.989 707.155,630.322 697.5,622.5C 683.377,613.888 670.877,603.222 660,590.5C 664.482,609.131 672.482,626.131 684,641.5C 686.968,647.01 687.302,652.677 685,658.5C 680.208,677.881 672.875,696.214 663,713.5C 652.609,727.902 638.775,732.402 621.5,727C 613.8,725.874 611.3,721.708 614,714.5C 616.552,710.281 620.052,707.114 624.5,705C 624.167,704.667 623.833,704.333 623.5,704C 627.425,704.518 631.425,704.518 635.5,704C 637.66,703.004 639.327,701.504 640.5,699.5C 646.067,693.329 649.234,685.996 650,677.5C 652.51,665.712 650.51,654.712 644,644.5C 638.503,636.637 632.003,629.804 624.5,624C 617.446,620.142 610.446,616.309 603.5,612.5C 596.034,605.707 589.701,598.041 584.5,589.5C 582.338,583.004 580.004,576.67 577.5,570.5C 576.774,567.821 575.941,565.154 575,562.5C 571.333,555.167 567.667,547.833 564,540.5C 555.526,545.654 546.692,550.154 537.5,554C 519.569,560.525 501.403,566.359 483,571.5C 481.328,572.505 479.995,573.839 479,575.5C 467.408,575.076 455.575,574.076 443.5,572.5C 441.752,599.744 439.752,627.244 437.5,655C 437.246,665.232 437.913,675.898 439.5,687C 439.363,689.898 438.863,692.731 438,695.5C 433.053,706.343 429.719,717.677 428,729.5C 422.83,740.838 413.997,745.504 401.5,743.5C 394.679,743.773 388.013,742.939 381.5,741C 377.61,739.055 375.943,735.888 376.5,731.5C 377.341,729.188 378.341,726.855 379.5,724.5C 379.167,723.167 378.833,723.167 378.5,724.5C 377.326,725.514 376.66,726.847 376.5,728.5C 370.44,733.435 363.44,735.435 355.5,734.5C 347.106,734.898 339.106,733.398 331.5,730C 328.188,719.63 331.854,712.63 342.5,709C 347.086,708.803 351.586,708.303 356,707.5C 359.169,698.995 360.669,690.162 360.5,681C 355.936,641.657 350.103,602.49 343,563.5C 339.371,550.754 332.871,539.754 323.5,530.5C 315.672,517.188 310.506,502.855 308,487.5C 306.275,481.066 303.775,475.066 300.5,469.5C 298.826,463.141 296.993,456.807 295,450.5C 288.543,442.033 282.876,433.033 278,423.5C 274.117,413.344 269.951,403.344 265.5,393.5C 255.474,392.418 245.474,392.751 235.5,394.5C 225.932,394.323 217.432,391.323 210,385.5C 204.942,378.617 200.108,371.617 195.5,364.5C 196.373,362.587 197.373,360.753 198.5,359C 208.327,353.92 217.994,348.587 227.5,343C 229.96,341.542 232.127,339.709 234,337.5C 238.239,325.337 244.739,314.671 253.5,305.5C 255.837,303.334 258.337,301.334 261,299.5C 261.082,290.164 259.916,280.997 257.5,272C 257.158,267.567 257.824,263.067 259.5,258.5C 262.964,255.699 265.797,256.366 268,260.5C 273.281,270.744 279.781,280.077 287.5,288.5C 288.971,287.619 289.804,286.286 290,284.5C 292,277.167 294,269.833 296,262.5C 297.03,260.654 298.196,258.987 299.5,257.5 Z M 389.5,578.5 C 391.462,581.865 392.962,585.532 394,589.5C 402.834,624.678 406.501,660.345 405,696.5C 404.577,702.787 403.077,708.787 400.5,714.5C 394.058,715.22 387.891,716.887 382,719.5C 381.5,719.167 381,718.833 380.5,718.5C 384.342,703.811 388.675,689.311 393.5,675C 391.24,642.917 389.907,610.751 389.5,578.5 Z"/></g>
<g><path style="opacity:1" fill="#1e1f1e" d="M 310.5,265.5 C 311.833,266.167 311.833,266.167 310.5,265.5 Z"/></g>
<g><path style="opacity:1" fill="#181918" d="M 255.5,271.5 C 256.833,272.167 256.833,272.167 255.5,271.5 Z"/></g>
<g><path style="opacity:1" fill="#181918" d="M 255.5,273.5 C 256.833,274.167 256.833,274.167 255.5,273.5 Z"/></g>
<g><path style="opacity:1" fill="#181918" d="M 256.5,275.5 C 257.525,275.897 257.692,276.563 257,277.5C 256.536,276.906 256.369,276.239 256.5,275.5 Z"/></g>
<g><path style="opacity:1" fill="#181211" d="M 257.5,280.5 C 258.833,281.167 258.833,281.167 257.5,280.5 Z"/></g>
<g><path style="opacity:1" fill="#111211" d="M 318.5,281.5 C 319.833,282.167 319.833,282.167 318.5,281.5 Z"/></g>
<g><path style="opacity:1" fill="#111911" d="M 257.5,282.5 C 258.833,283.167 258.833,283.167 257.5,282.5 Z"/></g>
<g><path style="opacity:1" fill="#111211" d="M 259.5,294.5 C 260.833,295.167 260.833,295.167 259.5,294.5 Z"/></g>
<g><path style="opacity:1" fill="#111211" d="M 253.5,305.5 C 252.833,304.167 252.833,304.167 253.5,305.5 Z"/></g>
<g><path style="opacity:1" fill="#111211" d="M 232.5,335.5 C 233.833,336.167 233.833,336.167 232.5,335.5 Z"/></g>
<g><path style="opacity:1" fill="#242524" d="M 193.5,362.5 C 194.833,363.167 194.833,363.167 193.5,362.5 Z"/></g>
<g><path style="opacity:1" fill="#0b0c0b" d="M 434.5,383.5 C 435.833,384.167 435.833,384.167 434.5,383.5 Z"/></g>
<g><path style="opacity:1" fill="#0b120b" d="M 254.5,393.5 C 255.833,394.167 255.833,394.167 254.5,393.5 Z"/></g>
<g><path style="opacity:1" fill="#111211" d="M 225.5,394.5 C 226.833,395.167 226.833,395.167 225.5,394.5 Z"/></g>
<g><path style="opacity:1" fill="#111211" d="M 241.5,394.5 C 242.833,395.167 242.833,395.167 241.5,394.5 Z"/></g>
<g><path style="opacity:1" fill="#0b0c0b" d="M 264.5,396.5 C 265.833,397.167 265.833,397.167 264.5,396.5 Z"/></g>
<g><path style="opacity:1" fill="#110c0b" d="M 509.5,399.5 C 510.833,400.167 510.833,400.167 509.5,399.5 Z"/></g>
<g><path style="opacity:1" fill="#0b0c0b" d="M 512.5,399.5 C 513.833,400.167 513.833,400.167 512.5,399.5 Z"/></g>
<g><path style="opacity:1" fill="#0b0c0b" d="M 539.5,400.5 C 540.833,401.167 540.833,401.167 539.5,400.5 Z"/></g>
<g><path style="opacity:1" fill="#0b0c0b" d="M 579.5,403.5 C 580.833,404.167 580.833,404.167 579.5,403.5 Z"/></g>
<g><path style="opacity:1" fill="#0b0c0b" d="M 272.5,415.5 C 273.773,416.077 273.773,416.743 272.5,417.5C 271.537,417.03 271.537,416.363 272.5,415.5 Z"/></g>
<g><path style="opacity:1" fill="#0b0c0b" d="M 273.5,418.5 C 274.833,419.167 274.833,419.167 273.5,418.5 Z"/></g>
<g><path style="opacity:1" fill="#111211" d="M 662.5,423.5 C 663.833,424.167 663.833,424.167 662.5,423.5 Z"/></g>
<g><path style="opacity:1" fill="#11120b" d="M 296.5,463.5 C 297.833,464.167 297.833,464.167 296.5,463.5 Z"/></g>
<g><path style="opacity:1" fill="#111211" d="M 300.5,469.5 C 299.833,470.167 299.833,470.167 300.5,469.5 Z"/></g>
<g><path style="opacity:1" fill="#111211" d="M 305.5,486.5 C 306.833,487.167 306.833,487.167 305.5,486.5 Z"/></g>
<g><path style="opacity:1" fill="#101011" d="M 726.5,497.5 C 726.369,496.761 726.536,496.094 727,495.5C 727.692,496.437 727.525,497.103 726.5,497.5 Z"/></g>
<g><path style="opacity:1" fill="#0b0c0b" d="M 312.5,511.5 C 313.833,512.167 313.833,512.167 312.5,511.5 Z"/></g>
<g><path style="opacity:1" fill="#0b0c0b" d="M 313.5,514.5 C 314.833,515.167 314.833,515.167 313.5,514.5 Z"/></g>
<g><path style="opacity:1" fill="#0b0c0b" d="M 315.5,518.5 C 316.833,519.167 316.833,519.167 315.5,518.5 Z"/></g>
<g><path style="opacity:1" fill="#0b0c0b" d="M 323.5,530.5 C 322.833,531.167 322.833,531.167 323.5,530.5 Z"/></g>
<g><path style="opacity:1" fill="#111211" d="M 744.5,536.5 C 745.833,537.167 745.833,537.167 744.5,536.5 Z"/></g>
<g><path style="opacity:1" fill="#0b1211" d="M 563.5,542.5 C 564.833,543.167 564.833,543.167 563.5,542.5 Z"/></g>
<g><path style="opacity:1" fill="#0b0c0b" d="M 567.5,551.5 C 568.833,552.167 568.833,552.167 567.5,551.5 Z"/></g>
<g><path style="opacity:1" fill="#0b0c0b" d="M 536.5,555.5 C 537.833,556.167 537.833,556.167 536.5,555.5 Z"/></g>
<g><path style="opacity:1" fill="#111211" d="M 757.5,558.5 C 758.833,559.167 758.833,559.167 757.5,558.5 Z"/></g>
<g><path style="opacity:1" fill="#0b0c0b" d="M 576.5,570.5 C 575.833,569.167 575.833,569.167 576.5,570.5 Z"/></g>
<g><path style="opacity:1" fill="#0b0c0b" d="M 576.5,570.5 C 576.833,570.5 577.167,570.5 577.5,570.5C 577.167,574.5 576.833,574.5 576.5,570.5 Z"/></g>
<g><path style="opacity:1" fill="#110c11" d="M 766.5,570.5 C 767.833,571.167 767.833,571.167 766.5,570.5 Z"/></g>
<g><path style="opacity:1" fill="#0b0c0b" d="M 484.5,572.5 C 485.833,573.167 485.833,573.167 484.5,572.5 Z"/></g>
<g><path style="opacity:1" fill="#0b0c0b" d="M 343.5,576.5 C 344.833,577.167 344.833,577.167 343.5,576.5 Z"/></g>
<g><path style="opacity:1" fill="#111211" d="M 785.5,585.5 C 786.833,586.167 786.833,586.167 785.5,585.5 Z"/></g>
<g><path style="opacity:1" fill="#0b0c0b" d="M 345.5,586.5 C 346.833,587.167 346.833,587.167 345.5,586.5 Z"/></g>
<g><path style="opacity:1" fill="#0b0c0b" d="M 584.5,589.5 C 583.833,590.167 583.833,590.167 584.5,589.5 Z"/></g>
<g><path style="opacity:1" fill="#181918" d="M 800.5,591.5 C 801.833,592.167 801.833,592.167 800.5,591.5 Z"/></g>
<g><path style="opacity:1" fill="#0b120b" d="M 346.5,593.5 C 347.833,594.167 347.833,594.167 346.5,593.5 Z"/></g>
<g><path style="opacity:1" fill="#110c0b" d="M 346.5,594.5 C 345.833,595.167 345.833,595.167 346.5,594.5 Z"/></g>
<g><path style="opacity:1" fill="#242524" d="M 822.5,600.5 C 823.833,601.167 823.833,601.167 822.5,600.5 Z"/></g>
<g><path style="opacity:1" fill="#0b0c0b" d="M 670.5,607.5 C 671.833,608.167 671.833,608.167 670.5,607.5 Z"/></g>
<g><path style="opacity:1" fill="#0b0c0b" d="M 667.5,609.5 C 668.833,610.167 668.833,610.167 667.5,609.5 Z"/></g>
<g><path style="opacity:1" fill="#110c0b" d="M 603.5,612.5 C 602.833,613.167 602.833,613.167 603.5,612.5 Z"/></g>
<g><path style="opacity:1" fill="#0b0c0b" d="M 697.5,622.5 C 696.833,623.167 696.833,623.167 697.5,622.5 Z"/></g>
<g><path style="opacity:1" fill="#181918" d="M 790.5,627.5 C 791.833,628.167 791.833,628.167 790.5,627.5 Z"/></g>
<g><path style="opacity:1" fill="#0b120b" d="M 763.5,629.5 C 764.833,630.167 764.833,630.167 763.5,629.5 Z"/></g>
<g><path style="opacity:1" fill="#110c11" d="M 354.5,645.5 C 355.833,646.167 355.833,646.167 354.5,645.5 Z"/></g>
<g><path style="opacity:1" fill="#0b0c0b" d="M 719.5,650.5 C 720.833,651.167 720.833,651.167 719.5,650.5 Z"/></g>
<g><path style="opacity:1" fill="#0b0c0b" d="M 727.5,658.5 C 728.833,659.167 728.833,659.167 727.5,658.5 Z"/></g>
<g><path style="opacity:1" fill="#0b0c0b" d="M 728.5,663.5 C 729.833,664.167 729.833,664.167 728.5,663.5 Z"/></g>
<g><path style="opacity:1" fill="#110c0b" d="M 648.5,672.5 C 649.833,673.167 649.833,673.167 648.5,672.5 Z"/></g>
<g><path style="opacity:1" fill="#0b1211" d="M 640.5,696.5 C 641.833,697.167 641.833,697.167 640.5,696.5 Z"/></g>
<g><path style="opacity:1" fill="#100e11" d="M 736.5,696.5 C 737.525,696.897 737.692,697.563 737,698.5C 736.536,697.906 736.369,697.239 736.5,696.5 Z"/></g>
<g><path style="opacity:1" fill="#0b1211" d="M 640.5,699.5 C 639.833,698.167 639.833,698.167 640.5,699.5 Z"/></g>
<g><path style="opacity:1" fill="#111211" d="M 736.5,700.5 C 737.833,701.167 737.833,701.167 736.5,700.5 Z"/></g>
<g><path style="opacity:1" fill="#0b1211" d="M 354.5,705.5 C 355.833,706.167 355.833,706.167 354.5,705.5 Z"/></g>
<g><path style="opacity:1" fill="#111211" d="M 343.5,707.5 C 344.251,706.427 345.251,706.26 346.5,707C 345.552,707.483 344.552,707.649 343.5,707.5 Z"/></g>
<g><path style="opacity:1" fill="#111211" d="M 354.5,706.5 C 353.833,707.167 353.833,707.167 354.5,706.5 Z"/></g>
<g><path style="opacity:1" fill="#111211" d="M 726.5,711.5 C 727.833,712.167 727.833,712.167 726.5,711.5 Z"/></g>
<g><path style="opacity:1" fill="#181918" d="M 711.5,728.5 C 711.897,727.475 712.563,727.308 713.5,728C 712.906,728.464 712.239,728.631 711.5,728.5 Z"/></g>
<g><path style="opacity:1" fill="#1e1f1e" d="M 764.5,728.5 C 765.833,729.167 765.833,729.167 764.5,728.5 Z"/></g>
<g><path style="opacity:1" fill="#18181a" d="M 378.5,724.5 C 378.833,724.5 379.167,724.5 379.5,724.5C 378.341,726.855 377.341,729.188 376.5,731.5C 376.5,730.5 376.5,729.5 376.5,728.5C 376.66,726.847 377.326,725.514 378.5,724.5 Z"/></g>
<g><path style="opacity:1" fill="#181918" d="M 713.5,730.5 C 714.833,731.167 714.833,731.167 713.5,730.5 Z"/></g>
<g><path style="opacity:1" fill="#9b9c9b" d="M 307.5,933.5 C 308.833,934.167 308.833,934.167 307.5,933.5 Z"/></g>
</svg>
