<?xml version="1.0" encoding="UTF-8"?>
<!DOCTYPE svg PUBLIC "-//W3C//DTD SVG 1.1//EN" "http://www.w3.org/Graphics/SVG/1.1/DTD/svg11.dtd">
<svg xmlns="http://www.w3.org/2000/svg" version="1.1" width="1024px" height="1024px" style="shape-rendering:geometricPrecision; text-rendering:geometricPrecision; image-rendering:optimizeQuality; fill-rule:evenodd; clip-rule:evenodd" xmlns:xlink="http://www.w3.org/1999/xlink">
<g><path style="opacity:1" fill="#2a2b2a" d="M 168.5,138.5 C 169.833,139.167 169.833,139.167 168.5,138.5 Z"/></g>
<g><path style="opacity:1" fill="#000000" d="M 398.5,322.5 C 403.752,330.933 409.252,339.267 415,347.5C 419.956,360.749 426.456,373.082 434.5,384.5C 452.515,414.011 478.015,434.011 511,444.5C 522.834,441.666 534.334,437.833 545.5,433C 561.147,424.7 576.814,416.367 592.5,408C 607.016,403.359 620.683,405.026 633.5,413C 642.809,421.127 646.309,431.294 644,443.5C 642.241,447.009 641.074,450.675 640.5,454.5C 639.167,454.833 639.167,455.167 640.5,455.5C 637.916,461.154 637.25,466.82 638.5,472.5C 638.013,475.796 636.846,478.796 635,481.5C 632.859,477.741 630.359,474.241 627.5,471C 624.392,469.241 621.059,468.408 617.5,468.5C 611.549,499.52 600.383,528.52 584,555.5C 575.388,568.445 566.388,581.111 557,593.5C 558.396,605.361 557.396,617.027 554,628.5C 551.859,632.444 550.025,636.444 548.5,640.5C 555.901,642.363 563.235,644.53 570.5,647C 577.379,646.899 584.046,647.899 590.5,650C 594.497,652.653 596.831,656.32 597.5,661C 593.757,660.462 590.424,658.796 587.5,656C 585.835,655.212 584.169,654.878 582.5,655C 588.525,659.339 592.525,665.006 594.5,672C 593.91,673.509 593.244,675.009 592.5,676.5C 589.683,674.183 587.016,671.683 584.5,669C 580.344,666.732 579.678,667.399 582.5,671C 581.004,674.149 579.504,677.316 578,680.5C 574.673,672.32 568.84,665.987 560.5,661.5C 558.839,658.969 557.006,657.302 555,656.5C 554.529,658.246 553.862,659.913 553,661.5C 550.372,663.126 548.039,665.126 546,667.5C 544.661,671.511 542.828,675.178 540.5,678.5C 539.201,677.91 538.368,676.91 538,675.5C 537.172,667.479 539.506,660.479 545,654.5C 545.667,653.167 545.667,651.833 545,650.5C 538.274,643.444 530.441,637.944 521.5,634C 518.167,633.333 514.833,633.333 511.5,634C 510.167,634.667 510.167,635.333 511.5,636C 520.271,636.306 527.771,639.473 534,645.5C 536.515,649.269 537.015,653.269 535.5,657.5C 534.672,658.415 533.672,659.081 532.5,659.5C 530.825,657.469 529.159,655.469 527.5,653.5C 526.738,651.738 525.404,650.738 523.5,650.5C 523.44,649.957 523.107,649.624 522.5,649.5C 522.167,651.5 521.833,653.5 521.5,655.5C 522.098,659.838 522.265,664.172 522,668.5C 517.648,666.156 514.981,662.489 514,657.5C 513.21,660.634 513.543,663.634 515,666.5C 529.377,681.878 544.71,696.211 561,709.5C 564.26,715.796 562.426,719.63 555.5,721C 550.559,728.116 543.892,732.616 535.5,734.5C 532.833,733.877 530.333,732.877 528,731.5C 525.463,731.143 523.463,729.477 522,726.5C 523.566,732.687 524.233,739.02 524,745.5C 520.977,756.259 514.143,760.093 503.5,757C 498.486,754.158 494.986,749.991 493,744.5C 492.664,747.475 492.831,750.142 493.5,752.5C 493.788,760.961 489.955,766.294 482,768.5C 479.485,767.885 477.152,766.885 475,765.5C 472.362,775.64 465.862,781.307 455.5,782.5C 449.872,781.372 446.372,778.038 445,772.5C 444.667,768.167 444.333,763.833 444,759.5C 439.291,772.438 430.791,781.938 418.5,788C 408.228,791.872 402.228,788.538 400.5,778C 401.278,774.845 401.445,771.678 401,768.5C 394.907,777.054 386.574,782.054 376,783.5C 367.293,782.097 364.293,777.097 367,768.5C 370.005,763.48 372.672,758.48 375,753.5C 369.346,759.489 362.846,764.323 355.5,768C 341.164,773.114 334.664,768.281 336,753.5C 338.263,747.139 341.429,741.306 345.5,736C 344.584,735.626 343.75,735.126 343,734.5C 337.266,738.537 330.933,740.87 324,741.5C 314.934,741.728 309.767,737.394 308.5,728.5C 308.974,725.236 310.307,722.402 312.5,720C 312.167,719.667 311.833,719.333 311.5,719C 314.331,717.334 316.664,715.168 318.5,712.5C 311.233,715.817 304.399,715.151 298,710.5C 292.12,699.398 294.62,690.565 305.5,684C 293.656,683.604 286.322,677.771 283.5,666.5C 284.513,661.62 287.513,658.453 292.5,657C 302.044,654.453 311.377,651.62 320.5,648.5C 343.099,641.859 365.099,633.859 386.5,624.5C 398.954,619.737 411.454,615.07 424,610.5C 426.451,603.596 429.451,596.93 433,590.5C 441.422,576.261 449.589,561.928 457.5,547.5C 454.109,551.928 450.942,556.594 448,561.5C 445.14,565.027 441.973,568.194 438.5,571C 435.789,572.805 433.122,572.805 430.5,571C 429.21,568.19 428.043,565.357 427,562.5C 421.249,575.094 411.749,583.094 398.5,586.5C 394.394,586.045 391.394,584.045 389.5,580.5C 389.657,579.127 389.49,577.793 389,576.5C 382.031,583.296 375.197,583.13 368.5,576C 368.511,573.326 368.678,570.493 369,567.5C 364.351,572.406 359.351,572.74 354,568.5C 352.994,566.466 352.494,564.3 352.5,562C 353.237,558.887 353.403,556.053 353,553.5C 346.466,559.175 340.466,558.841 335,552.5C 334.544,549.428 334.544,546.428 335,543.5C 328.298,546.49 322.965,544.823 319,538.5C 317.815,528.733 320.981,520.566 328.5,514C 323.278,516.471 317.945,519.138 312.5,522C 304.966,524.598 298.799,522.765 294,516.5C 293.505,514.527 293.338,512.527 293.5,510.5C 286.417,511.252 282.417,508.086 281.5,501C 283.117,492.265 287.617,485.431 295,480.5C 295.515,478.061 295.015,477.895 293.5,480C 281.175,484.916 269.175,484.249 257.5,478C 250.833,471.667 250.833,465.333 257.5,459C 260.833,457.333 264.167,455.667 267.5,454C 255.474,454.311 244.14,451.811 233.5,446.5C 225.447,436.834 227.447,429.667 239.5,425C 242.657,423.422 245.991,422.422 249.5,422C 231.223,421.931 215.723,416.097 203,404.5C 201.09,401.844 199.59,399.011 198.5,396C 198.585,394.893 198.919,393.893 199.5,393C 210.262,389.288 221.262,387.622 232.5,388C 229.522,387.304 226.522,386.804 223.5,386.5C 212.555,383.675 202.221,379.175 192.5,373C 187.333,369.167 182.833,364.667 179,359.5C 176.192,354.715 177.525,352.049 183,351.5C 192.276,352.444 202.11,352.944 212.5,353C 194.456,347.905 179.29,338.405 167,324.5C 163.918,320.837 161.751,316.67 160.5,312C 161.466,310.266 162.966,309.432 165,309.5C 177.286,311.824 189.452,314.657 201.5,318C 203.167,318.667 204.833,318.667 206.5,318C 185.945,310.106 168.778,297.606 155,280.5C 150.272,274.262 147.772,267.429 147.5,260C 149.167,259.333 150.833,259.333 152.5,260C 167.43,268.467 182.763,275.801 198.5,282C 178.174,269.678 161.008,253.844 147,234.5C 144.787,230.075 142.621,225.741 140.5,221.5C 140.15,218.278 139.483,215.112 138.5,212C 138.388,210.338 139.054,209.171 140.5,208.5C 151.311,216.81 161.977,225.31 172.5,234C 176.071,236.421 179.738,238.587 183.5,240.5C 188.461,244.32 193.794,247.653 199.5,250.5C 201.456,251.492 203.456,252.492 205.5,253.5C 204.421,251.457 202.754,250.124 200.5,249.5C 185.375,236.545 172.209,221.878 161,205.5C 153.808,193.757 149.308,181.09 147.5,167.5C 148.1,166.1 149.1,165.1 150.5,164.5C 164.224,183.727 180.558,200.56 199.5,215C 204.023,218.252 208.69,220.918 213.5,223C 198.591,208.356 186.758,191.523 178,172.5C 173.353,161.267 171.02,149.601 171,137.5C 171.414,137.043 171.914,136.709 172.5,136.5C 187.92,162.107 206.92,184.94 229.5,205C 261.205,233.04 293.205,260.707 325.5,288C 341.053,299.887 356.887,311.387 373,322.5C 368.475,312.07 365.641,301.07 364.5,289.5C 364.842,287.133 365.342,284.8 366,282.5C 367.049,281.483 368.216,281.316 369.5,282C 379.556,295.303 389.223,308.803 398.5,322.5 Z M 200.5,249.5 C 202.754,250.124 204.421,251.457 205.5,253.5C 203.456,252.492 201.456,251.492 199.5,250.5C 199.5,249.833 199.833,249.5 200.5,249.5 Z M 460.5,542.5 C 460.25,544.674 459.25,546.341 457.5,547.5C 457.75,545.326 458.75,543.659 460.5,542.5 Z M 478.5,642.5 C 484.143,645.248 490.143,647.081 496.5,648C 502.976,652.082 505.143,657.915 503,665.5C 502.392,667.066 501.558,668.4 500.5,669.5C 502.542,663.865 502.042,658.198 499,652.5C 498.097,651.299 496.931,650.465 495.5,650C 491.853,649.226 488.186,648.559 484.5,648C 483.747,646.513 482.914,646.346 482,647.5C 480.198,646.211 479.031,644.544 478.5,642.5 Z M 322.5,710.5 C 321.486,711.674 320.153,712.34 318.5,712.5C 319.287,710.896 320.62,710.229 322.5,710.5 Z"/></g>
<g><path style="opacity:1" fill="#242524" d="M 147.5,161.5 C 148.833,162.167 148.833,162.167 147.5,161.5 Z"/></g>
<g><path style="opacity:1" fill="#242524" d="M 150.5,161.5 C 151.833,162.167 151.833,162.167 150.5,161.5 Z"/></g>
<g><path style="opacity:1" fill="#292525" d="M 150.5,164.5 C 149.1,165.1 148.1,166.1 147.5,167.5C 147.5,166.167 147.5,164.833 147.5,163.5C 148.791,163.263 149.791,163.596 150.5,164.5 Z"/></g>
<g><path style="opacity:1" fill="#110c0b" d="M 153.5,194.5 C 154.833,195.167 154.833,195.167 153.5,194.5 Z"/></g>
<g><path style="opacity:1" fill="#2a2b2a" d="M 898.5,219.5 C 897.833,218.167 897.833,218.167 898.5,219.5 Z"/></g>
<g><path style="opacity:1" fill="#000000" d="M 898.5,219.5 C 898.833,219.5 899.167,219.5 899.5,219.5C 900.451,220.919 900.784,222.585 900.5,224.5C 893.941,272.503 870.607,309.669 830.5,336C 841.075,331.97 851.575,327.47 862,322.5C 862.833,322.833 863.667,323.167 864.5,323.5C 857.51,336.326 848.177,347.159 836.5,356C 827.316,362.095 817.649,367.428 807.5,372C 815.444,370.9 823.444,370.233 831.5,370C 833.968,371.588 834.134,373.422 832,375.5C 824.245,386.313 814.078,394.146 801.5,399C 794.964,401.401 788.297,403.401 781.5,405C 786.012,405.5 790.512,405.333 795,404.5C 806.579,404.488 808.412,408.654 800.5,417C 788.764,424.694 776.098,428.694 762.5,429C 769.231,429.575 775.231,431.908 780.5,436C 776.643,442.195 771.309,446.528 764.5,449C 757.407,451.618 750.074,452.952 742.5,453C 753.254,457.353 754.254,463.353 745.5,471C 737.39,475.684 728.723,477.351 719.5,476C 727.052,481.901 727.386,488.234 720.5,495C 712.694,499.447 704.36,501.114 695.5,500C 698.073,514.281 692.073,523.448 677.5,527.5C 674.961,526.885 672.461,526.218 670,525.5C 669.683,527.301 669.016,527.634 668,526.5C 665.794,535.028 660.96,541.528 653.5,546C 648.97,546.947 644.636,546.447 640.5,544.5C 638.94,549.117 637.44,553.783 636,558.5C 632.324,564.694 627.324,566.027 621,562.5C 616.492,570.1 610.158,572.767 602,570.5C 601,567.5 600,564.5 599,561.5C 595.099,569.46 589.099,574.127 581,575.5C 579.443,572.706 579.11,569.706 580,566.5C 594.184,543.482 605.517,519.482 614,494.5C 616.564,486.648 618.397,478.648 619.5,470.5C 621.308,470.491 622.975,470.991 624.5,472C 627.843,475.708 631.176,479.375 634.5,483C 635.5,483.667 636.5,483.667 637.5,483C 638.717,481.352 639.55,479.519 640,477.5C 640.316,470.142 640.816,462.809 641.5,455.5C 644.14,450.915 645.806,445.915 646.5,440.5C 647.147,439.726 647.48,438.726 647.5,437.5C 646.953,434.174 646.453,430.84 646,427.5C 644.106,422.377 641.772,417.711 639,413.5C 652.439,405.059 665.606,396.225 678.5,387C 683.333,382.167 688.167,377.333 693,372.5C 697.203,367.262 701.036,361.762 704.5,356C 705.744,355.544 706.577,356.044 707,357.5C 708.612,363.852 708.445,370.186 706.5,376.5C 706.833,376.833 707.167,377.167 707.5,377.5C 735.097,364.707 761.431,349.874 786.5,333C 804.962,320.202 821.128,305.036 835,287.5C 841.539,276.42 847.539,265.087 853,253.5C 855.965,258.998 856.298,264.665 854,270.5C 851.733,278.011 848.733,285.011 845,291.5C 856.079,281.955 865.246,270.955 872.5,258.5C 881.898,246.053 890.564,233.053 898.5,219.5 Z"/></g>
<g><path style="opacity:1" fill="#313231" d="M 902.5,219.5 C 903.833,220.167 903.833,220.167 902.5,219.5 Z"/></g>
<g><path style="opacity:1" fill="#151815" d="M 140.5,221.5 C 140.489,224.001 139.822,224.168 138.5,222C 139.094,221.536 139.761,221.369 140.5,221.5 Z"/></g>
<g><path style="opacity:1" fill="#313030" d="M 899.5,219.5 C 899.56,218.957 899.893,218.624 900.5,218.5C 901.793,220.636 901.793,222.636 900.5,224.5C 900.784,222.585 900.451,220.919 899.5,219.5 Z"/></g>
<g><path style="opacity:1" fill="#242524" d="M 892.5,224.5 C 893.833,225.167 893.833,225.167 892.5,224.5 Z"/></g>
<g><path style="opacity:1" fill="#000000" d="M 183.5,239.5 C 184.833,240.167 184.833,240.167 183.5,239.5 Z"/></g>
<g><path style="opacity:1" fill="#0b0c0b" d="M 150.5,257.5 C 151.833,258.167 151.833,258.167 150.5,257.5 Z"/></g>
<g><path style="opacity:1" fill="#0b0c0b" d="M 847.5,257.5 C 848.833,258.167 848.833,258.167 847.5,257.5 Z"/></g>
<g><path style="opacity:1" fill="#110c11" d="M 872.5,258.5 C 871.833,257.167 871.833,257.167 872.5,258.5 Z"/></g>
<g><path style="opacity:1" fill="#000000" d="M 193.5,313.5 C 194.833,314.167 194.833,314.167 193.5,313.5 Z"/></g>
<g><path style="opacity:1" fill="#050605" d="M 855.5,320.5 C 856.833,321.167 856.833,321.167 855.5,320.5 Z"/></g>
<g><path style="opacity:1" fill="#000000" d="M 398.5,321.5 C 399.833,322.167 399.833,322.167 398.5,321.5 Z"/></g>
<g><path style="opacity:1" fill="#000000" d="M 752.5,351.5 C 753.833,352.167 753.833,352.167 752.5,351.5 Z"/></g>
<g><path style="opacity:1" fill="#000000" d="M 434.5,383.5 C 435.833,384.167 435.833,384.167 434.5,383.5 Z"/></g>
<g><path style="opacity:1" fill="#000000" d="M 220.5,386.5 C 221.833,387.167 221.833,387.167 220.5,386.5 Z"/></g>
<g><path style="opacity:1" fill="#000000" d="M 223.5,386.5 C 222.833,387.167 222.833,387.167 223.5,386.5 Z"/></g>
<g><path style="opacity:1" fill="#000000" d="M 793.5,402.5 C 794.833,403.167 794.833,403.167 793.5,402.5 Z"/></g>
<g><path style="opacity:1" fill="#000000" d="M 609.5,403.5 C 610.833,404.167 610.833,404.167 609.5,403.5 Z"/></g>
<g><path style="opacity:1" fill="#000000" d="M 234.5,421.5 C 235.833,422.167 235.833,422.167 234.5,421.5 Z"/></g>
<g><path style="opacity:1" fill="#000000" d="M 239.5,422.5 C 240.833,423.167 240.833,423.167 239.5,422.5 Z"/></g>
<g><path style="opacity:1" fill="#000000" d="M 521.5,439.5 C 522.833,440.167 522.833,440.167 521.5,439.5 Z"/></g>
<g><path style="opacity:1" fill="#000000" d="M 646.5,440.5 C 645.833,439.167 645.833,439.167 646.5,440.5 Z"/></g>
<g><path style="opacity:1" fill="#000000" d="M 233.5,446.5 C 233.103,447.525 232.437,447.692 231.5,447C 232.094,446.536 232.761,446.369 233.5,446.5 Z"/></g>
<g><path style="opacity:1" fill="#000000" d="M 748.5,453.5 C 749.833,454.167 749.833,454.167 748.5,453.5 Z"/></g>
<g><path style="opacity:1" fill="#000000" d="M 640.5,454.5 C 641.167,454.5 641.5,454.833 641.5,455.5C 641.167,455.167 640.833,454.833 640.5,454.5 Z"/></g>
<g><path style="opacity:1" fill="#000000" d="M 750.5,456.5 C 751.833,457.167 751.833,457.167 750.5,456.5 Z"/></g>
<g><path style="opacity:1" fill="#000000" d="M 639.5,457.5 C 640.833,458.167 640.833,458.167 639.5,457.5 Z"/></g>
<g><path style="opacity:1" fill="#000000" d="M 723.5,477.5 C 724.833,478.167 724.833,478.167 723.5,477.5 Z"/></g>
<g><path style="opacity:1" fill="#000000" d="M 265.5,482.5 C 266.833,483.167 266.833,483.167 265.5,482.5 Z"/></g>
<g><path style="opacity:1" fill="#000000" d="M 696.5,500.5 C 697.833,501.167 697.833,501.167 696.5,500.5 Z"/></g>
<g><path style="opacity:1" fill="#000000" d="M 577.5,571.5 C 576.833,570.167 576.833,570.167 577.5,571.5 Z"/></g>
<g><path style="opacity:1" fill="#000000" d="M 577.5,571.5 C 578.525,571.897 578.692,572.563 578,573.5C 577.536,572.906 577.369,572.239 577.5,571.5 Z"/></g>
<g><path style="opacity:1" fill="#000000" d="M 359.5,573.5 C 359.897,572.475 360.563,572.308 361.5,573C 360.906,573.464 360.239,573.631 359.5,573.5 Z"/></g>
<g><path style="opacity:1" fill="#000000" d="M 434.5,573.5 C 435.833,574.167 435.833,574.167 434.5,573.5 Z"/></g>
<g><path style="opacity:1" fill="#000000" d="M 389.5,580.5 C 388.833,581.167 388.833,581.167 389.5,580.5 Z"/></g>
<g><path style="opacity:1" fill="#000000" d="M 386.5,624.5 C 385.761,624.631 385.094,624.464 384.5,624C 385.437,623.308 386.103,623.475 386.5,624.5 Z"/></g>
<g><path style="opacity:1" fill="#000000" d="M 556.5,624.5 C 557.833,625.167 557.833,625.167 556.5,624.5 Z"/></g>
<g><path style="opacity:1" fill="#000000" d="M 558.5,624.5 C 559.833,625.167 559.833,625.167 558.5,624.5 Z"/></g>
<g><path style="opacity:1" fill="#000000" d="M 516.5,634.5 C 517.833,635.167 517.833,635.167 516.5,634.5 Z"/></g>
<g><path style="opacity:1" fill="#000000" d="M 320.5,648.5 C 319.833,647.167 319.833,647.167 320.5,648.5 Z"/></g>
<g><path style="opacity:1" fill="#000000" d="M 523.5,650.5 C 522.833,651.167 522.833,651.167 523.5,650.5 Z"/></g>
<g><path style="opacity:1" fill="#000000" d="M 527.5,653.5 C 526.833,654.167 526.833,654.167 527.5,653.5 Z"/></g>
<g><path style="opacity:1" fill="#000000" d="M 523.5,654.5 C 524.833,655.167 524.833,655.167 523.5,654.5 Z"/></g>
<g><path style="opacity:1" fill="#050600" d="M 286.5,656.5 C 287.833,657.167 287.833,657.167 286.5,656.5 Z"/></g>
<g><path style="opacity:1" fill="#000000" d="M 591.5,660.5 C 592.833,661.167 592.833,661.167 591.5,660.5 Z"/></g>
<g><path style="opacity:1" fill="#000000" d="M 560.5,661.5 C 559.833,662.167 559.833,662.167 560.5,661.5 Z"/></g>
<g><path style="opacity:1" fill="#000000" d="M 555.5,662.5 C 556.833,663.167 556.833,663.167 555.5,662.5 Z"/></g>
<g><path style="opacity:1" fill="#050605" d="M 281.5,666.5 C 282.833,667.167 282.833,667.167 281.5,666.5 Z"/></g>
<g><path style="opacity:1" fill="#000000" d="M 536.5,676.5 C 537.833,677.167 537.833,677.167 536.5,676.5 Z"/></g>
<g><path style="opacity:1" fill="#000000" d="M 337.5,738.5 C 338.833,739.167 338.833,739.167 337.5,738.5 Z"/></g>
<g><path style="opacity:1" fill="#000000" d="M 411.5,790.5 C 412.833,791.167 412.833,791.167 411.5,790.5 Z"/></g>
<g><path style="opacity:1" fill="#000000" d="M 414.5,790.5 C 415.833,791.167 415.833,791.167 414.5,790.5 Z"/></g>
</svg>
