<?xml version="1.0" encoding="UTF-8"?>
<!DOCTYPE svg PUBLIC "-//W3C//DTD SVG 1.1//EN" "http://www.w3.org/Graphics/SVG/1.1/DTD/svg11.dtd">
<svg xmlns="http://www.w3.org/2000/svg" version="1.1" width="1024px" height="1024px" style="shape-rendering:geometricPrecision; text-rendering:geometricPrecision; image-rendering:optimizeQuality; fill-rule:evenodd; clip-rule:evenodd" xmlns:xlink="http://www.w3.org/1999/xlink">
<g><path style="opacity:1" fill="#050006" d="M 795.5,207.5 C 796.833,208.167 796.833,208.167 795.5,207.5 Z"/></g>
<g><path style="opacity:1" fill="#000000" d="M 814.5,313.5 C 821.591,332.514 820.758,351.181 812,369.5C 809.477,373.888 806.977,378.222 804.5,382.5C 797.697,391.266 789.697,398.766 780.5,405C 768.724,411.623 756.057,414.957 742.5,415C 776.069,417.09 806.069,407.59 832.5,386.5C 832.833,386.833 833.167,387.167 833.5,387.5C 818.998,415.15 796.331,431.983 765.5,438C 747.853,440.946 730.187,441.279 712.5,439C 720.585,446.235 725.919,455.068 728.5,465.5C 728.496,468.22 727.329,470.22 725,471.5C 713.922,466.367 702.755,466.2 691.5,471C 678.82,477.258 665.986,483.092 653,488.5C 649.491,496.01 645.157,503.01 640,509.5C 639.923,536.886 641.257,564.219 644,591.5C 647.635,618.343 652.302,645.009 658,671.5C 660.106,687.789 661.773,704.122 663,720.5C 663.739,724.385 665.073,728.052 667,731.5C 671.712,736.543 676.045,741.877 680,747.5C 685.111,760.312 680.944,766.978 667.5,767.5C 662.309,767.028 657.142,766.362 652,765.5C 638.551,769.247 625.051,769.414 611.5,766C 604.779,763.274 601.112,758.274 600.5,751C 603.731,741.865 604.731,732.532 603.5,723C 590.635,686.735 575.301,651.235 557.5,616.5C 558.559,614.466 559.559,612.466 560.5,610.5C 562.522,608.131 563.689,605.464 564,602.5C 560.912,605.081 558.412,608.081 556.5,611.5C 548.888,621.046 543.055,631.712 539,643.5C 529.203,669.553 521.037,696.053 514.5,723C 514.991,730.809 518.491,736.976 525,741.5C 536.085,762.222 530.252,771.055 507.5,768C 496.373,772.377 485.206,772.544 474,768.5C 452.646,772.676 442.979,764.01 445,742.5C 453.951,709.174 460.118,675.341 463.5,641C 462.708,636.166 461.875,631.333 461,626.5C 453.679,608.881 449.345,590.548 448,571.5C 444.931,591.25 447.764,610.084 456.5,628C 456.167,628.5 455.833,629 455.5,629.5C 433.015,637.038 410.015,642.538 386.5,646C 389.84,646.453 393.174,646.953 396.5,647.5C 404.833,646.833 413.167,646.167 421.5,645.5C 422.5,645.833 423.5,646.167 424.5,646.5C 408.096,664.637 396.93,685.637 391,709.5C 389.625,717.857 390.625,725.857 394,733.5C 397.716,737.548 401.05,741.882 404,746.5C 408.086,755.616 405.586,761.783 396.5,765C 388.135,766.065 379.968,765.231 372,762.5C 359.101,767.084 346.601,766.251 334.5,760C 329.715,755.931 326.881,750.764 326,744.5C 325.362,737.792 325.695,731.126 327,724.5C 333.337,704.156 339.671,683.822 346,663.5C 347.124,660.558 347.458,657.558 347,654.5C 328.633,672.197 313.299,692.197 301,714.5C 298.682,720.307 298.016,726.307 299,732.5C 303.075,737.065 306.909,741.732 310.5,746.5C 313.49,756.412 310.157,762.912 300.5,766C 293.276,766.982 286.276,766.148 279.5,763.5C 267.073,767.66 254.739,767.494 242.5,763C 236.836,758.348 234.503,752.348 235.5,745C 235.571,740.12 236.071,735.287 237,730.5C 242.066,712.969 247.733,695.636 254,678.5C 261.771,655.146 263.437,631.479 259,607.5C 254.667,617.159 249.5,626.326 243.5,635C 246.902,658.712 236.902,672.878 213.5,677.5C 211.667,677.415 210.334,676.748 209.5,675.5C 213.515,672.148 216.015,667.815 217,662.5C 217.159,657.084 217.826,651.75 219,646.5C 223.604,639.232 228.937,632.565 235,626.5C 241.164,615.354 244.831,603.688 246,591.5C 246.143,571.462 246.976,551.462 248.5,531.5C 252.246,516.596 257.58,502.263 264.5,488.5C 280.326,459.734 301.993,436.234 329.5,418C 342.117,411.019 355.117,405.186 368.5,400.5C 395.243,394.197 422.243,392.864 449.5,396.5C 447.262,400.303 445.596,404.303 444.5,408.5C 442.302,411.774 441.635,414.941 442.5,418C 441.833,419.667 441.167,421.333 440.5,423C 441.483,423.591 442.15,423.257 442.5,422C 443.406,419.209 444.073,416.376 444.5,413.5C 452.105,394.566 464.438,379.566 481.5,368.5C 502.585,356.455 524.419,350.455 547,350.5C 553.853,350.841 560.687,351.007 567.5,351C 572.398,346.592 577.398,342.426 582.5,338.5C 591.493,334.173 600.827,330.673 610.5,328C 627.881,325.561 644.881,327.227 661.5,333C 677.088,339.196 692.755,345.196 708.5,351C 723.107,355.545 737.44,355.545 751.5,351C 756.611,348.789 760.944,345.623 764.5,341.5C 768.95,336.842 771.284,331.176 771.5,324.5C 769.773,311.258 766.94,298.258 763,285.5C 755.715,254.461 765.215,229.961 791.5,212C 794.944,209.944 798.611,208.444 802.5,207.5C 804.936,208.1 806.602,209.6 807.5,212C 803.015,218.88 803.848,225.047 810,230.5C 810.667,232.5 810.667,234.5 810,236.5C 804.413,241.146 798.746,245.812 793,250.5C 792.042,253.075 791.542,255.741 791.5,258.5C 792.211,265.468 794.045,272.135 797,278.5C 802.879,290.259 808.713,301.925 814.5,313.5 Z M 607.5,459.5 C 618.95,480.125 617.784,500.125 604,519.5C 598.214,526.292 591.548,531.959 584,536.5C 577.478,522.594 567.645,511.76 554.5,504C 539.369,495.843 523.702,488.843 507.5,483C 492.313,477.003 479.146,468.17 468,456.5C 465.65,452.267 463.817,447.434 462.5,442C 462.667,440.833 462.833,439.667 463,438.5C 469.117,449.617 477.617,458.451 488.5,465C 507.148,474.158 526.148,482.491 545.5,490C 563.87,497.503 578.203,509.67 588.5,526.5C 602.938,514.111 609.938,498.277 609.5,479C 608.757,472.501 608.09,466.001 607.5,459.5 Z"/></g>
<g><path style="opacity:1" fill="#000000" d="M 767.5,309.5 C 768.833,310.167 768.833,310.167 767.5,309.5 Z"/></g>
<g><path style="opacity:1" fill="#000000" d="M 814.5,312.5 C 815.833,313.167 815.833,313.167 814.5,312.5 Z"/></g>
<g><path style="opacity:1" fill="#000000" d="M 768.5,316.5 C 769.833,317.167 769.833,317.167 768.5,316.5 Z"/></g>
<g><path style="opacity:1" fill="#000000" d="M 582.5,338.5 C 581.833,337.167 581.833,337.167 582.5,338.5 Z"/></g>
<g><path style="opacity:1" fill="#000000" d="M 579.5,338.5 C 580.833,339.167 580.833,339.167 579.5,338.5 Z"/></g>
<g><path style="opacity:1" fill="#000000" d="M 764.5,341.5 C 763.833,340.167 763.833,340.167 764.5,341.5 Z"/></g>
<g><path style="opacity:1" fill="#000000" d="M 539.5,348.5 C 540.833,349.167 540.833,349.167 539.5,348.5 Z"/></g>
<g><path style="opacity:1" fill="#000000" d="M 554.5,348.5 C 555.833,349.167 555.833,349.167 554.5,348.5 Z"/></g>
<g><path style="opacity:1" fill="#000000" d="M 819.5,350.5 C 820.833,351.167 820.833,351.167 819.5,350.5 Z"/></g>
<g><path style="opacity:1" fill="#000000" d="M 720.5,351.5 C 721.833,352.167 721.833,352.167 720.5,351.5 Z"/></g>
<g><path style="opacity:1" fill="#000000" d="M 739.5,351.5 C 740.833,352.167 740.833,352.167 739.5,351.5 Z"/></g>
<g><path style="opacity:1" fill="#000000" d="M 734.5,352.5 C 735.833,353.167 735.833,353.167 734.5,352.5 Z"/></g>
<g><path style="opacity:1" fill="#000000" d="M 482.5,364.5 C 483.833,365.167 483.833,365.167 482.5,364.5 Z"/></g>
<g><path style="opacity:1" fill="#000000" d="M 481.5,368.5 C 480.761,368.631 480.094,368.464 479.5,368C 480.437,367.308 481.103,367.475 481.5,368.5 Z"/></g>
<g><path style="opacity:1" fill="#000000" d="M 468.5,375.5 C 469.833,376.167 469.833,376.167 468.5,375.5 Z"/></g>
<g><path style="opacity:1" fill="#000000" d="M 804.5,382.5 C 805.833,383.167 805.833,383.167 804.5,382.5 Z"/></g>
<g><path style="opacity:1" fill="#050605" d="M 827.5,383.5 C 828.833,384.167 828.833,384.167 827.5,383.5 Z"/></g>
<g><path style="opacity:1" fill="#000000" d="M 800.5,388.5 C 801.833,389.167 801.833,389.167 800.5,388.5 Z"/></g>
<g><path style="opacity:1" fill="#000000" d="M 403.5,392.5 C 404.833,393.167 404.833,393.167 403.5,392.5 Z"/></g>
<g><path style="opacity:1" fill="#000000" d="M 426.5,392.5 C 427.833,393.167 427.833,393.167 426.5,392.5 Z"/></g>
<g><path style="opacity:1" fill="#000000" d="M 432.5,393.5 C 432.897,392.475 433.563,392.308 434.5,393C 433.906,393.464 433.239,393.631 432.5,393.5 Z"/></g>
<g><path style="opacity:1" fill="#000000" d="M 385.5,394.5 C 386.833,395.167 386.833,395.167 385.5,394.5 Z"/></g>
<g><path style="opacity:1" fill="#000000" d="M 388.5,394.5 C 389.833,395.167 389.833,395.167 388.5,394.5 Z"/></g>
<g><path style="opacity:1" fill="#000000" d="M 368.5,400.5 C 367.833,399.167 367.833,399.167 368.5,400.5 Z"/></g>
<g><path style="opacity:1" fill="#000000" d="M 808.5,399.5 C 809.833,400.167 809.833,400.167 808.5,399.5 Z"/></g>
<g><path style="opacity:1" fill="#000000" d="M 356.5,400.5 C 357.833,401.167 357.833,401.167 356.5,400.5 Z"/></g>
<g><path style="opacity:1" fill="#000000" d="M 448.5,400.5 C 449.833,401.167 449.833,401.167 448.5,400.5 Z"/></g>
<g><path style="opacity:1" fill="#000000" d="M 359.5,401.5 C 360.833,402.167 360.833,402.167 359.5,401.5 Z"/></g>
<g><path style="opacity:1" fill="#000000" d="M 786.5,401.5 C 787.833,402.167 787.833,402.167 786.5,401.5 Z"/></g>
<g><path style="opacity:1" fill="#000000" d="M 801.5,402.5 C 802.833,403.167 802.833,403.167 801.5,402.5 Z"/></g>
<g><path style="opacity:1" fill="#000000" d="M 344.5,407.5 C 345.833,408.167 345.833,408.167 344.5,407.5 Z"/></g>
<g><path style="opacity:1" fill="#000000" d="M 444.5,408.5 C 445.525,408.897 445.692,409.563 445,410.5C 444.536,409.906 444.369,409.239 444.5,408.5 Z"/></g>
<g><path style="opacity:1" fill="#000000" d="M 782.5,409.5 C 783.833,410.167 783.833,410.167 782.5,409.5 Z"/></g>
<g><path style="opacity:1" fill="#000000" d="M 444.5,413.5 C 443.833,412.167 443.833,412.167 444.5,413.5 Z"/></g>
<g><path style="opacity:1" fill="#000000" d="M 316.5,424.5 C 317.833,425.167 317.833,425.167 316.5,424.5 Z"/></g>
<g><path style="opacity:1" fill="#000000" d="M 771.5,437.5 C 772.833,438.167 772.833,438.167 771.5,437.5 Z"/></g>
<g><path style="opacity:1" fill="#000000" d="M 739.5,442.5 C 739.897,441.475 740.563,441.308 741.5,442C 740.906,442.464 740.239,442.631 739.5,442.5 Z"/></g>
<g><path style="opacity:1" fill="#000000" d="M 742.5,441.5 C 743.833,442.167 743.833,442.167 742.5,441.5 Z"/></g>
<g><path style="opacity:1" fill="#000000" d="M 749.5,441.5 C 750.833,442.167 750.833,442.167 749.5,441.5 Z"/></g>
<g><path style="opacity:1" fill="#000000" d="M 704.5,468.5 C 705.833,469.167 705.833,469.167 704.5,468.5 Z"/></g>
<g><path style="opacity:1" fill="#000000" d="M 708.5,468.5 C 709.833,469.167 709.833,469.167 708.5,468.5 Z"/></g>
<g><path style="opacity:1" fill="#000000" d="M 710.5,469.5 C 710.897,468.475 711.563,468.308 712.5,469C 711.906,469.464 711.239,469.631 710.5,469.5 Z"/></g>
<g><path style="opacity:1" fill="#000000" d="M 264.5,488.5 C 263.833,487.167 263.833,487.167 264.5,488.5 Z"/></g>
<g><path style="opacity:1" fill="#000000" d="M 249.5,519.5 C 250.833,520.167 250.833,520.167 249.5,519.5 Z"/></g>
<g><path style="opacity:1" fill="#000000" d="M 248.5,531.5 C 247.427,530.749 247.26,529.749 248,528.5C 248.483,529.448 248.649,530.448 248.5,531.5 Z"/></g>
<g><path style="opacity:1" fill="#000000" d="M 244.5,555.5 C 245.833,556.167 245.833,556.167 244.5,555.5 Z"/></g>
<g><path style="opacity:1" fill="#000000" d="M 244.5,558.5 C 245.833,559.167 245.833,559.167 244.5,558.5 Z"/></g>
<g><path style="opacity:1" fill="#000000" d="M 244.5,560.5 C 245.833,561.167 245.833,561.167 244.5,560.5 Z"/></g>
<g><path style="opacity:1" fill="#000000" d="M 644.5,560.5 C 645.833,561.167 645.833,561.167 644.5,560.5 Z"/></g>
<g><path style="opacity:1" fill="#000000" d="M 244.5,566.5 C 245.833,567.167 245.833,567.167 244.5,566.5 Z"/></g>
<g><path style="opacity:1" fill="#000000" d="M 244.5,568.5 C 245.833,569.167 245.833,569.167 244.5,568.5 Z"/></g>
<g><path style="opacity:1" fill="#000000" d="M 447.5,581.5 C 448.833,582.167 448.833,582.167 447.5,581.5 Z"/></g>
<g><path style="opacity:1" fill="#000000" d="M 244.5,582.5 C 245.573,583.251 245.74,584.251 245,585.5C 244.517,584.552 244.351,583.552 244.5,582.5 Z"/></g>
<g><path style="opacity:1" fill="#000000" d="M 447.5,585.5 C 448.833,586.167 448.833,586.167 447.5,585.5 Z"/></g>
<g><path style="opacity:1" fill="#000000" d="M 448.5,592.5 C 449.833,593.167 449.833,593.167 448.5,592.5 Z"/></g>
<g><path style="opacity:1" fill="#000000" d="M 243.5,595.5 C 244.833,596.167 244.833,596.167 243.5,595.5 Z"/></g>
<g><path style="opacity:1" fill="#000000" d="M 646.5,602.5 C 647.833,603.167 647.833,603.167 646.5,602.5 Z"/></g>
<g><path style="opacity:1" fill="#000000" d="M 560.5,610.5 C 557.999,610.489 557.832,609.822 560,608.5C 560.464,609.094 560.631,609.761 560.5,610.5 Z"/></g>
<g><path style="opacity:1" fill="#000000" d="M 258.5,610.5 C 259.833,611.167 259.833,611.167 258.5,610.5 Z"/></g>
<g><path style="opacity:1" fill="#000000" d="M 556.5,611.5 C 557.833,612.167 557.833,612.167 556.5,611.5 Z"/></g>
<g><path style="opacity:1" fill="#000000" d="M 259.5,620.5 C 260.598,621.601 260.765,622.934 260,624.5C 259.51,623.207 259.343,621.873 259.5,620.5 Z"/></g>
<g><path style="opacity:1" fill="#000000" d="M 458.5,624.5 C 459.833,625.167 459.833,625.167 458.5,624.5 Z"/></g>
<g><path style="opacity:1" fill="#000000" d="M 559.5,624.5 C 560.833,625.167 560.833,625.167 559.5,624.5 Z"/></g>
<g><path style="opacity:1" fill="#000000" d="M 259.5,625.5 C 260.833,626.167 260.833,626.167 259.5,625.5 Z"/></g>
<g><path style="opacity:1" fill="#000000" d="M 259.5,627.5 C 260.833,628.167 260.833,628.167 259.5,627.5 Z"/></g>
<g><path style="opacity:1" fill="#000000" d="M 259.5,636.5 C 260.833,637.167 260.833,637.167 259.5,636.5 Z"/></g>
<g><path style="opacity:1" fill="#000000" d="M 460.5,637.5 C 461.833,638.167 461.833,638.167 460.5,637.5 Z"/></g>
<g><path style="opacity:1" fill="#000000" d="M 217.5,639.5 C 218.833,640.167 218.833,640.167 217.5,639.5 Z"/></g>
<g><path style="opacity:1" fill="#000000" d="M 414.5,642.5 C 415.833,643.167 415.833,643.167 414.5,642.5 Z"/></g>
<g><path style="opacity:1" fill="#000000" d="M 245.5,643.5 C 246.833,644.167 246.833,644.167 245.5,643.5 Z"/></g>
<g><path style="opacity:1" fill="#000000" d="M 568.5,643.5 C 569.833,644.167 569.833,644.167 568.5,643.5 Z"/></g>
<g><path style="opacity:1" fill="#000000" d="M 400.5,644.5 C 401.833,645.167 401.833,645.167 400.5,644.5 Z"/></g>
<g><path style="opacity:1" fill="#000000" d="M 404.5,644.5 C 405.833,645.167 405.833,645.167 404.5,644.5 Z"/></g>
<g><path style="opacity:1" fill="#000000" d="M 408.5,644.5 C 409.833,645.167 409.833,645.167 408.5,644.5 Z"/></g>
<g><path style="opacity:1" fill="#000000" d="M 539.5,645.5 C 540.833,646.167 540.833,646.167 539.5,645.5 Z"/></g>
<g><path style="opacity:1" fill="#000000" d="M 460.5,648.5 C 461.833,649.167 461.833,649.167 460.5,648.5 Z"/></g>
<g><path style="opacity:1" fill="#000000" d="M 215.5,657.5 C 216.833,658.167 216.833,658.167 215.5,657.5 Z"/></g>
<g><path style="opacity:1" fill="#000000" d="M 459.5,657.5 C 460.833,658.167 460.833,658.167 459.5,657.5 Z"/></g>
<g><path style="opacity:1" fill="#000000" d="M 209.5,675.5 C 208.833,674.167 208.833,674.167 209.5,675.5 Z"/></g>
<g><path style="opacity:1" fill="#000000" d="M 400.5,684.5 C 401.833,685.167 401.833,685.167 400.5,684.5 Z"/></g>
<g><path style="opacity:1" fill="#000000" d="M 396.5,694.5 C 397.833,695.167 397.833,695.167 396.5,694.5 Z"/></g>
<g><path style="opacity:1" fill="#000000" d="M 518.5,709.5 C 519.833,710.167 519.833,710.167 518.5,709.5 Z"/></g>
<g><path style="opacity:1" fill="#000000" d="M 239.5,713.5 C 240.833,714.167 240.833,714.167 239.5,713.5 Z"/></g>
<g><path style="opacity:1" fill="#000000" d="M 601.5,722.5 C 602.833,723.167 602.833,723.167 601.5,722.5 Z"/></g>
<g><path style="opacity:1" fill="#000000" d="M 602.5,728.5 C 603.613,729.946 603.78,731.613 603,733.5C 602.506,731.866 602.34,730.199 602.5,728.5 Z"/></g>
<g><path style="opacity:1" fill="#000000" d="M 234.5,731.5 C 235.833,732.167 235.833,732.167 234.5,731.5 Z"/></g>
<g><path style="opacity:1" fill="#000000" d="M 308.5,736.5 C 309.833,737.167 309.833,737.167 308.5,736.5 Z"/></g>
<g><path style="opacity:1" fill="#000000" d="M 323.5,736.5 C 324.573,737.251 324.74,738.251 324,739.5C 323.517,738.552 323.351,737.552 323.5,736.5 Z"/></g>
<g><path style="opacity:1" fill="#000000" d="M 310.5,745.5 C 311.833,746.167 311.833,746.167 310.5,745.5 Z"/></g>
<g><path style="opacity:1" fill="#000000" d="M 599.5,745.5 C 600.833,746.167 600.833,746.167 599.5,745.5 Z"/></g>
<g><path style="opacity:1" fill="#000000" d="M 233.5,746.5 C 234.833,747.167 234.833,747.167 233.5,746.5 Z"/></g>
<g><path style="opacity:1" fill="#000000" d="M 442.5,746.5 C 443.833,747.167 443.833,747.167 442.5,746.5 Z"/></g>
<g><path style="opacity:1" fill="#000000" d="M 442.5,748.5 C 443.833,749.167 443.833,749.167 442.5,748.5 Z"/></g>
<g><path style="opacity:1" fill="#000000" d="M 375.5,764.5 C 376.833,765.167 376.833,765.167 375.5,764.5 Z"/></g>
<g><path style="opacity:1" fill="#000000" d="M 378.5,765.5 C 379.833,766.167 379.833,766.167 378.5,765.5 Z"/></g>
<g><path style="opacity:1" fill="#000000" d="M 356.5,766.5 C 357.833,767.167 357.833,767.167 356.5,766.5 Z"/></g>
<g><path style="opacity:1" fill="#000000" d="M 652.5,766.5 C 653.833,767.167 653.833,767.167 652.5,766.5 Z"/></g>
<g><path style="opacity:1" fill="#000000" d="M 508.5,768.5 C 509.833,769.167 509.833,769.167 508.5,768.5 Z"/></g>
<g><path style="opacity:1" fill="#000000" d="M 627.5,769.5 C 628.833,770.167 628.833,770.167 627.5,769.5 Z"/></g>
<g><path style="opacity:1" fill="#000000" d="M 629.5,769.5 C 630.833,770.167 630.833,770.167 629.5,769.5 Z"/></g>
<g><path style="opacity:1" fill="#000000" d="M 465.5,770.5 C 466.833,771.167 466.833,771.167 465.5,770.5 Z"/></g>
<g><path style="opacity:1" fill="#000000" d="M 469.5,770.5 C 470.833,771.167 470.833,771.167 469.5,770.5 Z"/></g>
<g><path style="opacity:1" fill="#000000" d="M 480.5,772.5 C 480.897,771.475 481.563,771.308 482.5,772C 481.906,772.464 481.239,772.631 480.5,772.5 Z"/></g>
<g><path style="opacity:1" fill="#373837" d="M 307.5,933.5 C 308.833,934.167 308.833,934.167 307.5,933.5 Z"/></g>
</svg>
