<?xml version="1.0" encoding="UTF-8"?>
<!DOCTYPE svg PUBLIC "-//W3C//DTD SVG 1.1//EN" "http://www.w3.org/Graphics/SVG/1.1/DTD/svg11.dtd">
<svg xmlns="http://www.w3.org/2000/svg" version="1.1" width="1024px" height="1024px" style="shape-rendering:geometricPrecision; text-rendering:geometricPrecision; image-rendering:optimizeQuality; fill-rule:evenodd; clip-rule:evenodd" xmlns:xlink="http://www.w3.org/1999/xlink">
<g><path style="opacity:1" fill="#000000" d="M 359.5,216.5 C 360.251,215.427 361.251,215.26 362.5,216C 361.552,216.483 360.552,216.649 359.5,216.5 Z"/></g>
<g><path style="opacity:1" fill="#000000" d="M 460.5,227.5 C 469.128,231.814 477.795,236.147 486.5,240.5C 501.252,249.236 514.585,259.903 526.5,272.5C 528.817,276.146 531.484,279.48 534.5,282.5C 540.376,292.253 545.709,302.253 550.5,312.5C 560.085,343.939 557.918,374.606 544,404.5C 533.478,424.899 520.978,443.899 506.5,461.5C 490.897,478.937 474.397,495.603 457,511.5C 443.633,525.199 430.633,539.199 418,553.5C 411.28,561.886 404.947,570.553 399,579.5C 396.274,583.619 394.107,587.952 392.5,592.5C 381.017,611.068 377.851,631.068 383,652.5C 384.751,657.674 387.251,662.341 390.5,666.5C 393.5,672.833 398.167,677.5 404.5,680.5C 384.308,660.053 379.475,636.387 390,609.5C 393.615,601.096 398.115,593.262 403.5,586C 431.09,575.47 459.09,566.137 487.5,558C 559.38,541.317 631.046,541.65 702.5,559C 712.301,561.878 721.967,565.045 731.5,568.5C 750.06,576.111 767.06,586.278 782.5,599C 788.437,604.43 793.77,610.263 798.5,616.5C 816.976,643.995 818.643,672.328 803.5,701.5C 788.441,721.705 769.107,736.538 745.5,746C 733.457,751.126 721.124,755.459 708.5,759C 679.082,765.769 650.082,773.602 621.5,782.5C 592.125,790.76 562.459,797.927 532.5,804C 489.669,811.95 447.002,812.95 404.5,807C 366.501,801.795 332.834,787.129 303.5,763C 281.57,743.584 266.903,719.751 259.5,691.5C 254.805,666.922 255.805,642.588 262.5,618.5C 272.202,595.766 283.535,573.766 296.5,552.5C 314.201,527.4 328.368,500.733 339,472.5C 341.351,465.616 343.185,458.616 344.5,451.5C 350.786,429.181 352.786,406.348 350.5,383C 350.4,380.698 349.733,378.698 348.5,377C 349.108,375.769 349.441,374.436 349.5,373C 348.515,365.217 346.849,357.717 344.5,350.5C 341.455,336.551 335.955,322.551 328,308.5C 326.251,307.447 324.751,307.78 323.5,309.5C 314.396,312.442 305.062,314.442 295.5,315.5C 288.751,315.056 282.418,313.556 276.5,311C 271.254,319.313 269.754,328.146 272,337.5C 273.322,341.624 274.822,345.624 276.5,349.5C 270.548,345.712 265.714,340.712 262,334.5C 257.38,341.12 252.047,347.12 246,352.5C 245.675,350.447 246.009,348.447 247,346.5C 250.512,338.812 254.012,331.145 257.5,323.5C 260.604,316.802 264.604,310.635 269.5,305C 266.2,301.877 263.7,297.71 262,292.5C 261.88,284.198 264.546,276.865 270,270.5C 276.332,265.161 280.665,258.494 283,250.5C 287.194,245.496 292.361,242.163 298.5,240.5C 308.913,235.943 319.246,231.109 329.5,226C 367.075,213.51 405.075,212.177 443.5,222C 449.165,223.944 454.832,225.778 460.5,227.5 Z M 593.5,636.5 C 627.59,635.055 661.256,639.222 694.5,649C 682.986,655.229 670.986,660.396 658.5,664.5C 586.452,686.758 513.119,690.925 438.5,677C 435.041,676.137 431.707,674.97 428.5,673.5C 459.829,663.25 491.496,654.084 523.5,646C 546.76,641.177 570.094,638.011 593.5,636.5 Z M 404.5,680.5 C 406.027,680.427 407.027,681.094 407.5,682.5C 405.973,682.573 404.973,681.906 404.5,680.5 Z"/></g>
<g><path style="opacity:1" fill="#000000" d="M 422.5,215.5 C 423.833,216.167 423.833,216.167 422.5,215.5 Z"/></g>
<g><path style="opacity:1" fill="#000000" d="M 330.5,223.5 C 331.833,224.167 331.833,224.167 330.5,223.5 Z"/></g>
<g><path style="opacity:1" fill="#000000" d="M 454.5,223.5 C 455.833,224.167 455.833,224.167 454.5,223.5 Z"/></g>
<g><path style="opacity:1" fill="#000000" d="M 327.5,224.5 C 328.833,225.167 328.833,225.167 327.5,224.5 Z"/></g>
<g><path style="opacity:1" fill="#000000" d="M 460.5,226.5 C 461.833,227.167 461.833,227.167 460.5,226.5 Z"/></g>
<g><path style="opacity:1" fill="#000000" d="M 305.5,234.5 C 306.833,235.167 306.833,235.167 305.5,234.5 Z"/></g>
<g><path style="opacity:1" fill="#000000" d="M 298.5,240.5 C 297.761,240.631 297.094,240.464 296.5,240C 297.437,239.308 298.103,239.475 298.5,240.5 Z"/></g>
<g><path style="opacity:1" fill="#000000" d="M 486.5,239.5 C 487.833,240.167 487.833,240.167 486.5,239.5 Z"/></g>
<g><path style="opacity:1" fill="#000000" d="M 526.5,271.5 C 527.833,272.167 527.833,272.167 526.5,271.5 Z"/></g>
<g><path style="opacity:1" fill="#000000" d="M 534.5,281.5 C 535.833,282.167 535.833,282.167 534.5,281.5 Z"/></g>
<g><path style="opacity:1" fill="#000000" d="M 259.5,289.5 C 260.525,289.897 260.692,290.563 260,291.5C 259.536,290.906 259.369,290.239 259.5,289.5 Z"/></g>
<g><path style="opacity:1" fill="#000000" d="M 323.5,309.5 C 324.833,310.167 324.833,310.167 323.5,309.5 Z"/></g>
<g><path style="opacity:1" fill="#000000" d="M 550.5,311.5 C 551.833,312.167 551.833,312.167 550.5,311.5 Z"/></g>
<g><path style="opacity:1" fill="#000000" d="M 295.5,317.5 C 295.897,316.475 296.563,316.308 297.5,317C 296.906,317.464 296.239,317.631 295.5,317.5 Z"/></g>
<g><path style="opacity:1" fill="#000000" d="M 257.5,323.5 C 256.833,322.167 256.833,322.167 257.5,323.5 Z"/></g>
<g><path style="opacity:1" fill="#000000" d="M 555.5,326.5 C 556.833,327.167 556.833,327.167 555.5,326.5 Z"/></g>
<g><path style="opacity:1" fill="#000000" d="M 557.5,346.5 C 558.833,347.167 558.833,347.167 557.5,346.5 Z"/></g>
<g><path style="opacity:1" fill="#000000" d="M 276.5,349.5 C 277.833,350.167 277.833,350.167 276.5,349.5 Z"/></g>
<g><path style="opacity:1" fill="#000000" d="M 344.5,350.5 C 343.833,351.167 343.833,351.167 344.5,350.5 Z"/></g>
<g><path style="opacity:1" fill="#000000" d="M 557.5,354.5 C 558.833,355.167 558.833,355.167 557.5,354.5 Z"/></g>
<g><path style="opacity:1" fill="#000000" d="M 344.5,360.5 C 345.077,359.227 345.743,359.227 346.5,360.5C 346.03,361.463 345.363,361.463 344.5,360.5 Z"/></g>
<g><path style="opacity:1" fill="#000000" d="M 345.5,362.5 C 346.833,363.167 346.833,363.167 345.5,362.5 Z"/></g>
<g><path style="opacity:1" fill="#000000" d="M 347.5,373.5 C 348.525,373.897 348.692,374.563 348,375.5C 347.536,374.906 347.369,374.239 347.5,373.5 Z"/></g>
<g><path style="opacity:1" fill="#000000" d="M 348.5,378.5 C 349.833,379.167 349.833,379.167 348.5,378.5 Z"/></g>
<g><path style="opacity:1" fill="#000000" d="M 347.5,428.5 C 348.833,429.167 348.833,429.167 347.5,428.5 Z"/></g>
<g><path style="opacity:1" fill="#000000" d="M 344.5,451.5 C 343.833,450.167 343.833,450.167 344.5,451.5 Z"/></g>
<g><path style="opacity:1" fill="#000000" d="M 506.5,461.5 C 507.833,462.167 507.833,462.167 506.5,461.5 Z"/></g>
<g><path style="opacity:1" fill="#000000" d="M 336.5,472.5 C 337.833,473.167 337.833,473.167 336.5,472.5 Z"/></g>
<g><path style="opacity:1" fill="#000000" d="M 308.5,529.5 C 309.833,530.167 309.833,530.167 308.5,529.5 Z"/></g>
<g><path style="opacity:1" fill="#000000" d="M 546.5,543.5 C 547.833,544.167 547.833,544.167 546.5,543.5 Z"/></g>
<g><path style="opacity:1" fill="#000000" d="M 567.5,545.5 C 568.946,544.387 570.613,544.22 572.5,545C 570.866,545.494 569.199,545.66 567.5,545.5 Z"/></g>
<g><path style="opacity:1" fill="#000000" d="M 575.5,544.5 C 576.833,545.167 576.833,545.167 575.5,544.5 Z"/></g>
<g><path style="opacity:1" fill="#000000" d="M 611.5,544.5 C 612.833,545.167 612.833,545.167 611.5,544.5 Z"/></g>
<g><path style="opacity:1" fill="#000000" d="M 614.5,544.5 C 615.833,545.167 615.833,545.167 614.5,544.5 Z"/></g>
<g><path style="opacity:1" fill="#000000" d="M 619.5,544.5 C 620.833,545.167 620.833,545.167 619.5,544.5 Z"/></g>
<g><path style="opacity:1" fill="#000000" d="M 537.5,546.5 C 538.833,547.167 538.833,547.167 537.5,546.5 Z"/></g>
<g><path style="opacity:1" fill="#000000" d="M 641.5,546.5 C 642.833,547.167 642.833,547.167 641.5,546.5 Z"/></g>
<g><path style="opacity:1" fill="#000000" d="M 296.5,552.5 C 295.833,551.167 295.833,551.167 296.5,552.5 Z"/></g>
<g><path style="opacity:1" fill="#000000" d="M 507.5,551.5 C 508.833,552.167 508.833,552.167 507.5,551.5 Z"/></g>
<g><path style="opacity:1" fill="#000000" d="M 678.5,551.5 C 679.833,552.167 679.833,552.167 678.5,551.5 Z"/></g>
<g><path style="opacity:1" fill="#000000" d="M 502.5,552.5 C 503.833,553.167 503.833,553.167 502.5,552.5 Z"/></g>
<g><path style="opacity:1" fill="#000000" d="M 683.5,552.5 C 684.833,553.167 684.833,553.167 683.5,552.5 Z"/></g>
<g><path style="opacity:1" fill="#000000" d="M 497.5,553.5 C 498.833,554.167 498.833,554.167 497.5,553.5 Z"/></g>
<g><path style="opacity:1" fill="#000000" d="M 473.5,559.5 C 474.833,560.167 474.833,560.167 473.5,559.5 Z"/></g>
<g><path style="opacity:1" fill="#000000" d="M 709.5,560.5 C 709.897,559.475 710.563,559.308 711.5,560C 710.906,560.464 710.239,560.631 709.5,560.5 Z"/></g>
<g><path style="opacity:1" fill="#000000" d="M 470.5,560.5 C 471.833,561.167 471.833,561.167 470.5,560.5 Z"/></g>
<g><path style="opacity:1" fill="#000000" d="M 466.5,561.5 C 467.833,562.167 467.833,562.167 466.5,561.5 Z"/></g>
<g><path style="opacity:1" fill="#000000" d="M 447.5,568.5 C 447.897,567.475 448.563,567.308 449.5,568C 448.906,568.464 448.239,568.631 447.5,568.5 Z"/></g>
<g><path style="opacity:1" fill="#000000" d="M 731.5,567.5 C 732.833,568.167 732.833,568.167 731.5,567.5 Z"/></g>
<g><path style="opacity:1" fill="#000000" d="M 284.5,568.5 C 285.833,569.167 285.833,569.167 284.5,568.5 Z"/></g>
<g><path style="opacity:1" fill="#000000" d="M 734.5,568.5 C 735.833,569.167 735.833,569.167 734.5,568.5 Z"/></g>
<g><path style="opacity:1" fill="#000000" d="M 442.5,569.5 C 443.833,570.167 443.833,570.167 442.5,569.5 Z"/></g>
<g><path style="opacity:1" fill="#000000" d="M 393.5,591.5 C 394.833,592.167 394.833,592.167 393.5,591.5 Z"/></g>
<g><path style="opacity:1" fill="#000000" d="M 271.5,592.5 C 272.833,593.167 272.833,593.167 271.5,592.5 Z"/></g>
<g><path style="opacity:1" fill="#000000" d="M 392.5,592.5 C 392.833,592.5 393.167,592.5 393.5,592.5C 393.315,593.17 392.981,593.17 392.5,592.5 Z"/></g>
<g><path style="opacity:1" fill="#000000" d="M 255.5,600.5 C 255.897,599.475 256.563,599.308 257.5,600C 256.906,600.464 256.239,600.631 255.5,600.5 Z"/></g>
<g><path style="opacity:1" fill="#000000" d="M 259.5,621.5 C 256.503,629.106 254.669,637.106 254,645.5C 252.059,665.245 254.059,684.578 260,703.5C 261.372,707.814 263.205,711.814 265.5,715.5C 265.66,717.153 266.326,718.486 267.5,719.5C 269.889,726.616 273.556,732.949 278.5,738.5C 286.311,750.241 295.645,760.741 306.5,770C 317.017,778.09 328.017,785.423 339.5,792C 296.236,793.232 254.236,786.899 213.5,773C 189.157,764.755 167.99,751.588 150,733.5C 128.031,703.805 128.031,674.139 150,644.5C 152.705,641.964 155.205,639.297 157.5,636.5C 158.5,636.167 159.167,635.5 159.5,634.5C 181.153,618.136 205.153,607.969 231.5,604C 241.776,602.414 252.109,601.414 262.5,601C 264.246,599.018 265.579,599.185 266.5,601.5C 263.02,607.788 260.687,614.454 259.5,621.5 Z"/></g>
<g><path style="opacity:1" fill="#000000" d="M 387.5,604.5 C 388.833,605.167 388.833,605.167 387.5,604.5 Z"/></g>
<g><path style="opacity:1" fill="#000000" d="M 262.5,613.5 C 263.833,614.167 263.833,614.167 262.5,613.5 Z"/></g>
<g><path style="opacity:1" fill="#000000" d="M 186.5,615.5 C 187.833,616.167 187.833,616.167 186.5,615.5 Z"/></g>
<g><path style="opacity:1" fill="#000000" d="M 798.5,615.5 C 799.833,616.167 799.833,616.167 798.5,615.5 Z"/></g>
<g><path style="opacity:1" fill="#000000" d="M 183.5,617.5 C 183.897,616.475 184.563,616.308 185.5,617C 184.906,617.464 184.239,617.631 183.5,617.5 Z"/></g>
<g><path style="opacity:1" fill="#000000" d="M 262.5,618.5 C 261.833,617.167 261.833,617.167 262.5,618.5 Z"/></g>
<g><path style="opacity:1" fill="#000000" d="M 259.5,621.5 C 260.573,622.251 260.74,623.251 260,624.5C 259.517,623.552 259.351,622.552 259.5,621.5 Z"/></g>
<g><path style="opacity:1" fill="#000000" d="M 803.5,621.5 C 804.833,622.167 804.833,622.167 803.5,621.5 Z"/></g>
<g><path style="opacity:1" fill="#000000" d="M 258.5,626.5 C 259.833,627.167 259.833,627.167 258.5,626.5 Z"/></g>
<g><path style="opacity:1" fill="#000000" d="M 258.5,628.5 C 259.833,629.167 259.833,629.167 258.5,628.5 Z"/></g>
<g><path style="opacity:1" fill="#000000" d="M 257.5,631.5 C 258.833,632.167 258.833,632.167 257.5,631.5 Z"/></g>
<g><path style="opacity:1" fill="#050000" d="M 159.5,634.5 C 158.833,633.167 158.833,633.167 159.5,634.5 Z"/></g>
<g><path style="opacity:1" fill="#000000" d="M 381.5,634.5 C 382.525,634.897 382.692,635.563 382,636.5C 381.536,635.906 381.369,635.239 381.5,634.5 Z"/></g>
<g><path style="opacity:1" fill="#050605" d="M 157.5,636.5 C 156.833,635.167 156.833,635.167 157.5,636.5 Z"/></g>
<g><path style="opacity:1" fill="#000000" d="M 383.5,645.5 C 384.525,645.897 384.692,646.563 384,647.5C 383.536,646.906 383.369,646.239 383.5,645.5 Z"/></g>
<g><path style="opacity:1" fill="#000000" d="M 254.5,647.5 C 255.833,648.167 255.833,648.167 254.5,647.5 Z"/></g>
<g><path style="opacity:1" fill="#000000" d="M 254.5,649.5 C 255.833,650.167 255.833,650.167 254.5,649.5 Z"/></g>
<g><path style="opacity:1" fill="#000000" d="M 595.5,813.5 C 597.167,812.5 598.5,811.167 599.5,809.5C 603.5,806.5 607.5,803.5 611.5,800.5C 630.617,791.078 651.617,784.244 674.5,780C 703.08,775.678 731.746,772.011 760.5,769C 776.31,766.987 792.643,763.32 809.5,758C 817.779,754.527 825.779,750.527 833.5,746C 836.039,743.63 838.372,741.13 840.5,738.5C 844.093,735.41 845.759,731.41 845.5,726.5C 846.238,718.801 843.238,712.634 836.5,708C 831.547,705.256 826.713,703.09 822,701.5C 817.318,700.706 812.818,699.372 808.5,697.5C 815.625,684.862 818.292,671.529 816.5,657.5C 816.784,655.585 816.451,653.919 815.5,652.5C 815.62,651.414 816.287,650.747 817.5,650.5C 845.838,656.401 868.672,670.734 886,693.5C 900.097,719.681 895.93,742.515 873.5,762C 854.89,773.985 834.557,781.651 812.5,785C 796.935,787.603 781.268,789.269 765.5,790C 734.414,790.198 703.414,791.865 672.5,795C 649.155,798.002 626.488,803.668 604.5,812C 600.921,813.706 597.421,815.539 594,817.5C 593.7,815.934 594.2,814.601 595.5,813.5 Z"/></g>
<g><path style="opacity:1" fill="#000000" d="M 815.5,652.5 C 815.631,653.239 815.464,653.906 815,654.5C 814.308,653.563 814.475,652.897 815.5,652.5 Z"/></g>
<g><path style="opacity:1" fill="#000000" d="M 816.5,657.5 C 816.44,658.043 816.107,658.376 815.5,658.5C 814.417,657.635 814.251,656.635 815,655.5C 815.278,656.416 815.778,657.082 816.5,657.5 Z"/></g>
<g><path style="opacity:1" fill="#000000" d="M 386.5,657.5 C 387.833,658.167 387.833,658.167 386.5,657.5 Z"/></g>
<g><path style="opacity:1" fill="#000000" d="M 846.5,658.5 C 847.833,659.167 847.833,659.167 846.5,658.5 Z"/></g>
<g><path style="opacity:1" fill="#000000" d="M 815.5,661.5 C 816.525,661.897 816.692,662.563 816,663.5C 815.536,662.906 815.369,662.239 815.5,661.5 Z"/></g>
<g><path style="opacity:1" fill="#000000" d="M 254.5,663.5 C 255.525,663.897 255.692,664.563 255,665.5C 254.536,664.906 254.369,664.239 254.5,663.5 Z"/></g>
<g><path style="opacity:1" fill="#000000" d="M 389.5,663.5 C 390.833,664.167 390.833,664.167 389.5,663.5 Z"/></g>
<g><path style="opacity:1" fill="#000000" d="M 391.5,666.5 C 390.833,665.167 390.833,665.167 391.5,666.5 Z"/></g>
<g><path style="opacity:1" fill="#000000" d="M 815.5,665.5 C 816.525,665.897 816.692,666.563 816,667.5C 815.536,666.906 815.369,666.239 815.5,665.5 Z"/></g>
<g><path style="opacity:1" fill="#000000" d="M 391.5,666.5 C 392.833,667.167 392.833,667.167 391.5,666.5 Z"/></g>
<g><path style="opacity:1" fill="#000000" d="M 815.5,669.5 C 816.833,670.167 816.833,670.167 815.5,669.5 Z"/></g>
<g><path style="opacity:1" fill="#000000" d="M 254.5,671.5 C 255.525,671.897 255.692,672.563 255,673.5C 254.536,672.906 254.369,672.239 254.5,671.5 Z"/></g>
<g><path style="opacity:1" fill="#000000" d="M 255.5,677.5 C 256.525,677.897 256.692,678.563 256,679.5C 255.536,678.906 255.369,678.239 255.5,677.5 Z"/></g>
<g><path style="opacity:1" fill="#000000" d="M 256.5,684.5 C 257.833,685.167 257.833,685.167 256.5,684.5 Z"/></g>
<g><path style="opacity:1" fill="#000000" d="M 811.5,685.5 C 812.833,686.167 812.833,686.167 811.5,685.5 Z"/></g>
<g><path style="opacity:1" fill="#000000" d="M 257.5,688.5 C 258.833,689.167 258.833,689.167 257.5,688.5 Z"/></g>
<g><path style="opacity:1" fill="#000000" d="M 259.5,691.5 C 259.631,692.239 259.464,692.906 259,693.5C 258.308,692.563 258.475,691.897 259.5,691.5 Z"/></g>
<g><path style="opacity:1" fill="#000000" d="M 812.5,700.5 C 813.833,701.167 813.833,701.167 812.5,700.5 Z"/></g>
<g><path style="opacity:1" fill="#000000" d="M 803.5,701.5 C 804.833,702.167 804.833,702.167 803.5,701.5 Z"/></g>
<g><path style="opacity:1" fill="#000000" d="M 816.5,701.5 C 817.833,702.167 817.833,702.167 816.5,701.5 Z"/></g>
<g><path style="opacity:1" fill="#000000" d="M 818.5,701.5 C 819.833,702.167 819.833,702.167 818.5,701.5 Z"/></g>
<g><path style="opacity:1" fill="#050605" d="M 891.5,701.5 C 892.833,702.167 892.833,702.167 891.5,701.5 Z"/></g>
<g><path style="opacity:1" fill="#010104" d="M 894.5,711.5 C 895.573,712.251 895.74,713.251 895,714.5C 894.517,713.552 894.351,712.552 894.5,711.5 Z"/></g>
<g><path style="opacity:1" fill="#0b0c0b" d="M 136.5,714.5 C 137.833,715.167 137.833,715.167 136.5,714.5 Z"/></g>
<g><path style="opacity:1" fill="#000000" d="M 265.5,714.5 C 266.833,715.167 266.833,715.167 265.5,714.5 Z"/></g>
<g><path style="opacity:1" fill="#000000" d="M 267.5,718.5 C 268.833,719.167 268.833,719.167 267.5,718.5 Z"/></g>
<g><path style="opacity:1" fill="#000000" d="M 845.5,726.5 C 844.475,726.103 844.308,725.437 845,724.5C 845.464,725.094 845.631,725.761 845.5,726.5 Z"/></g>
<g><path style="opacity:1" fill="#0b0c0b" d="M 143.5,727.5 C 144.833,728.167 144.833,728.167 143.5,727.5 Z"/></g>
<g><path style="opacity:1" fill="#000000" d="M 272.5,727.5 C 273.833,728.167 273.833,728.167 272.5,727.5 Z"/></g>
<g><path style="opacity:1" fill="#000000" d="M 842.5,732.5 C 843.833,733.167 843.833,733.167 842.5,732.5 Z"/></g>
<g><path style="opacity:1" fill="#000000" d="M 278.5,737.5 C 279.833,738.167 279.833,738.167 278.5,737.5 Z"/></g>
<g><path style="opacity:1" fill="#000000" d="M 840.5,738.5 C 839.833,737.167 839.833,737.167 840.5,738.5 Z"/></g>
<g><path style="opacity:1" fill="#000000" d="M 739.5,749.5 C 740.833,750.167 740.833,750.167 739.5,749.5 Z"/></g>
<g><path style="opacity:1" fill="#000000" d="M 818.5,751.5 C 819.833,752.167 819.833,752.167 818.5,751.5 Z"/></g>
<g><path style="opacity:1" fill="#000000" d="M 720.5,756.5 C 721.833,757.167 721.833,757.167 720.5,756.5 Z"/></g>
<g><path style="opacity:1" fill="#000000" d="M 796.5,760.5 C 796.897,759.475 797.563,759.308 798.5,760C 797.906,760.464 797.239,760.631 796.5,760.5 Z"/></g>
<g><path style="opacity:1" fill="#000000" d="M 698.5,762.5 C 699.833,763.167 699.833,763.167 698.5,762.5 Z"/></g>
<g><path style="opacity:1" fill="#000000" d="M 684.5,766.5 C 685.833,767.167 685.833,767.167 684.5,766.5 Z"/></g>
<g><path style="opacity:1" fill="#000000" d="M 729.5,767.5 C 730.833,768.167 730.833,768.167 729.5,767.5 Z"/></g>
<g><path style="opacity:1" fill="#000000" d="M 748.5,768.5 C 749.833,769.167 749.833,769.167 748.5,768.5 Z"/></g>
<g><path style="opacity:1" fill="#000000" d="M 750.5,769.5 C 750.897,768.475 751.563,768.308 752.5,769C 751.906,769.464 751.239,769.631 750.5,769.5 Z"/></g>
<g><path style="opacity:1" fill="#000000" d="M 737.5,769.5 C 738.833,770.167 738.833,770.167 737.5,769.5 Z"/></g>
<g><path style="opacity:1" fill="#000000" d="M 739.5,769.5 C 740.833,770.167 740.833,770.167 739.5,769.5 Z"/></g>
<g><path style="opacity:1" fill="#000000" d="M 662.5,771.5 C 663.833,772.167 663.833,772.167 662.5,771.5 Z"/></g>
<g><path style="opacity:1" fill="#000000" d="M 683.5,775.5 C 684.525,775.897 684.692,776.563 684,777.5C 683.536,776.906 683.369,776.239 683.5,775.5 Z"/></g>
<g><path style="opacity:1" fill="#000000" d="M 687.5,776.5 C 688.251,775.427 689.251,775.26 690.5,776C 689.552,776.483 688.552,776.649 687.5,776.5 Z"/></g>
<g><path style="opacity:1" fill="#000000" d="M 677.5,777.5 C 678.833,778.167 678.833,778.167 677.5,777.5 Z"/></g>
<g><path style="opacity:1" fill="#000000" d="M 226.5,778.5 C 227.833,779.167 227.833,779.167 226.5,778.5 Z"/></g>
<g><path style="opacity:1" fill="#000000" d="M 626.5,781.5 C 627.833,782.167 627.833,782.167 626.5,781.5 Z"/></g>
<g><path style="opacity:1" fill="#000000" d="M 621.5,782.5 C 622.239,782.369 622.906,782.536 623.5,783C 622.563,783.692 621.897,783.525 621.5,782.5 Z"/></g>
<g><path style="opacity:1" fill="#000000" d="M 829.5,782.5 C 830.833,783.167 830.833,783.167 829.5,782.5 Z"/></g>
<g><path style="opacity:1" fill="#000000" d="M 643.5,783.5 C 644.833,784.167 644.833,784.167 643.5,783.5 Z"/></g>
<g><path style="opacity:1" fill="#000000" d="M 648.5,783.5 C 649.833,784.167 649.833,784.167 648.5,783.5 Z"/></g>
<g><path style="opacity:1" fill="#000000" d="M 648.5,784.5 C 647.833,785.167 647.833,785.167 648.5,784.5 Z"/></g>
<g><path style="opacity:1" fill="#000000" d="M 804.5,787.5 C 805.833,788.167 805.833,788.167 804.5,787.5 Z"/></g>
<g><path style="opacity:1" fill="#000000" d="M 276.5,789.5 C 277.833,790.167 277.833,790.167 276.5,789.5 Z"/></g>
<g><path style="opacity:1" fill="#000000" d="M 786.5,790.5 C 786.897,789.475 787.563,789.308 788.5,790C 787.906,790.464 787.239,790.631 786.5,790.5 Z"/></g>
<g><path style="opacity:1" fill="#000000" d="M 623.5,792.5 C 624.833,793.167 624.833,793.167 623.5,792.5 Z"/></g>
<g><path style="opacity:1" fill="#000000" d="M 327.5,793.5 C 328.833,794.167 328.833,794.167 327.5,793.5 Z"/></g>
<g><path style="opacity:1" fill="#000000" d="M 353.5,794.5 C 354.833,795.167 354.833,795.167 353.5,794.5 Z"/></g>
<g><path style="opacity:1" fill="#000000" d="M 686.5,794.5 C 687.833,795.167 687.833,795.167 686.5,794.5 Z"/></g>
<g><path style="opacity:1" fill="#000000" d="M 566.5,797.5 C 567.833,798.167 567.833,798.167 566.5,797.5 Z"/></g>
<g><path style="opacity:1" fill="#000000" d="M 365.5,798.5 C 366.833,799.167 366.833,799.167 365.5,798.5 Z"/></g>
<g><path style="opacity:1" fill="#000000" d="M 563.5,799.5 C 563.897,798.475 564.563,798.308 565.5,799C 564.906,799.464 564.239,799.631 563.5,799.5 Z"/></g>
<g><path style="opacity:1" fill="#000000" d="M 656.5,798.5 C 657.833,799.167 657.833,799.167 656.5,798.5 Z"/></g>
<g><path style="opacity:1" fill="#000000" d="M 611.5,800.5 C 610.833,799.167 610.833,799.167 611.5,800.5 Z"/></g>
<g><path style="opacity:1" fill="#000000" d="M 601.5,801.5 C 602.833,802.167 602.833,802.167 601.5,801.5 Z"/></g>
<g><path style="opacity:1" fill="#000000" d="M 523.5,806.5 C 524.833,807.167 524.833,807.167 523.5,806.5 Z"/></g>
<g><path style="opacity:1" fill="#000000" d="M 622.5,806.5 C 623.833,807.167 623.833,807.167 622.5,806.5 Z"/></g>
<g><path style="opacity:1" fill="#000000" d="M 599.5,809.5 C 598.833,808.167 598.833,808.167 599.5,809.5 Z"/></g>
<g><path style="opacity:1" fill="#000000" d="M 411.5,809.5 C 412.833,810.167 412.833,810.167 411.5,809.5 Z"/></g>
<g><path style="opacity:1" fill="#000000" d="M 414.5,809.5 C 415.833,810.167 415.833,810.167 414.5,809.5 Z"/></g>
<g><path style="opacity:1" fill="#000000" d="M 420.5,810.5 C 421.833,811.167 421.833,811.167 420.5,810.5 Z"/></g>
<g><path style="opacity:1" fill="#000000" d="M 470.5,811.5 C 471.833,812.167 471.833,812.167 470.5,811.5 Z"/></g>
<g><path style="opacity:1" fill="#000000" d="M 473.5,811.5 C 474.833,812.167 474.833,812.167 473.5,811.5 Z"/></g>
<g><path style="opacity:1" fill="#000000" d="M 595.5,813.5 C 594.833,812.167 594.833,812.167 595.5,813.5 Z"/></g>
<g><path style="opacity:1" fill="#000000" d="M 603.5,813.5 C 604.833,814.167 604.833,814.167 603.5,813.5 Z"/></g>
<g><path style="opacity:1" fill="#000000" d="M 591.5,816.5 C 592.833,817.167 592.833,817.167 591.5,816.5 Z"/></g>
<g><path style="opacity:1" fill="#242524" d="M 307.5,933.5 C 308.833,934.167 308.833,934.167 307.5,933.5 Z"/></g>
</svg>
