<?xml version="1.0" encoding="UTF-8"?>
<!DOCTYPE svg PUBLIC "-//W3C//DTD SVG 1.1//EN" "http://www.w3.org/Graphics/SVG/1.1/DTD/svg11.dtd">
<svg xmlns="http://www.w3.org/2000/svg" version="1.1" width="1024px" height="1024px" style="shape-rendering:geometricPrecision; text-rendering:geometricPrecision; image-rendering:optimizeQuality; fill-rule:evenodd; clip-rule:evenodd" xmlns:xlink="http://www.w3.org/1999/xlink">
<g><path style="opacity:1" fill="#636469" d="M 259.5,141.5 C 260.833,142.167 260.833,142.167 259.5,141.5 Z"/></g>
<g><path style="opacity:1" fill="#5c5d5c" d="M 883.5,349.5 C 884.833,350.167 884.833,350.167 883.5,349.5 Z"/></g>
<g><path style="opacity:1" fill="#000000" d="M 822.5,472.5 C 823.438,474.756 823.438,477.09 822.5,479.5C 826.215,479.68 829.882,479.346 833.5,478.5C 836.597,479.519 837.263,481.519 835.5,484.5C 840.126,485.011 844.793,485.178 849.5,485C 850.333,487.081 850.333,489.248 849.5,491.5C 855.326,491.196 860.993,491.196 866.5,491.5C 866.414,493.677 865.747,495.677 864.5,497.5C 868.825,498.368 873.159,498.535 877.5,498C 879.527,499.396 879.86,501.062 878.5,503C 881.76,503.784 884.927,503.617 888,502.5C 890.761,503.499 892.094,505.499 892,508.5C 895,507.833 898,507.167 901,506.5C 902,508.5 903,510.5 904,512.5C 906.193,512.717 908.527,512.384 911,511.5C 913.638,512.917 915.472,515.084 916.5,518C 918.035,518.496 919.535,518.33 921,517.5C 922.667,518.167 924.333,518.833 926,519.5C 933.006,525.507 940.173,531.341 947.5,537C 952.782,542.405 957.949,547.905 963,553.5C 974.428,574.21 969.595,589.71 948.5,600C 941.839,603.166 934.839,604.999 927.5,605.5C 924.918,605.975 922.918,605.308 921.5,603.5C 929.048,599.453 935.548,594.12 941,587.5C 943.678,579.881 941.178,574.714 933.5,572C 923.03,568.572 912.363,565.906 901.5,564C 828.802,555.261 758.302,537.761 690,511.5C 689.5,511.667 689,511.833 688.5,512C 699.928,521.014 707.761,532.514 712,546.5C 715.628,558.858 711.128,566.024 698.5,568C 683.471,568.973 668.471,570.14 653.5,571.5C 653.714,569.856 653.38,568.356 652.5,567C 653.624,566.751 654.624,566.251 655.5,565.5C 655,565.167 654.5,564.833 654,564.5C 650.779,565.528 647.612,566.694 644.5,568C 642.741,568.798 641.074,568.631 639.5,567.5C 643.933,560.493 649.266,556.16 655.5,554.5C 653.129,552.608 650.629,552.275 648,553.5C 647.5,553 647,552.5 646.5,552C 648.888,550.139 651.554,548.806 654.5,548C 660.117,546.948 665.784,546.282 671.5,546C 652.459,537.65 636.126,525.65 622.5,510C 613.966,509.836 605.466,510.336 597,511.5C 582.367,510.481 567.867,508.481 553.5,505.5C 553.328,507.492 553.995,509.158 555.5,510.5C 553.781,518.603 551.281,527.27 548,536.5C 540.336,550.497 530.169,562.33 517.5,572C 508.561,573.545 499.561,574.545 490.5,575C 484.192,576.437 478.025,578.27 472,580.5C 471.08,577.692 471.913,575.525 474.5,574C 465.852,572.183 457.352,573.016 449,576.5C 447.233,573.134 448.066,570.301 451.5,568C 446.805,568.932 442.639,571.099 439,574.5C 438.308,573.975 437.808,573.308 437.5,572.5C 442.795,563.049 450.795,557.216 461.5,555C 458.5,554.667 455.5,554.333 452.5,554C 451.289,553.107 451.289,552.274 452.5,551.5C 462.047,546.119 472.047,544.785 482.5,547.5C 486.972,546.191 490.805,543.858 494,540.5C 494.086,530.166 494.919,519.833 496.5,509.5C 488.588,511.083 480.588,512.083 472.5,512.5C 458.77,511.584 445.103,510.418 431.5,509C 433.255,511.93 434.422,515.097 435,518.5C 436.384,527.464 436.717,536.464 436,545.5C 434.604,550.228 431.438,552.728 426.5,553C 419.833,553.333 413.167,553.667 406.5,554C 402.004,555.888 397.337,557.055 392.5,557.5C 392.227,555.549 392.893,554.049 394.5,553C 387.504,552.428 380.671,553.261 374,555.5C 372.72,555.387 371.887,554.72 371.5,553.5C 372.484,551.52 373.817,549.853 375.5,548.5C 370.743,547.893 366.076,547.893 361.5,548.5C 368.899,537.633 379.232,533.466 392.5,536C 394.635,535.241 395.968,533.741 396.5,531.5C 394.282,525.395 391.782,519.395 389,513.5C 377.144,508.936 365.311,504.269 353.5,499.5C 348.325,509.185 342.158,518.185 335,526.5C 324.552,538.291 312.385,547.791 298.5,555C 297.333,556.167 296.167,557.333 295,558.5C 294.699,563.78 292.365,567.78 288,570.5C 287.333,569.167 286.667,567.833 286,566.5C 284.386,569.237 282.219,571.403 279.5,573C 272.615,573.437 265.782,572.937 259,571.5C 252.558,572.758 246.225,574.425 240,576.5C 239.5,576.167 239,575.833 238.5,575.5C 239.309,573.929 239.643,572.262 239.5,570.5C 233.949,570.527 228.616,571.194 223.5,572.5C 221.223,572.137 220.556,571.137 221.5,569.5C 221,568.5 220.5,567.5 220,566.5C 217.75,567.708 215.583,569.041 213.5,570.5C 212.692,570.192 212.025,569.692 211.5,569C 214.118,564.049 217.784,560.049 222.5,557C 228.793,555.977 235.126,555.311 241.5,555C 249.749,550.956 257.249,545.789 264,539.5C 271.279,528.554 278.946,517.888 287,507.5C 290.201,503.964 293.701,500.797 297.5,498C 294.349,497.667 291.016,498.334 287.5,500C 274.361,509.398 259.694,514.565 243.5,515.5C 227.416,513.683 211.416,511.349 195.5,508.5C 176.469,509.621 157.469,511.121 138.5,513C 128.793,513.786 119.126,513.453 109.5,512C 99.0074,508.845 90.8407,502.678 85,493.5C 83.993,488.889 84.6597,484.555 87,480.5C 90.0298,476.305 93.5298,472.639 97.5,469.5C 100.988,467.045 104.654,466.879 108.5,469C 121.82,469.564 134.154,466.23 145.5,459C 152.68,453.909 159.68,448.576 166.5,443C 168.9,438.203 171.567,433.536 174.5,429C 180.524,425.587 186.858,424.587 193.5,426C 199.274,422.778 205.274,420.112 211.5,418C 215.217,414.615 219.217,411.615 223.5,409C 229.757,407.813 235.757,406.813 241.5,406C 243.041,404.629 244.375,403.129 245.5,401.5C 250,399.298 254.667,398.465 259.5,399C 265.431,393.189 272.431,390.522 280.5,391C 283.191,387.904 286.358,385.404 290,383.5C 291.982,383.99 293.649,384.99 295,386.5C 295.717,385.956 296.217,385.289 296.5,384.5C 298.959,381.711 301.959,379.711 305.5,378.5C 307.642,380.207 309.975,381.041 312.5,381C 314.833,378.667 317.167,376.333 319.5,374C 322.588,373.153 325.421,373.653 328,375.5C 331.556,372.389 335.556,370.056 340,368.5C 341.667,369.5 343.333,370.5 345,371.5C 347.489,369.681 349.989,367.848 352.5,366C 353.5,365.833 354.5,365.667 355.5,365.5C 357.981,365.813 360.147,366.813 362,368.5C 366.343,366.15 370.677,363.817 375,361.5C 376.747,362.33 378.413,363.33 380,364.5C 384.098,363.024 388.098,361.358 392,359.5C 393.973,360.64 395.807,361.973 397.5,363.5C 401.396,361.635 405.23,359.635 409,357.5C 411.335,358.691 413.502,360.024 415.5,361.5C 418.523,359.322 421.856,357.655 425.5,356.5C 427.889,358.059 430.389,359.393 433,360.5C 436.649,358.866 440.316,357.199 444,355.5C 446.344,357.181 448.677,358.848 451,360.5C 455.886,357.866 461.053,356.7 466.5,357C 467.304,358.771 468.471,360.271 470,361.5C 474.866,359.047 479.699,357.381 484.5,356.5C 485.845,357.347 486.845,358.513 487.5,360C 488.5,360.167 489.5,360.333 490.5,360.5C 494.352,358.831 498.352,358.331 502.5,359C 503.21,361.544 504.876,362.711 507.5,362.5C 511.223,361.703 514.89,360.703 518.5,359.5C 519.5,360.833 520.5,362.167 521.5,363.5C 526.139,364.172 530.806,364.338 535.5,364C 537.864,365.012 539.198,366.345 539.5,368C 542.827,368.535 545.994,368.035 549,366.5C 551.124,367.622 552.957,369.122 554.5,371C 557.894,371.752 561.227,371.585 564.5,370.5C 566.756,371.421 567.756,373.088 567.5,375.5C 571.368,375.57 574.868,375.237 578,374.5C 580.72,375.223 582.887,376.723 584.5,379C 590.818,378.097 595.818,380.097 599.5,385C 602.877,385.369 606.21,385.369 609.5,385C 611.635,385.759 612.968,387.259 613.5,389.5C 617.939,390.139 622.272,391.139 626.5,392.5C 628.273,397.972 631.44,398.972 636,395.5C 637.067,396.191 638.234,396.691 639.5,397C 640.289,399.365 641.456,401.532 643,403.5C 646.409,402.378 649.909,402.211 653.5,403C 655.562,404.532 656.896,406.532 657.5,409C 662.087,409.799 666.587,409.632 671,408.5C 672.548,411.206 673.714,414.04 674.5,417C 679.222,417.155 683.722,416.988 688,416.5C 690.348,419.314 692.348,422.314 694,425.5C 698.748,424.365 703.581,424.198 708.5,425C 710.942,427.693 712.275,430.527 712.5,433.5C 717.041,432.016 721.708,431.349 726.5,431.5C 726.5,434.167 726.5,436.833 726.5,439.5C 731.846,438.467 737.18,438.467 742.5,439.5C 742.833,440.167 743.167,440.833 743.5,441.5C 742.05,442.85 741.383,444.516 741.5,446.5C 746.391,446.254 751.224,445.587 756,444.5C 760.37,446.856 760.537,449.689 756.5,453C 761.951,453.183 767.617,453.183 773.5,453C 775.636,455.098 775.636,457.432 773.5,460C 779.162,459.927 784.829,459.927 790.5,460C 790.833,461 791.167,462 791.5,463C 790.235,464.337 789.735,465.837 790,467.5C 794.583,467.798 799.249,467.132 804,465.5C 805.107,465.585 806.107,465.919 807,466.5C 807.687,468.568 807.52,470.568 806.5,472.5C 811.792,473.177 817.126,473.177 822.5,472.5 Z"/></g>
<g><path style="opacity:1" fill="#050605" d="M 384.5,360.5 C 385.833,361.167 385.833,361.167 384.5,360.5 Z"/></g>
<g><path style="opacity:1" fill="#050605" d="M 522.5,362.5 C 523.833,363.167 523.833,363.167 522.5,362.5 Z"/></g>
<g><path style="opacity:1" fill="#05060c" d="M 336.5,367.5 C 337.833,368.167 337.833,368.167 336.5,367.5 Z"/></g>
<g><path style="opacity:1" fill="#050605" d="M 296.5,384.5 C 295.833,383.167 295.833,383.167 296.5,384.5 Z"/></g>
<g><path style="opacity:1" fill="#000000" d="M 601.5,383.5 C 602.833,384.167 602.833,384.167 601.5,383.5 Z"/></g>
<g><path style="opacity:1" fill="#050605" d="M 245.5,401.5 C 244.833,400.167 244.833,400.167 245.5,401.5 Z"/></g>
<g><path style="opacity:1" fill="#050605" d="M 666.5,407.5 C 667.833,408.167 667.833,408.167 666.5,407.5 Z"/></g>
<g><path style="opacity:1" fill="#050605" d="M 190.5,424.5 C 191.833,425.167 191.833,425.167 190.5,424.5 Z"/></g>
<g><path style="opacity:1" fill="#0b0c05" d="M 786.5,456.5 C 787.833,457.167 787.833,457.167 786.5,456.5 Z"/></g>
<g><path style="opacity:1" fill="#05060c" d="M 784.5,457.5 C 785.833,458.167 785.833,458.167 784.5,457.5 Z"/></g>
<g><path style="opacity:1" fill="#050605" d="M 789.5,457.5 C 790.833,458.167 790.833,458.167 789.5,457.5 Z"/></g>
<g><path style="opacity:1" fill="#050605" d="M 777.5,458.5 C 778.833,459.167 778.833,459.167 777.5,458.5 Z"/></g>
<g><path style="opacity:1" fill="#050605" d="M 804.5,464.5 C 804.897,463.475 805.563,463.308 806.5,464C 805.906,464.464 805.239,464.631 804.5,464.5 Z"/></g>
<g><path style="opacity:1" fill="#050605" d="M 796.5,464.5 C 797.833,465.167 797.833,465.167 796.5,464.5 Z"/></g>
<g><path style="opacity:1" fill="#111211" d="M 97.5,469.5 C 96.8333,468.167 96.8333,468.167 97.5,469.5 Z"/></g>
<g><path style="opacity:1" fill="#000006" d="M 822.5,471.5 C 823.833,472.167 823.833,472.167 822.5,471.5 Z"/></g>
<g><path style="opacity:1" fill="#050006" d="M 838.5,482.5 C 839.833,483.167 839.833,483.167 838.5,482.5 Z"/></g>
<g><path style="opacity:1" fill="#050605" d="M 856.5,487.5 C 857.833,488.167 857.833,488.167 856.5,487.5 Z"/></g>
<g><path style="opacity:1" fill="#000000" d="M 354.5,501.5 C 355.833,502.167 355.833,502.167 354.5,501.5 Z"/></g>
<g><path style="opacity:1" fill="#050600" d="M 195.5,509.5 C 196.833,510.167 196.833,510.167 195.5,509.5 Z"/></g>
<g><path style="opacity:1" fill="#0b0c0b" d="M 126.5,514.5 C 127.833,515.167 127.833,515.167 126.5,514.5 Z"/></g>
<g><path style="opacity:1" fill="#0b0c0b" d="M 129.5,514.5 C 130.833,515.167 130.833,515.167 129.5,514.5 Z"/></g>
<g><path style="opacity:1" fill="#050605" d="M 219.5,518.5 C 220.833,519.167 220.833,519.167 219.5,518.5 Z"/></g>
<g><path style="opacity:1" fill="#000000" d="M 492.5,520.5 C 493.833,521.167 493.833,521.167 492.5,520.5 Z"/></g>
<g><path style="opacity:1" fill="#0b060b" d="M 368.5,551.5 C 369.833,552.167 369.833,552.167 368.5,551.5 Z"/></g>
<g><path style="opacity:1" fill="#0b0c0b" d="M 223.5,572.5 C 224.833,573.167 224.833,573.167 223.5,572.5 Z"/></g>
<g><path style="opacity:1" fill="#0b0c0b" d="M 654.5,572.5 C 655.833,573.167 655.833,573.167 654.5,572.5 Z"/></g>
<g><path style="opacity:1" fill="#111010" d="M 921.5,603.5 C 922.918,605.308 924.918,605.975 927.5,605.5C 924.822,606.909 922.156,606.743 919.5,605C 920.044,604.283 920.711,603.783 921.5,603.5 Z"/></g>
<g><path style="opacity:1" fill="#636463" d="M 579.5,813.5 C 580.833,814.167 580.833,814.167 579.5,813.5 Z"/></g>
<g><path style="opacity:1" fill="#636463" d="M 739.5,813.5 C 740.833,814.167 740.833,814.167 739.5,813.5 Z"/></g>
<g><path style="opacity:1" fill="#636463" d="M 683.5,821.5 C 684.833,822.167 684.833,822.167 683.5,821.5 Z"/></g>
<g><path style="opacity:1" fill="#63645c" d="M 107.5,901.5 C 108.833,902.167 108.833,902.167 107.5,901.5 Z"/></g>
<g><path style="opacity:1" fill="#636463" d="M 307.5,933.5 C 308.833,934.167 308.833,934.167 307.5,933.5 Z"/></g>
<g><path style="opacity:1" fill="#636463" d="M 643.5,957.5 C 644.833,958.167 644.833,958.167 643.5,957.5 Z"/></g>
<g><path style="opacity:1" fill="#5c5d5c" d="M 819.5,973.5 C 820.833,974.167 820.833,974.167 819.5,973.5 Z"/></g>
</svg>
