<?xml version="1.0" encoding="UTF-8"?>
<!DOCTYPE svg PUBLIC "-//W3C//DTD SVG 1.1//EN" "http://www.w3.org/Graphics/SVG/1.1/DTD/svg11.dtd">
<svg xmlns="http://www.w3.org/2000/svg" version="1.1" width="1024px" height="1024px" style="shape-rendering:geometricPrecision; text-rendering:geometricPrecision; image-rendering:optimizeQuality; fill-rule:evenodd; clip-rule:evenodd" xmlns:xlink="http://www.w3.org/1999/xlink">
<g><path style="opacity:1" fill="#111218" d="M 521.5,175.5 C 522.833,176.167 522.833,176.167 521.5,175.5 Z"/></g>
<g><path style="opacity:1" fill="#000000" d="M 602.5,201.5 C 602.962,203.757 603.962,205.757 605.5,207.5C 605,207.833 604.5,208.167 604,208.5C 594.551,205.784 586.384,207.784 579.5,214.5C 575.652,217.869 573.652,222.202 573.5,227.5C 585.977,266.447 576.644,298.947 545.5,325C 535.207,333.141 524.541,340.641 513.5,347.5C 508.29,349.51 505.79,353.176 506,358.5C 506.383,359.056 506.883,359.389 507.5,359.5C 510.668,365.262 515.668,368.262 522.5,368.5C 523.772,368.43 524.938,368.097 526,367.5C 529.778,369.073 533.611,370.573 537.5,372C 539.378,373.543 540.878,375.376 542,377.5C 542.333,376.833 542.667,376.167 543,375.5C 542.637,377.716 542.804,379.882 543.5,382C 543.37,383.059 542.87,383.892 542,384.5C 541.5,382.667 540.333,381.5 538.5,381C 535.874,380.005 533.207,379.672 530.5,380C 536.764,383.038 539.431,387.872 538.5,394.5C 531.147,388.384 522.814,386.551 513.5,389C 514.167,389.333 514.833,389.667 515.5,390C 514.827,392.859 513.993,395.692 513,398.5C 511.726,394.894 509.393,392.227 506,390.5C 505.667,392.5 505.333,394.5 505,396.5C 504.632,397.91 503.799,398.91 502.5,399.5C 501.304,399.154 501.304,398.654 502.5,398C 493.675,393.46 485.008,393.627 476.5,398.5C 474.156,398.506 472.822,399.673 472.5,402C 476.645,420.303 486.979,433.803 503.5,442.5C 507.693,445.253 512.36,446.92 517.5,447.5C 515.152,448.952 512.486,449.618 509.5,449.5C 503.35,448.782 497.35,447.449 491.5,445.5C 476.047,435.995 465.881,422.329 461,404.5C 461.206,417.661 464.373,429.994 470.5,441.5C 478.544,457.535 491.21,468.202 508.5,473.5C 506.393,474.468 504.059,474.802 501.5,474.5C 475.213,470.717 459.38,455.717 454,429.5C 453.636,442.513 456.136,454.846 461.5,466.5C 465.183,478.335 472.183,487.835 482.5,495C 473.13,493.896 465.296,489.729 459,482.5C 449.837,469.346 444.837,454.679 444,438.5C 440.999,476.65 454.833,506.817 485.5,529C 499.298,537.688 513.965,540.188 529.5,536.5C 533.272,536.116 536.272,534.45 538.5,531.5C 544.481,527.07 546.648,521.07 545,513.5C 543.056,506.724 538.556,503.058 531.5,502.5C 526.601,502.977 522.268,504.477 518.5,507C 526.13,496.62 535.463,494.62 546.5,501C 558.288,512.096 559.455,524.263 550,537.5C 536.415,550.913 520.248,555.413 501.5,551C 496.898,549.52 492.231,548.354 487.5,547.5C 467.793,538.796 452.46,525.129 441.5,506.5C 439.148,501.09 436.815,495.756 434.5,490.5C 429.624,473.159 427.791,455.493 429,437.5C 429.129,431.199 429.796,424.866 431,418.5C 416.692,481.241 433.192,534.407 480.5,578C 526.82,617.77 580.487,634.437 641.5,628C 647.213,626.594 652.88,625.094 658.5,623.5C 659.167,623.5 659.5,623.833 659.5,624.5C 655.673,626.246 652.007,628.246 648.5,630.5C 615.751,641.937 582.751,642.437 549.5,632C 531.565,626.371 514.565,619.038 498.5,610C 534.201,639.924 575.367,657.09 622,661.5C 629.171,660.8 636.337,660.133 643.5,659.5C 644.492,659.328 645.158,659.662 645.5,660.5C 629.419,666.609 612.753,668.443 595.5,666C 554.298,658.563 517.964,641.23 486.5,614C 468.706,598.82 453.372,581.653 440.5,562.5C 425.184,537.599 415.518,510.599 411.5,481.5C 411.39,471.278 411.557,460.944 412,450.5C 403.284,503.276 416.45,550.61 451.5,592.5C 468.752,615.421 489.752,634.087 514.5,648.5C 519.016,651.927 524.016,654.593 529.5,656.5C 535.704,660.128 542.371,662.795 549.5,664.5C 577.173,675.032 605.007,676.032 633,667.5C 633.47,668.577 633.303,669.577 632.5,670.5C 630.181,670.992 628.181,671.992 626.5,673.5C 567.336,689.168 514.336,677.334 467.5,638C 466.833,637.333 466.167,637.333 465.5,638C 494.574,671.367 529.24,697.2 569.5,715.5C 595.149,730.265 622.815,736.432 652.5,734C 662.417,733.043 670.583,728.876 677,721.5C 681.349,707.882 676.349,700.215 662,698.5C 657.664,698.7 653.83,700.033 650.5,702.5C 645.062,708.096 643.896,707.429 647,700.5C 661.157,687.032 675.157,687.365 689,701.5C 698.114,715.715 697.28,729.382 686.5,742.5C 671.716,755.43 654.382,761.43 634.5,760.5C 607.027,759.298 581.027,752.465 556.5,740C 541.4,731.374 526.733,722.207 512.5,712.5C 522.385,722.558 530.552,733.892 537,746.5C 542.202,763.929 536.369,775.762 519.5,782C 506.8,784.065 497.3,779.565 491,768.5C 490.346,769.696 489.846,769.696 489.5,768.5C 490.242,767.713 491.075,767.047 492,766.5C 498.425,772.648 505.925,774.481 514.5,772C 516.624,770.878 518.457,769.378 520,767.5C 520.667,763.833 520.667,760.167 520,756.5C 516.246,750.742 511.746,745.575 506.5,741C 492.375,730.041 478.708,718.541 465.5,706.5C 439.546,679.549 419.213,648.882 404.5,614.5C 397.656,596.129 392.322,577.296 388.5,558C 388.15,556.743 387.483,556.409 386.5,557C 393.742,626.323 424.408,682.823 478.5,726.5C 474.251,725.374 470.251,723.707 466.5,721.5C 465.035,720.263 463.368,719.263 461.5,718.5C 439.879,704.355 421.212,687.021 405.5,666.5C 405.167,665.167 404.833,665.167 404.5,666.5C 404.374,663.576 403.041,660.909 400.5,658.5C 383.58,630.571 373.747,600.238 371,567.5C 369.171,541.589 370.838,515.922 376,490.5C 378.706,478.672 381.873,467.005 385.5,455.5C 386.338,455.158 386.672,454.492 386.5,453.5C 390.07,446.134 393.07,438.467 395.5,430.5C 392.073,435.016 389.407,440.016 387.5,445.5C 364.735,487.898 354.235,533.232 356,581.5C 357.342,604.438 364.008,625.438 376,644.5C 362.877,630.932 353.877,614.932 349,596.5C 343.688,575.418 342.354,554.084 345,532.5C 347.048,518.646 349.881,504.98 353.5,491.5C 365.74,449.346 386.073,411.679 414.5,378.5C 421.138,373.155 427.138,367.822 432.5,362.5C 440.35,357.41 448.016,352.077 455.5,346.5C 459.173,345 462.506,343 465.5,340.5C 467.426,339.758 469.259,338.758 471,337.5C 471.617,336.551 471.451,335.718 470.5,335C 471.744,334.544 472.577,335.044 473,336.5C 475.167,335.512 477,334.179 478.5,332.5C 487.69,328.411 496.023,323.078 503.5,316.5C 495.166,320.667 486.833,324.833 478.5,329C 477.748,329.671 477.414,330.504 477.5,331.5C 440.281,348.15 408.114,372.15 381,403.5C 384.64,390.875 389.973,378.875 397,367.5C 412.406,347.024 427.072,326.024 441,304.5C 454.614,286.149 470.447,270.149 488.5,256.5C 499.359,250.811 508.192,242.811 515,232.5C 516.196,227.079 517.696,221.746 519.5,216.5C 519.167,216.167 518.833,215.833 518.5,215.5C 516.144,218.022 513.977,220.688 512,223.5C 512.524,216.954 515.357,211.454 520.5,207C 519.5,206.333 518.5,206.333 517.5,207C 513.916,209.041 510.416,211.208 507,213.5C 506.983,209.147 508.483,205.314 511.5,202C 516.286,198.274 521.619,195.607 527.5,194C 524.717,191.766 522.051,191.6 519.5,193.5C 516.891,192.77 514.224,192.27 511.5,192C 518.208,185.764 526.208,183.097 535.5,184C 530.675,182.105 525.675,181.272 520.5,181.5C 520.5,180.833 520.5,180.167 520.5,179.5C 523.197,178.994 525.364,177.661 527,175.5C 527.388,176.428 528.055,177.095 529,177.5C 531.727,176.937 534.393,176.27 537,175.5C 544.287,178.374 551.787,180.874 559.5,183C 564.846,185.003 569.513,188.003 573.5,192C 584.225,192.257 593.891,195.424 602.5,201.5 Z M 530.5,282.5 C 530.25,284.674 529.25,286.341 527.5,287.5C 526.833,287.5 526.5,287.167 526.5,286.5C 527.5,284.833 528.833,283.5 530.5,282.5 Z M 526.5,286.5 C 526.5,287.167 526.833,287.5 527.5,287.5C 527.573,289.027 526.906,290.027 525.5,290.5C 524.508,290.672 523.842,290.338 523.5,289.5C 524.167,288.167 525.167,287.167 526.5,286.5 Z M 523.5,289.5 C 523.842,290.338 524.508,290.672 525.5,290.5C 519.499,297.353 512.166,302.52 503.5,306C 497.833,308.167 492.167,310.333 486.5,312.5C 485.833,312.167 485.167,311.833 484.5,311.5C 484.891,312.718 484.224,313.552 482.5,314C 476.47,316.286 470.47,318.453 464.5,320.5C 474.541,313.479 485.541,307.979 497.5,304C 506.646,299.929 515.313,295.096 523.5,289.5 Z M 506.5,314.5 C 506.027,315.906 505.027,316.573 503.5,316.5C 503.973,315.094 504.973,314.427 506.5,314.5 Z M 503.5,316.5 C 496.023,323.078 487.69,328.411 478.5,332.5C 477.833,332.5 477.5,332.167 477.5,331.5C 477.414,330.504 477.748,329.671 478.5,329C 486.833,324.833 495.166,320.667 503.5,316.5 Z M 464.5,320.5 C 461.021,322.403 457.354,324.07 453.5,325.5C 456.349,323.15 459.515,321.15 463,319.5C 463.383,320.056 463.883,320.389 464.5,320.5 Z M 471.5,359.5 C 471.573,361.027 470.906,362.027 469.5,362.5C 469.427,360.973 470.094,359.973 471.5,359.5 Z M 493.5,360.5 C 496.954,367.452 502.288,372.619 509.5,376C 507.433,376.536 505.599,376.036 504,374.5C 503.692,375.308 503.192,375.975 502.5,376.5C 497.348,374.936 493.348,371.936 490.5,367.5C 490.537,365.053 491.537,362.72 493.5,360.5 Z M 469.5,362.5 C 468.618,366.593 466.951,370.26 464.5,373.5C 464.908,369.142 466.574,365.476 469.5,362.5 Z M 450.5,364.5 C 450.539,365.756 450.039,366.756 449,367.5C 448.415,366.002 448.915,365.002 450.5,364.5 Z M 445.5,371.5 C 445.611,368.484 446.611,367.651 448.5,369C 447.627,370.045 446.627,370.878 445.5,371.5 Z M 445.5,371.5 C 445.539,372.756 445.039,373.756 444,374.5C 443.415,373.002 443.915,372.002 445.5,371.5 Z M 481.5,372.5 C 483.266,374.771 485.266,376.937 487.5,379C 483.935,378.726 480.435,379.56 477,381.5C 477.913,378.341 479.413,375.341 481.5,372.5 Z M 397.5,426.5 C 397.461,425.244 397.961,424.244 399,423.5C 399.585,424.998 399.085,425.998 397.5,426.5 Z M 397.5,426.5 C 397.771,428.38 397.104,429.713 395.5,430.5C 395.66,428.847 396.326,427.514 397.5,426.5 Z M 386.5,545.5 C 387.244,548.36 387.911,551.36 388.5,554.5C 388.167,554.833 387.833,555.167 387.5,555.5C 386.513,552.232 386.18,548.898 386.5,545.5 Z M 510.5,710.5 C 511.833,710.5 512.5,711.167 512.5,712.5C 511.5,712.167 510.833,711.5 510.5,710.5 Z"/></g>
<g><path style="opacity:1" fill="#181211" d="M 520.5,179.5 C 519.833,178.167 519.833,178.167 520.5,179.5 Z"/></g>
<g><path style="opacity:1" fill="#111211" d="M 520.5,181.5 C 519.833,182.167 519.833,182.167 520.5,181.5 Z"/></g>
<g><path style="opacity:1" fill="#0e0e0e" d="M 519.5,184.5 C 519.897,183.475 520.563,183.308 521.5,184C 520.906,184.464 520.239,184.631 519.5,184.5 Z"/></g>
<g><path style="opacity:1" fill="#0b0c0b" d="M 584.5,191.5 C 585.833,192.167 585.833,192.167 584.5,191.5 Z"/></g>
<g><path style="opacity:1" fill="#0b0c0b" d="M 588.5,192.5 C 589.833,193.167 589.833,193.167 588.5,192.5 Z"/></g>
<g><path style="opacity:1" fill="#111211" d="M 602.5,200.5 C 603.833,201.167 603.833,201.167 602.5,200.5 Z"/></g>
<g><path style="opacity:1" fill="#11120b" d="M 503.5,207.5 C 504.833,208.167 504.833,208.167 503.5,207.5 Z"/></g>
<g><path style="opacity:1" fill="#0b0c0b" d="M 514.5,209.5 C 515.833,210.167 515.833,210.167 514.5,209.5 Z"/></g>
<g><path style="opacity:1" fill="#111211" d="M 504.5,211.5 C 505.833,212.167 505.833,212.167 504.5,211.5 Z"/></g>
<g><path style="opacity:1" fill="#0b060b" d="M 590.5,212.5 C 591.833,213.167 591.833,213.167 590.5,212.5 Z"/></g>
<g><path style="opacity:1" fill="#0b0c0b" d="M 508.5,214.5 C 509.833,215.167 509.833,215.167 508.5,214.5 Z"/></g>
<g><path style="opacity:1" fill="#050605" d="M 579.5,214.5 C 580.833,215.167 580.833,215.167 579.5,214.5 Z"/></g>
<g><path style="opacity:1" fill="#0b0c0b" d="M 579.5,253.5 C 580.833,254.167 580.833,254.167 579.5,253.5 Z"/></g>
<g><path style="opacity:1" fill="#050605" d="M 488.5,256.5 C 487.833,255.167 487.833,255.167 488.5,256.5 Z"/></g>
<g><path style="opacity:1" fill="#0b060b" d="M 579.5,258.5 C 580.833,259.167 580.833,259.167 579.5,258.5 Z"/></g>
<g><path style="opacity:1" fill="#0b0c0b" d="M 579.5,269.5 C 580.833,270.167 580.833,270.167 579.5,269.5 Z"/></g>
<g><path style="opacity:1" fill="#0b0c0b" d="M 444.5,296.5 C 445.833,297.167 445.833,297.167 444.5,296.5 Z"/></g>
<g><path style="opacity:1" fill="#050605" d="M 465.5,340.5 C 464.833,339.167 464.833,339.167 465.5,340.5 Z"/></g>
<g><path style="opacity:1" fill="#050605" d="M 455.5,346.5 C 454.833,345.167 454.833,345.167 455.5,346.5 Z"/></g>
<g><path style="opacity:1" fill="#050605" d="M 513.5,347.5 C 514.833,348.167 514.833,348.167 513.5,347.5 Z"/></g>
<g><path style="opacity:1" fill="#111211" d="M 399.5,352.5 C 400.833,353.167 400.833,353.167 399.5,352.5 Z"/></g>
<g><path style="opacity:1" fill="#0b0c0b" d="M 404.5,352.5 C 405.833,353.167 405.833,353.167 404.5,352.5 Z"/></g>
<g><path style="opacity:1" fill="#050605" d="M 441.5,353.5 C 442.833,354.167 442.833,354.167 441.5,353.5 Z"/></g>
<g><path style="opacity:1" fill="#050605" d="M 441.5,354.5 C 440.833,355.167 440.833,355.167 441.5,354.5 Z"/></g>
<g><path style="opacity:1" fill="#05060c" d="M 507.5,358.5 C 508.833,359.167 508.833,359.167 507.5,358.5 Z"/></g>
<g><path style="opacity:1" fill="#050605" d="M 432.5,362.5 C 431.833,361.167 431.833,361.167 432.5,362.5 Z"/></g>
<g><path style="opacity:1" fill="#050605" d="M 414.5,378.5 C 413.833,377.167 413.833,377.167 414.5,378.5 Z"/></g>
<g><path style="opacity:1" fill="#0b0c0b" d="M 524.5,389.5 C 525.833,390.167 525.833,390.167 524.5,389.5 Z"/></g>
<g><path style="opacity:1" fill="#050605" d="M 476.5,398.5 C 477.239,398.369 477.906,398.536 478.5,399C 477.563,399.692 476.897,399.525 476.5,398.5 Z"/></g>
<g><path style="opacity:1" fill="#050605" d="M 463.5,417.5 C 464.833,418.167 464.833,418.167 463.5,417.5 Z"/></g>
<g><path style="opacity:1" fill="#050c05" d="M 464.5,419.5 C 465.833,420.167 465.833,420.167 464.5,419.5 Z"/></g>
<g><path style="opacity:1" fill="#050605" d="M 470.5,441.5 C 470.369,440.761 470.536,440.094 471,439.5C 471.692,440.437 471.525,441.103 470.5,441.5 Z"/></g>
<g><path style="opacity:1" fill="#111211" d="M 503.5,441.5 C 504.833,442.167 504.833,442.167 503.5,441.5 Z"/></g>
<g><path style="opacity:1" fill="#111211" d="M 506.5,442.5 C 507.833,443.167 507.833,443.167 506.5,442.5 Z"/></g>
<g><path style="opacity:1" fill="#050c0b" d="M 426.5,444.5 C 427.833,445.167 427.833,445.167 426.5,444.5 Z"/></g>
<g><path style="opacity:1" fill="#0b0c0b" d="M 491.5,445.5 C 490.833,446.167 490.833,446.167 491.5,445.5 Z"/></g>
<g><path style="opacity:1" fill="#08080b" d="M 387.5,445.5 C 388.525,445.897 388.692,446.563 388,447.5C 387.536,446.906 387.369,446.239 387.5,445.5 Z"/></g>
<g><path style="opacity:1" fill="#181918" d="M 517.5,446.5 C 518.833,447.167 518.833,447.167 517.5,446.5 Z"/></g>
<g><path style="opacity:1" fill="#0b1211" d="M 367.5,448.5 C 368.833,449.167 368.833,449.167 367.5,448.5 Z"/></g>
<g><path style="opacity:1" fill="#050c05" d="M 386.5,448.5 C 387.833,449.167 387.833,449.167 386.5,448.5 Z"/></g>
<g><path style="opacity:1" fill="#0b0c08" d="M 426.5,448.5 C 427.525,448.897 427.692,449.563 427,450.5C 426.536,449.906 426.369,449.239 426.5,448.5 Z"/></g>
<g><path style="opacity:1" fill="#0b0605" d="M 426.5,451.5 C 427.833,452.167 427.833,452.167 426.5,451.5 Z"/></g>
<g><path style="opacity:1" fill="#0b0c0b" d="M 386.5,453.5 C 385.833,452.167 385.833,452.167 386.5,453.5 Z"/></g>
<g><path style="opacity:1" fill="#05060c" d="M 385.5,455.5 C 384.833,454.167 384.833,454.167 385.5,455.5 Z"/></g>
<g><path style="opacity:1" fill="#0b0c0b" d="M 426.5,456.5 C 427.833,457.167 427.833,457.167 426.5,456.5 Z"/></g>
<g><path style="opacity:1" fill="#0b0c0b" d="M 490.5,463.5 C 491.833,464.167 491.833,464.167 490.5,463.5 Z"/></g>
<g><path style="opacity:1" fill="#050605" d="M 447.5,465.5 C 448.833,466.167 448.833,466.167 447.5,465.5 Z"/></g>
<g><path style="opacity:1" fill="#050605" d="M 461.5,465.5 C 462.833,466.167 462.833,466.167 461.5,465.5 Z"/></g>
<g><path style="opacity:1" fill="#0b0c0b" d="M 427.5,467.5 C 428.833,468.167 428.833,468.167 427.5,467.5 Z"/></g>
<g><path style="opacity:1" fill="#0b0c0b" d="M 475.5,469.5 C 476.833,470.167 476.833,470.167 475.5,469.5 Z"/></g>
<g><path style="opacity:1" fill="#131313" d="M 501.5,474.5 C 504.059,474.802 506.393,474.468 508.5,473.5C 509.933,472.535 511.6,472.702 513.5,474C 509.437,475.714 505.437,475.88 501.5,474.5 Z"/></g>
<g><path style="opacity:1" fill="#11120b" d="M 498.5,475.5 C 499.833,476.167 499.833,476.167 498.5,475.5 Z"/></g>
<g><path style="opacity:1" fill="#111211" d="M 504.5,477.5 C 504.897,476.475 505.563,476.308 506.5,477C 505.906,477.464 505.239,477.631 504.5,477.5 Z"/></g>
<g><path style="opacity:1" fill="#050c0b" d="M 411.5,481.5 C 410.833,480.167 410.833,480.167 411.5,481.5 Z"/></g>
<g><path style="opacity:1" fill="#0b0c05" d="M 411.5,489.5 C 410.833,488.167 410.833,488.167 411.5,489.5 Z"/></g>
<g><path style="opacity:1" fill="#05060c" d="M 411.5,489.5 C 412.833,490.167 412.833,490.167 411.5,489.5 Z"/></g>
<g><path style="opacity:1" fill="#111211" d="M 353.5,491.5 C 352.833,490.167 352.833,490.167 353.5,491.5 Z"/></g>
<g><path style="opacity:1" fill="#050605" d="M 434.5,490.5 C 433.833,491.167 433.833,491.167 434.5,490.5 Z"/></g>
<g><path style="opacity:1" fill="#0b0605" d="M 411.5,491.5 C 412.833,492.167 412.833,492.167 411.5,491.5 Z"/></g>
<g><path style="opacity:1" fill="#111911" d="M 522.5,496.5 C 523.833,497.167 523.833,497.167 522.5,496.5 Z"/></g>
<g><path style="opacity:1" fill="#0b0c0b" d="M 372.5,497.5 C 373.833,498.167 373.833,498.167 372.5,497.5 Z"/></g>
<g><path style="opacity:1" fill="#050605" d="M 437.5,502.5 C 438.833,503.167 438.833,503.167 437.5,502.5 Z"/></g>
<g><path style="opacity:1" fill="#050605" d="M 441.5,506.5 C 440.833,507.167 440.833,507.167 441.5,506.5 Z"/></g>
<g><path style="opacity:1" fill="#050605" d="M 414.5,516.5 C 415.833,517.167 415.833,517.167 414.5,516.5 Z"/></g>
<g><path style="opacity:1" fill="#050605" d="M 438.5,517.5 C 439.833,518.167 439.833,518.167 438.5,517.5 Z"/></g>
<g><path style="opacity:1" fill="#111211" d="M 543.5,517.5 C 544.833,518.167 544.833,518.167 543.5,517.5 Z"/></g>
<g><path style="opacity:1" fill="#050605" d="M 419.5,521.5 C 420.525,521.897 420.692,522.563 420,523.5C 419.536,522.906 419.369,522.239 419.5,521.5 Z"/></g>
<g><path style="opacity:1" fill="#181211" d="M 343.5,528.5 C 344.833,529.167 344.833,529.167 343.5,528.5 Z"/></g>
<g><path style="opacity:1" fill="#0b0c0b" d="M 368.5,530.5 C 369.833,531.167 369.833,531.167 368.5,530.5 Z"/></g>
<g><path style="opacity:1" fill="#0b0c0b" d="M 492.5,530.5 C 493.833,531.167 493.833,531.167 492.5,530.5 Z"/></g>
<g><path style="opacity:1" fill="#110c0b" d="M 538.5,531.5 C 537.833,530.167 537.833,530.167 538.5,531.5 Z"/></g>
<g><path style="opacity:1" fill="#05060c" d="M 368.5,535.5 C 369.833,536.167 369.833,536.167 368.5,535.5 Z"/></g>
<g><path style="opacity:1" fill="#0b0c11" d="M 529.5,536.5 C 528.833,535.167 528.833,535.167 529.5,536.5 Z"/></g>
<g><path style="opacity:1" fill="#050605" d="M 425.5,537.5 C 426.525,537.897 426.692,538.563 426,539.5C 425.536,538.906 425.369,538.239 425.5,537.5 Z"/></g>
<g><path style="opacity:1" fill="#0b0c0b" d="M 368.5,538.5 C 369.525,538.897 369.692,539.563 369,540.5C 368.536,539.906 368.369,539.239 368.5,538.5 Z"/></g>
<g><path style="opacity:1" fill="#0b0c0b" d="M 487.5,547.5 C 486.833,548.167 486.833,548.167 487.5,547.5 Z"/></g>
<g><path style="opacity:1" fill="#050605" d="M 479.5,549.5 C 480.833,550.167 480.833,550.167 479.5,549.5 Z"/></g>
<g><path style="opacity:1" fill="#050605" d="M 440.5,562.5 C 439.833,563.167 439.833,563.167 440.5,562.5 Z"/></g>
<g><path style="opacity:1" fill="#0b0c0b" d="M 369.5,569.5 C 370.833,570.167 370.833,570.167 369.5,569.5 Z"/></g>
<g><path style="opacity:1" fill="#0b0c0b" d="M 369.5,571.5 C 370.833,572.167 370.833,572.167 369.5,571.5 Z"/></g>
<g><path style="opacity:1" fill="#0b0c0b" d="M 369.5,573.5 C 370.833,574.167 370.833,574.167 369.5,573.5 Z"/></g>
<g><path style="opacity:1" fill="#0b060b" d="M 368.5,575.5 C 369.833,576.167 369.833,576.167 368.5,575.5 Z"/></g>
<g><path style="opacity:1" fill="#0b060b" d="M 390.5,576.5 C 391.833,577.167 391.833,577.167 390.5,576.5 Z"/></g>
<g><path style="opacity:1" fill="#05060c" d="M 393.5,586.5 C 394.833,587.167 394.833,587.167 393.5,586.5 Z"/></g>
<g><path style="opacity:1" fill="#0b0c0b" d="M 372.5,590.5 C 373.833,591.167 373.833,591.167 372.5,590.5 Z"/></g>
<g><path style="opacity:1" fill="#000605" d="M 451.5,591.5 C 452.833,592.167 452.833,592.167 451.5,591.5 Z"/></g>
<g><path style="opacity:1" fill="#181918" d="M 346.5,593.5 C 347.833,594.167 347.833,594.167 346.5,593.5 Z"/></g>
<g><path style="opacity:1" fill="#181918" d="M 346.5,594.5 C 345.833,595.167 345.833,595.167 346.5,594.5 Z"/></g>
<g><path style="opacity:1" fill="#0b0c0b" d="M 377.5,610.5 C 378.525,610.897 378.692,611.563 378,612.5C 377.536,611.906 377.369,611.239 377.5,610.5 Z"/></g>
<g><path style="opacity:1" fill="#0b0c05" d="M 401.5,610.5 C 402.833,611.167 402.833,611.167 401.5,610.5 Z"/></g>
<g><path style="opacity:1" fill="#050605" d="M 404.5,614.5 C 403.833,615.167 403.833,615.167 404.5,614.5 Z"/></g>
<g><path style="opacity:1" fill="#181918" d="M 351.5,618.5 C 352.833,619.167 352.833,619.167 351.5,618.5 Z"/></g>
<g><path style="opacity:1" fill="#171819" d="M 659.5,624.5 C 659.5,623.833 659.167,623.5 658.5,623.5C 660.25,622.527 661.75,621.193 663,619.5C 663.813,622.539 662.646,624.206 659.5,624.5 Z"/></g>
<g><path style="opacity:1" fill="#0b0c05" d="M 528.5,626.5 C 529.833,627.167 529.833,627.167 528.5,626.5 Z"/></g>
<g><path style="opacity:1" fill="#11120b" d="M 593.5,626.5 C 594.833,627.167 594.833,627.167 593.5,626.5 Z"/></g>
<g><path style="opacity:1" fill="#181918" d="M 359.5,627.5 C 360.833,628.167 360.833,628.167 359.5,627.5 Z"/></g>
<g><path style="opacity:1" fill="#1e1f1e" d="M 648.5,630.5 C 649.833,631.167 649.833,631.167 648.5,630.5 Z"/></g>
<g><path style="opacity:1" fill="#110c11" d="M 385.5,633.5 C 386.833,634.167 386.833,634.167 385.5,633.5 Z"/></g>
<g><path style="opacity:1" fill="#0b0c0b" d="M 537.5,634.5 C 538.833,635.167 538.833,635.167 537.5,634.5 Z"/></g>
<g><path style="opacity:1" fill="#0b0c0b" d="M 567.5,637.5 C 568.833,638.167 568.833,638.167 567.5,637.5 Z"/></g>
<g><path style="opacity:1" fill="#050605" d="M 415.5,640.5 C 416.833,641.167 416.833,641.167 415.5,640.5 Z"/></g>
<g><path style="opacity:1" fill="#111211" d="M 392.5,647.5 C 393.833,648.167 393.833,648.167 392.5,647.5 Z"/></g>
<g><path style="opacity:1" fill="#050605" d="M 414.5,647.5 C 415.833,648.167 415.833,648.167 414.5,647.5 Z"/></g>
<g><path style="opacity:1" fill="#050605" d="M 475.5,647.5 C 476.833,648.167 476.833,648.167 475.5,647.5 Z"/></g>
<g><path style="opacity:1" fill="#000605" d="M 514.5,647.5 C 515.833,648.167 515.833,648.167 514.5,647.5 Z"/></g>
<g><path style="opacity:1" fill="#050605" d="M 566.5,647.5 C 567.833,648.167 567.833,648.167 566.5,647.5 Z"/></g>
<g><path style="opacity:1" fill="#0b0c0b" d="M 420.5,650.5 C 421.833,651.167 421.833,651.167 420.5,650.5 Z"/></g>
<g><path style="opacity:1" fill="#050605" d="M 487.5,654.5 C 488.833,655.167 488.833,655.167 487.5,654.5 Z"/></g>
<g><path style="opacity:1" fill="#050605" d="M 549.5,654.5 C 550.833,655.167 550.833,655.167 549.5,654.5 Z"/></g>
<g><path style="opacity:1" fill="#050605" d="M 529.5,655.5 C 530.833,656.167 530.833,656.167 529.5,655.5 Z"/></g>
<g><path style="opacity:1" fill="#181619" d="M 644.5,657.5 C 644.897,656.475 645.563,656.308 646.5,657C 645.906,657.464 645.239,657.631 644.5,657.5 Z"/></g>
<g><path style="opacity:1" fill="#181918" d="M 640.5,657.5 C 641.833,658.167 641.833,658.167 640.5,657.5 Z"/></g>
<g><path style="opacity:1" fill="#111211" d="M 400.5,658.5 C 399.833,659.167 399.833,659.167 400.5,658.5 Z"/></g>
<g><path style="opacity:1" fill="#111911" d="M 633.5,658.5 C 634.833,659.167 634.833,659.167 633.5,658.5 Z"/></g>
<g><path style="opacity:1" fill="#161517" d="M 644.5,657.5 C 645.609,658.29 646.942,658.79 648.5,659C 647.756,660.039 646.756,660.539 645.5,660.5C 645.158,659.662 644.492,659.328 643.5,659.5C 643.328,658.508 643.662,657.842 644.5,657.5 Z"/></g>
<g><path style="opacity:1" fill="#111211" d="M 401.5,662.5 C 402.833,663.167 402.833,663.167 401.5,662.5 Z"/></g>
<g><path style="opacity:1" fill="#050605" d="M 549.5,664.5 C 549.897,663.475 550.563,663.308 551.5,664C 550.906,664.464 550.239,664.631 549.5,664.5 Z"/></g>
<g><path style="opacity:1" fill="#111211" d="M 404.5,666.5 C 404.833,666.5 405.167,666.5 405.5,666.5C 405.315,667.17 404.981,667.17 404.5,666.5 Z"/></g>
<g><path style="opacity:1" fill="#111211" d="M 632.5,670.5 C 633.833,671.167 633.833,671.167 632.5,670.5 Z"/></g>
<g><path style="opacity:1" fill="#0b0c0b" d="M 592.5,671.5 C 593.833,672.167 593.833,672.167 592.5,671.5 Z"/></g>
<g><path style="opacity:1" fill="#0b0c0b" d="M 597.5,671.5 C 598.833,672.167 598.833,672.167 597.5,671.5 Z"/></g>
<g><path style="opacity:1" fill="#0b0c0b" d="M 600.5,671.5 C 601.833,672.167 601.833,672.167 600.5,671.5 Z"/></g>
<g><path style="opacity:1" fill="#111211" d="M 626.5,673.5 C 627.833,674.167 627.833,674.167 626.5,673.5 Z"/></g>
<g><path style="opacity:1" fill="#0b0605" d="M 530.5,674.5 C 531.833,675.167 531.833,675.167 530.5,674.5 Z"/></g>
<g><path style="opacity:1" fill="#050605" d="M 536.5,676.5 C 537.833,677.167 537.833,677.167 536.5,676.5 Z"/></g>
<g><path style="opacity:1" fill="#0b1211" d="M 650.5,702.5 C 651.833,703.167 651.833,703.167 650.5,702.5 Z"/></g>
<g><path style="opacity:1" fill="#080a0a" d="M 465.5,706.5 C 465.631,707.239 465.464,707.906 465,708.5C 464.308,707.563 464.475,706.897 465.5,706.5 Z"/></g>
<g><path style="opacity:1" fill="#050605" d="M 569.5,714.5 C 570.833,715.167 570.833,715.167 569.5,714.5 Z"/></g>
<g><path style="opacity:1" fill="#111211" d="M 461.5,718.5 C 460.833,719.167 460.833,719.167 461.5,718.5 Z"/></g>
<g><path style="opacity:1" fill="#050605" d="M 580.5,719.5 C 581.833,720.167 581.833,720.167 580.5,719.5 Z"/></g>
<g><path style="opacity:1" fill="#111211" d="M 466.5,721.5 C 465.833,722.167 465.833,722.167 466.5,721.5 Z"/></g>
<g><path style="opacity:1" fill="#050605" d="M 585.5,721.5 C 586.833,722.167 586.833,722.167 585.5,721.5 Z"/></g>
<g><path style="opacity:1" fill="#0b0c0b" d="M 672.5,723.5 C 673.833,724.167 673.833,724.167 672.5,723.5 Z"/></g>
<g><path style="opacity:1" fill="#111211" d="M 478.5,726.5 C 479.833,727.167 479.833,727.167 478.5,726.5 Z"/></g>
<g><path style="opacity:1" fill="#0b0c0b" d="M 664.5,728.5 C 665.833,729.167 665.833,729.167 664.5,728.5 Z"/></g>
<g><path style="opacity:1" fill="#0b0c0b" d="M 657.5,730.5 C 658.833,731.167 658.833,731.167 657.5,730.5 Z"/></g>
<g><path style="opacity:1" fill="#050605" d="M 642.5,732.5 C 643.833,733.167 643.833,733.167 642.5,732.5 Z"/></g>
<g><path style="opacity:1" fill="#0b1211" d="M 686.5,742.5 C 687.833,743.167 687.833,743.167 686.5,742.5 Z"/></g>
<g><path style="opacity:1" fill="#050605" d="M 575.5,749.5 C 576.833,750.167 576.833,750.167 575.5,749.5 Z"/></g>
<g><path style="opacity:1" fill="#0b0c0b" d="M 587.5,753.5 C 588.833,754.167 588.833,754.167 587.5,753.5 Z"/></g>
<g><path style="opacity:1" fill="#111918" d="M 504.5,782.5 C 505.833,783.167 505.833,783.167 504.5,782.5 Z"/></g>
<g><path style="opacity:1" fill="#636463" d="M 307.5,933.5 C 308.833,934.167 308.833,934.167 307.5,933.5 Z"/></g>
</svg>
