<?xml version="1.0" encoding="UTF-8"?>
<!DOCTYPE svg PUBLIC "-//W3C//DTD SVG 1.1//EN" "http://www.w3.org/Graphics/SVG/1.1/DTD/svg11.dtd">
<svg xmlns="http://www.w3.org/2000/svg" version="1.1" width="1024px" height="1024px" style="shape-rendering:geometricPrecision; text-rendering:geometricPrecision; image-rendering:optimizeQuality; fill-rule:evenodd; clip-rule:evenodd" xmlns:xlink="http://www.w3.org/1999/xlink">
<g><path style="opacity:1" fill="#0b0c0b" d="M 445.5,322.5 C 446.833,323.167 446.833,323.167 445.5,322.5 Z"/></g>
<g><path style="opacity:1" fill="#050c0b" d="M 449.5,322.5 C 450.833,323.167 450.833,323.167 449.5,322.5 Z"/></g>
<g><path style="opacity:1" fill="#000000" d="M 739.5,352.5 C 775.964,367.796 805.797,391.463 829,423.5C 847.658,452.8 855.324,484.8 852,519.5C 848.172,535.508 848.672,551.341 853.5,567C 853.257,570.104 851.757,572.27 849,573.5C 844.151,571.913 840.484,568.913 838,564.5C 835.443,560.055 833.443,555.389 832,550.5C 829.387,560.728 825.387,570.395 820,579.5C 819.318,588.44 821.318,596.773 826,604.5C 827.935,610.823 827.935,617.157 826,623.5C 823.609,629.949 820.942,636.282 818,642.5C 818,649.175 818.5,655.842 819.5,662.5C 819.039,669.473 815.373,673.973 808.5,676C 798.694,679.029 788.861,679.195 779,676.5C 773.527,679.009 768.027,679.009 762.5,676.5C 755.175,678.274 748.175,677.441 741.5,674C 737.168,666.625 738.501,660.291 745.5,655C 750.167,652.667 754.833,650.333 759.5,648C 763.754,643.908 766.087,638.908 766.5,633C 765.71,627.793 764.043,622.96 761.5,618.5C 761.773,615.817 760.773,614.317 758.5,614C 755.121,618.59 751.621,623.09 748,627.5C 744.256,635.473 741.589,643.806 740,652.5C 735.958,660.608 729.458,665.441 720.5,667C 710.957,669.425 701.291,670.425 691.5,670C 689.579,669.64 687.912,668.806 686.5,667.5C 683.41,668.731 680.243,669.731 677,670.5C 670.468,669.127 663.968,667.627 657.5,666C 652.721,661.521 652.554,656.688 657,651.5C 661.869,646.157 667.703,642.49 674.5,640.5C 681.587,639.373 687.42,636.04 692,630.5C 696.3,623.008 699.133,615.675 700.5,608.5C 686.219,617.651 670.552,623.151 653.5,625C 600.008,630.031 548.008,623.198 497.5,604.5C 495.963,609.247 494.13,613.913 492,618.5C 489.439,626.654 488.439,634.988 489,643.5C 490.736,650.871 492.569,658.204 494.5,665.5C 494.332,669.178 492.665,672.011 489.5,674C 480.809,678.546 471.809,679.379 462.5,676.5C 459.002,677.967 455.336,678.633 451.5,678.5C 442.537,676.674 433.537,675.841 424.5,676C 415.271,672.644 413.438,666.811 419,658.5C 422.391,654.443 426.391,651.11 431,648.5C 434.271,645.553 436.271,641.887 437,637.5C 437.164,623.486 434.164,610.153 428,597.5C 419.586,614.491 415.586,632.491 416,651.5C 412.765,660.401 406.598,666.234 397.5,669C 391.7,670.052 385.867,670.885 380,671.5C 376.262,671.192 372.762,670.192 369.5,668.5C 369.265,667.903 368.765,667.57 368,667.5C 365.057,668.752 362.057,669.752 359,670.5C 353.012,669.282 347.178,667.449 341.5,665C 339.643,663.818 338.643,662.151 338.5,660C 339.592,655.648 341.592,651.815 344.5,648.5C 350.21,644.868 356.21,641.701 362.5,639C 367.285,634.931 370.119,629.764 371,623.5C 371.739,617.442 371.406,611.442 370,605.5C 364.645,593.795 360.145,581.795 356.5,569.5C 356.977,568.522 357.643,567.689 358.5,567C 349.051,565.964 339.718,564.63 330.5,563C 320.838,569.426 310.171,573.426 298.5,575C 271.605,610.324 238.938,616.657 200.5,594C 162.76,597.101 143.426,579.601 142.5,541.5C 143.202,527.231 147.036,513.897 154,501.5C 158.664,496.383 164.497,493.55 171.5,493C 174.106,492.208 176.106,490.708 177.5,488.5C 186.4,482.438 194.233,475.104 201,466.5C 203.219,462.729 204.885,458.729 206,454.5C 206.151,447.104 206.818,439.771 208,432.5C 210.074,428.923 212.907,426.256 216.5,424.5C 223.546,423.953 228.046,420.286 230,413.5C 232.333,411.167 234.667,408.833 237,406.5C 235.309,401.92 234.143,397.087 233.5,392C 235.541,386.312 239.541,384.312 245.5,386C 248.943,387.618 251.943,389.785 254.5,392.5C 257.241,390.047 260.075,387.714 263,385.5C 263.359,382.456 264.026,382.122 265,384.5C 267.688,382.636 270.188,380.636 272.5,378.5C 278.339,375.415 284.006,372.082 289.5,368.5C 295.202,365.649 300.535,362.982 305.5,360.5C 310.925,357.787 316.259,355.121 321.5,352.5C 351.398,339.925 382.398,331.091 414.5,326C 434.809,323.482 454.975,324.315 475,328.5C 476.226,328.355 477.393,328.022 478.5,327.5C 479.696,327.846 479.696,328.346 478.5,329C 494.367,332.089 510.367,334.089 526.5,335C 557.519,334.986 588.519,334.153 619.5,332.5C 660.808,331.638 700.808,338.305 739.5,352.5 Z"/></g>
<g><path style="opacity:1" fill="#050605" d="M 596.5,331.5 C 597.833,332.167 597.833,332.167 596.5,331.5 Z"/></g>
<g><path style="opacity:1" fill="#0b0605" d="M 603.5,331.5 C 604.833,332.167 604.833,332.167 603.5,331.5 Z"/></g>
<g><path style="opacity:1" fill="#050c05" d="M 641.5,331.5 C 642.833,332.167 642.833,332.167 641.5,331.5 Z"/></g>
<g><path style="opacity:1" fill="#050605" d="M 682.5,336.5 C 682.897,335.475 683.563,335.308 684.5,336C 683.906,336.464 683.239,336.631 682.5,336.5 Z"/></g>
<g><path style="opacity:1" fill="#050605" d="M 359.5,336.5 C 360.833,337.167 360.833,337.167 359.5,336.5 Z"/></g>
<g><path style="opacity:1" fill="#050605" d="M 694.5,337.5 C 695.833,338.167 695.833,338.167 694.5,337.5 Z"/></g>
<g><path style="opacity:1" fill="#050605" d="M 717.5,344.5 C 717.897,343.475 718.563,343.308 719.5,344C 718.906,344.464 718.239,344.631 717.5,344.5 Z"/></g>
<g><path style="opacity:1" fill="#050605" d="M 321.5,352.5 C 320.761,352.631 320.094,352.464 319.5,352C 320.437,351.308 321.103,351.475 321.5,352.5 Z"/></g>
<g><path style="opacity:1" fill="#050605" d="M 739.5,351.5 C 740.833,352.167 740.833,352.167 739.5,351.5 Z"/></g>
<g><path style="opacity:1" fill="#050605" d="M 744.5,353.5 C 745.833,354.167 745.833,354.167 744.5,353.5 Z"/></g>
<g><path style="opacity:1" fill="#050605" d="M 312.5,354.5 C 313.833,355.167 313.833,355.167 312.5,354.5 Z"/></g>
<g><path style="opacity:1" fill="#050605" d="M 289.5,368.5 C 288.833,367.167 288.833,367.167 289.5,368.5 Z"/></g>
<g><path style="opacity:1" fill="#0b0c0b" d="M 271.5,377.5 C 270.833,376.167 270.833,376.167 271.5,377.5 Z"/></g>
<g><path style="opacity:1" fill="#050605" d="M 271.5,377.5 C 272.167,377.5 272.5,377.833 272.5,378.5C 272.167,378.167 271.833,377.833 271.5,377.5 Z"/></g>
<g><path style="opacity:1" fill="#050707" d="M 240.5,384.5 C 241.251,383.427 242.251,383.26 243.5,384C 242.552,384.483 241.552,384.649 240.5,384.5 Z"/></g>
<g><path style="opacity:1" fill="#0b0605" d="M 232.5,399.5 C 233.833,400.167 233.833,400.167 232.5,399.5 Z"/></g>
<g><path style="opacity:1" fill="#050c0b" d="M 233.5,402.5 C 234.833,403.167 234.833,403.167 233.5,402.5 Z"/></g>
<g><path style="opacity:1" fill="#050605" d="M 234.5,405.5 C 235.833,406.167 235.833,406.167 234.5,405.5 Z"/></g>
<g><path style="opacity:1" fill="#000605" d="M 216.5,424.5 C 215.833,423.167 215.833,423.167 216.5,424.5 Z"/></g>
<g><path style="opacity:1" fill="#0b0c0b" d="M 212.5,424.5 C 213.833,425.167 213.833,425.167 212.5,424.5 Z"/></g>
<g><path style="opacity:1" fill="#05060c" d="M 846.5,456.5 C 847.833,457.167 847.833,457.167 846.5,456.5 Z"/></g>
<g><path style="opacity:1" fill="#050605" d="M 177.5,488.5 C 176.833,487.167 176.833,487.167 177.5,488.5 Z"/></g>
<g><path style="opacity:1" fill="#181918" d="M 144.5,564.5 C 145.833,565.167 145.833,565.167 144.5,564.5 Z"/></g>
<g><path style="opacity:1" fill="#050605" d="M 312.5,572.5 C 313.833,573.167 313.833,573.167 312.5,572.5 Z"/></g>
<g><path style="opacity:1" fill="#0b0c0b" d="M 844.5,574.5 C 845.833,575.167 845.833,575.167 844.5,574.5 Z"/></g>
<g><path style="opacity:1" fill="#050605" d="M 360.5,587.5 C 361.833,588.167 361.833,588.167 360.5,587.5 Z"/></g>
<g><path style="opacity:1" fill="#0b0c0b" d="M 189.5,595.5 C 190.833,596.167 190.833,596.167 189.5,595.5 Z"/></g>
<g><path style="opacity:1" fill="#0b0605" d="M 827.5,604.5 C 828.833,605.167 828.833,605.167 827.5,604.5 Z"/></g>
<g><path style="opacity:1" fill="#000605" d="M 432.5,616.5 C 433.833,617.167 433.833,617.167 432.5,616.5 Z"/></g>
<g><path style="opacity:1" fill="#050006" d="M 540.5,618.5 C 541.833,619.167 541.833,619.167 540.5,618.5 Z"/></g>
<g><path style="opacity:1" fill="#000000" d="M 695.5,618.5 C 696.833,619.167 696.833,619.167 695.5,618.5 Z"/></g>
<g><path style="opacity:1" fill="#050605" d="M 761.5,618.5 C 761.631,619.239 761.464,619.906 761,620.5C 760.308,619.563 760.475,618.897 761.5,618.5 Z"/></g>
<g><path style="opacity:1" fill="#050605" d="M 433.5,619.5 C 434.833,620.167 434.833,620.167 433.5,619.5 Z"/></g>
<g><path style="opacity:1" fill="#050605" d="M 763.5,629.5 C 764.833,630.167 764.833,630.167 763.5,629.5 Z"/></g>
<g><path style="opacity:1" fill="#050600" d="M 489.5,639.5 C 490.833,640.167 490.833,640.167 489.5,639.5 Z"/></g>
<g><path style="opacity:1" fill="#020302" d="M 674.5,640.5 C 673.448,640.649 672.448,640.483 671.5,640C 672.749,639.26 673.749,639.427 674.5,640.5 Z"/></g>
<g><path style="opacity:1" fill="#050600" d="M 354.5,640.5 C 355.833,641.167 355.833,641.167 354.5,640.5 Z"/></g>
<g><path style="opacity:1" fill="#000605" d="M 344.5,648.5 C 343.833,647.167 343.833,647.167 344.5,648.5 Z"/></g>
<g><path style="opacity:1" fill="#050605" d="M 741.5,650.5 C 742.833,651.167 742.833,651.167 741.5,650.5 Z"/></g>
<g><path style="opacity:1" fill="#050605" d="M 416.5,652.5 C 417.833,653.167 417.833,653.167 416.5,652.5 Z"/></g>
<g><path style="opacity:1" fill="#0b0c0b" d="M 336.5,660.5 C 337.833,661.167 337.833,661.167 336.5,660.5 Z"/></g>
<g><path style="opacity:1" fill="#050605" d="M 369.5,668.5 C 369.103,669.525 368.437,669.692 367.5,669C 368.094,668.536 368.761,668.369 369.5,668.5 Z"/></g>
<g><path style="opacity:1" fill="#050c0b" d="M 399.5,669.5 C 400.833,670.167 400.833,670.167 399.5,669.5 Z"/></g>
<g><path style="opacity:1" fill="#7c7d7c" d="M 307.5,933.5 C 308.833,934.167 308.833,934.167 307.5,933.5 Z"/></g>
</svg>
