<?xml version="1.0" encoding="UTF-8"?>
<!DOCTYPE svg PUBLIC "-//W3C//DTD SVG 1.1//EN" "http://www.w3.org/Graphics/SVG/1.1/DTD/svg11.dtd">
<svg xmlns="http://www.w3.org/2000/svg" version="1.1" width="1024px" height="1024px" style="shape-rendering:geometricPrecision; text-rendering:geometricPrecision; image-rendering:optimizeQuality; fill-rule:evenodd; clip-rule:evenodd" xmlns:xlink="http://www.w3.org/1999/xlink">
<g><path style="opacity:1" fill="#272727" d="M 257.5,272.5 C 256.5,272.5 255.5,272.5 254.5,272.5C 254.784,274.415 254.451,276.081 253.5,277.5C 253.5,275.5 253.5,273.5 253.5,271.5C 255.099,271.232 256.432,271.566 257.5,272.5 Z"/></g>
<g><path style="opacity:1" fill="#000000" d="M 238.5,282.5 C 241.725,287.411 245.892,288.745 251,286.5C 252.252,283.986 252.752,281.32 252.5,278.5C 253.167,278.5 253.5,278.167 253.5,277.5C 254.451,276.081 254.784,274.415 254.5,272.5C 255.5,272.5 256.5,272.5 257.5,272.5C 263.852,274.923 268.352,279.257 271,285.5C 279.704,283.153 288.037,279.82 296,275.5C 297.059,275.63 297.892,276.13 298.5,277C 296.545,277.953 294.878,279.287 293.5,281C 299.421,279.857 305.421,278.691 311.5,277.5C 313.207,277.728 314.874,278.062 316.5,278.5C 317.058,279.79 318.058,280.623 319.5,281C 318.584,281.278 317.918,281.778 317.5,282.5C 307.294,285.978 308.127,287.978 320,288.5C 325.943,288.129 331.443,286.462 336.5,283.5C 337.492,283.328 338.158,283.662 338.5,284.5C 337.546,289.289 334.879,292.789 330.5,295C 340.028,297.936 347.861,295.436 354,287.5C 355.398,293.568 353.231,298.402 347.5,302C 349.955,303.54 352.621,303.874 355.5,303C 359.11,302.528 362.11,301.028 364.5,298.5C 366.5,297.167 368.167,295.5 369.5,293.5C 370.925,291.969 371.591,292.302 371.5,294.5C 370.63,301.389 366.963,306.222 360.5,309C 362.92,309.687 365.087,309.187 367,307.5C 374.884,308.711 382.717,310.377 390.5,312.5C 393.355,312.278 396.355,312.111 399.5,312C 407.131,308.988 407.464,309.988 400.5,315C 398.913,315.862 397.246,316.529 395.5,317C 386.876,318.131 378.21,318.798 369.5,319C 377.407,321.001 386.407,322.167 396.5,322.5C 401.634,322.662 406.634,321.995 411.5,320.5C 412.594,321.868 412.26,323.035 410.5,324C 402.487,328.337 394.32,329.837 386,328.5C 385.5,329 385,329.5 384.5,330C 394.143,333.325 403.809,336.492 413.5,339.5C 413.918,340.222 414.584,340.722 415.5,341C 412.964,341.186 410.631,341.686 408.5,342.5C 406.473,342.338 404.473,342.505 402.5,343C 414.218,348.603 425.218,347.436 435.5,339.5C 433.669,345.844 429.336,350.344 422.5,353C 428.383,354.39 433.883,353.223 439,349.5C 439.265,351.163 438.765,352.663 437.5,354C 429.719,358.689 421.219,360.856 412,360.5C 409.122,360.146 406.289,359.979 403.5,360C 405.407,361.122 407.407,361.955 409.5,362.5C 413.849,365.067 418.515,367.067 423.5,368.5C 427.5,369.833 431.5,369.833 435.5,368.5C 439.535,367.881 443.035,366.215 446,363.5C 446.309,364.766 446.809,365.933 447.5,367C 444.182,369.961 440.515,372.627 436.5,375C 433.532,375.694 430.532,376.194 427.5,376.5C 423.132,375.769 418.799,375.269 414.5,375C 424.712,380.46 435.212,380.96 446,376.5C 446.5,376.833 447,377.167 447.5,377.5C 444.194,380.817 440.528,383.651 436.5,386C 442.629,387.902 448.629,390.069 454.5,392.5C 456.189,393.304 457.855,394.304 459.5,395.5C 454.059,396.284 448.726,395.617 443.5,393.5C 442.304,393.846 442.304,394.346 443.5,395C 451.293,398.73 458.959,402.73 466.5,407C 479.968,410.9 493.635,411.567 507.5,409C 524.917,405.717 542.25,402.05 559.5,398C 568.155,396.48 576.655,395.646 585,395.5C 604.187,397.284 622.354,402.617 639.5,411.5C 648.001,417.252 656.335,423.252 664.5,429.5C 664.918,430.222 665.584,430.722 666.5,431C 677.885,431.544 688.885,433.877 699.5,438C 714.096,446.269 728.429,454.936 742.5,464C 749.703,468.101 757.036,471.934 764.5,475.5C 764.918,476.222 765.584,476.722 766.5,477C 764.866,477.494 763.199,477.66 761.5,477.5C 757.781,476.53 754.114,475.696 750.5,475C 758.5,481 766.5,487 774.5,493C 786.351,499.905 798.684,503.738 811.5,504.5C 811.291,505.086 810.957,505.586 810.5,506C 807.544,506.989 804.544,507.822 801.5,508.5C 794.798,507.125 788.131,505.958 781.5,505C 784.071,506.454 786.738,507.62 789.5,508.5C 797.056,512.512 805.223,514.179 814,513.5C 822.157,514.827 829.323,512.827 835.5,507.5C 836.408,508.79 836.241,510.123 835,511.5C 830.422,517.362 824.589,521.028 817.5,522.5C 816.167,522.5 814.833,522.5 813.5,522.5C 812.833,522.5 812.167,522.5 811.5,522.5C 810.833,522.5 810.5,522.833 810.5,523.5C 812.438,525.163 814.772,525.829 817.5,525.5C 834.804,524.003 852.137,523.503 869.5,524C 878.28,526.059 886.613,529.226 894.5,533.5C 894.5,534.833 893.833,535.5 892.5,535.5C 882.344,532.846 872.01,533.013 861.5,536C 858.524,536.705 855.858,537.871 853.5,539.5C 852.292,540.234 850.959,540.567 849.5,540.5C 847.897,540.312 846.563,540.812 845.5,542C 851.157,542.499 856.824,542.666 862.5,542.5C 874.742,543.288 884.742,548.288 892.5,557.5C 892.5,558.833 891.833,559.5 890.5,559.5C 876.928,554.714 862.928,553.214 848.5,555C 841.821,555.547 835.155,556.213 828.5,557C 839.596,560.022 850.596,563.189 861.5,566.5C 849.07,570.085 836.403,571.585 823.5,571C 802.847,567.587 784.347,559.421 768,546.5C 767.685,547.908 768.018,549.241 769,550.5C 771,553.167 773,555.833 775,558.5C 778.894,561.74 782.727,564.907 786.5,568C 786.333,568.5 786.167,569 786,569.5C 778.543,567.181 771.377,564.181 764.5,560.5C 765.129,562.997 766.962,564.997 770,566.5C 770.688,567.332 770.521,567.998 769.5,568.5C 751.808,562.407 738.641,551.073 730,534.5C 729.517,535.448 729.351,536.448 729.5,537.5C 729.5,538.833 728.833,539.5 727.5,539.5C 725.5,537.167 723.5,534.833 721.5,532.5C 717.781,525.177 714.947,517.51 713,509.5C 712.774,512.095 712.274,514.595 711.5,517C 712.085,518.302 712.751,519.469 713.5,520.5C 713.565,531.807 717.899,541.307 726.5,549C 726.167,549.5 725.833,550 725.5,550.5C 716.749,547.41 709.749,542.076 704.5,534.5C 701.983,529.786 700.15,524.786 699,519.5C 698.667,507.5 698.333,495.5 698,483.5C 696.577,489.019 694.577,494.353 692,499.5C 691.5,499 691,498.5 690.5,498C 691.389,492.552 691.223,487.052 690,481.5C 689.217,477.879 687.717,474.213 685.5,470.5C 685.013,469.527 684.513,468.527 684,467.5C 683.346,466.304 682.846,466.304 682.5,467.5C 683.097,470.971 683.764,474.305 684.5,477.5C 685.166,491.836 681.333,504.836 673,516.5C 669.24,521.683 665.24,526.683 661,531.5C 650.769,541.069 640.602,550.569 630.5,560C 632.769,569.034 636.269,577.534 641,585.5C 646.667,591.833 652.333,598.167 658,604.5C 662.01,610.278 663.344,616.612 662,623.5C 653.318,650.892 649.318,678.892 650,707.5C 649.208,709.587 648.041,711.421 646.5,713C 643.166,714.331 640.166,716.165 637.5,718.5C 636.41,724.288 634.077,729.454 630.5,734C 624.51,736.854 618.176,738.02 611.5,737.5C 605.681,737.941 600.181,736.941 595,734.5C 592.761,729.168 593.428,724.168 597,719.5C 601.479,715.036 605.979,710.702 610.5,706.5C 616.43,703.738 620.93,699.405 624,693.5C 630.522,676.325 632.522,658.658 630,640.5C 625.008,626.838 616.841,615.504 605.5,606.5C 603.008,603.531 600.508,600.531 598,597.5C 591.925,602.652 587.592,608.986 585,616.5C 583.228,623.534 581.394,630.534 579.5,637.5C 576.732,640.771 573.732,643.938 570.5,647C 547.16,658.342 526.66,673.508 509,692.5C 506.785,697.1 503.952,701.266 500.5,705C 495.167,707 489.833,709 484.5,711C 481.838,715.63 479.172,720.297 476.5,725C 472.807,727.651 468.973,728.818 465,728.5C 456.871,728.041 449.038,726.375 441.5,723.5C 441.217,722.711 440.717,722.044 440,721.5C 439.893,718.869 439.727,716.369 439.5,714C 444.427,709.751 449.427,705.418 454.5,701C 459.554,697.806 464.888,695.139 470.5,693C 474.685,688.431 479.352,684.597 484.5,681.5C 491.285,677.221 497.952,672.721 504.5,668C 507.666,666 510.332,663.5 512.5,660.5C 519.076,655.43 525.243,649.763 531,643.5C 536.164,633.834 541.831,624.5 548,615.5C 556.327,596.874 561.494,577.374 563.5,557C 562.929,552.356 560.929,548.522 557.5,545.5C 532.649,562.892 504.983,571.226 474.5,570.5C 459.73,570.152 445.063,568.985 430.5,567C 409.644,584.435 386.311,597.768 360.5,607C 357.152,610.419 356.652,614.252 359,618.5C 361.451,623.58 364.951,627.747 369.5,631C 376.938,635.053 384.605,638.553 392.5,641.5C 397.238,636.399 402.904,634.899 409.5,637C 419.096,640.702 425.096,647.536 427.5,657.5C 427.444,660.111 426.444,662.278 424.5,664C 418.572,666.643 412.405,668.476 406,669.5C 401.368,668.941 396.868,667.941 392.5,666.5C 387.447,664.74 382.114,664.073 376.5,664.5C 372.813,663.824 369.48,662.324 366.5,660C 362.934,655.009 359.268,650.175 355.5,645.5C 354.295,642.128 351.961,639.962 348.5,639C 349.458,637.853 349.125,636.853 347.5,636C 340.228,631.781 333.395,626.948 327,621.5C 322.333,613.5 322.333,605.5 327,597.5C 338.339,587.328 349.172,576.661 359.5,565.5C 361.085,564.998 361.585,563.998 361,562.5C 359.21,560.709 357.377,560.375 355.5,561.5C 353.664,564.168 351.331,566.334 348.5,568C 340.219,571.486 331.886,574.819 323.5,578C 308.216,591.613 291.549,603.28 273.5,613C 271.627,614.704 269.96,616.537 268.5,618.5C 257.487,632.855 249.321,648.855 244,666.5C 239.145,670.165 234.645,674.165 230.5,678.5C 229.115,679.947 229.448,680.947 231.5,681.5C 232.496,681.414 233.329,681.748 234,682.5C 234.593,702.074 225.093,711.407 205.5,710.5C 200.985,710.68 196.651,710.013 192.5,708.5C 188.7,703.216 188.867,697.882 193,692.5C 199,685.167 205,677.833 211,670.5C 213.914,663.915 216.581,657.249 219,650.5C 225.061,644.039 230.394,637.039 235,629.5C 240.826,618.181 245.826,606.515 250,594.5C 252.463,591.035 255.296,587.869 258.5,585C 262.916,582.588 266.749,579.422 270,575.5C 274.745,565.676 279.745,556.01 285,546.5C 288.251,541.245 292.251,536.578 297,532.5C 298.856,521.132 298.523,509.798 296,498.5C 295.333,492.167 295.333,485.833 296,479.5C 298.475,469.605 300.308,459.605 301.5,449.5C 301.577,444.163 300.577,439.163 298.5,434.5C 296.584,424.252 293.751,414.252 290,404.5C 289.5,403.333 288.667,402.5 287.5,402C 287.156,396.432 285.156,391.265 281.5,386.5C 274.779,390.527 267.779,394.027 260.5,397C 253.066,403.769 245.066,409.769 236.5,415C 229.492,430.824 218.159,434.824 202.5,427C 198.086,422.113 194.586,416.613 192,410.5C 191.661,407.964 191.161,405.464 190.5,403C 199.811,385.873 207.644,368.039 214,349.5C 214.148,343.751 214.814,338.085 216,332.5C 221.581,322.336 227.414,312.336 233.5,302.5C 233.376,301.893 233.043,301.56 232.5,301.5C 225.489,292.808 222.489,282.808 223.5,271.5C 224.552,271.351 225.552,271.517 226.5,272C 230.076,276.082 234.076,279.582 238.5,282.5 Z"/></g>
<g><path style="opacity:1" fill="#1e1f1e" d="M 250.5,272.5 C 251.833,273.167 251.833,273.167 250.5,272.5 Z"/></g>
<g><path style="opacity:1" fill="#181918" d="M 252.5,278.5 C 251.833,277.167 251.833,277.167 252.5,278.5 Z"/></g>
<g><path style="opacity:1" fill="#181918" d="M 238.5,281.5 C 239.833,282.167 239.833,282.167 238.5,281.5 Z"/></g>
<g><path style="opacity:1" fill="#1e1c1b" d="M 316.5,278.5 C 323.146,280.639 323.479,281.972 317.5,282.5C 317.918,281.778 318.584,281.278 319.5,281C 318.058,280.623 317.058,279.79 316.5,278.5 Z"/></g>
<g><path style="opacity:1" fill="#181918" d="M 271.5,282.5 C 272.833,283.167 272.833,283.167 271.5,282.5 Z"/></g>
<g><path style="opacity:1" fill="#23211f" d="M 338.5,284.5 C 338.158,283.662 337.492,283.328 336.5,283.5C 337.875,281.93 339.541,281.097 341.5,281C 340.837,282.518 339.837,283.685 338.5,284.5 Z"/></g>
<g><path style="opacity:1" fill="#272726" d="M 371.5,294.5 C 371.591,292.302 370.925,291.969 369.5,293.5C 369.415,292.005 370.081,291.005 371.5,290.5C 372.782,291.958 372.782,293.292 371.5,294.5 Z"/></g>
<g><path style="opacity:1" fill="#181f1e" d="M 364.5,298.5 C 363.833,297.167 363.833,297.167 364.5,298.5 Z"/></g>
<g><path style="opacity:1" fill="#181918" d="M 359.5,298.5 C 360.833,299.167 360.833,299.167 359.5,298.5 Z"/></g>
<g><path style="opacity:1" fill="#111918" d="M 232.5,301.5 C 231.833,302.167 231.833,302.167 232.5,301.5 Z"/></g>
<g><path style="opacity:1" fill="#111911" d="M 391.5,320.5 C 392.833,321.167 392.833,321.167 391.5,320.5 Z"/></g>
<g><path style="opacity:1" fill="#1e1f1e" d="M 414.5,322.5 C 415.833,323.167 415.833,323.167 414.5,322.5 Z"/></g>
<g><path style="opacity:1" fill="#181f1e" d="M 408.5,326.5 C 409.833,327.167 409.833,327.167 408.5,326.5 Z"/></g>
<g><path style="opacity:1" fill="#181914" d="M 212.5,336.5 C 213.525,336.897 213.692,337.563 213,338.5C 212.536,337.906 212.369,337.239 212.5,336.5 Z"/></g>
<g><path style="opacity:1" fill="#1d1e1d" d="M 413.5,339.5 C 414.552,339.351 415.552,339.517 416.5,340C 417.833,340.667 417.833,341.333 416.5,342C 413.776,343.335 411.11,343.502 408.5,342.5C 410.631,341.686 412.964,341.186 415.5,341C 414.584,340.722 413.918,340.222 413.5,339.5 Z"/></g>
<g><path style="opacity:1" fill="#181918" d="M 212.5,342.5 C 213.833,343.167 213.833,343.167 212.5,342.5 Z"/></g>
<g><path style="opacity:1" fill="#181918" d="M 440.5,359.5 C 441.833,360.167 441.833,360.167 440.5,359.5 Z"/></g>
<g><path style="opacity:1" fill="#111211" d="M 409.5,361.5 C 410.833,362.167 410.833,362.167 409.5,361.5 Z"/></g>
<g><path style="opacity:1" fill="#1e201d" d="M 435.5,368.5 C 431.5,369.833 427.5,369.833 423.5,368.5C 427.81,367.227 431.81,367.227 435.5,368.5 Z"/></g>
<g><path style="opacity:1" fill="#181918" d="M 201.5,375.5 C 202.833,376.167 202.833,376.167 201.5,375.5 Z"/></g>
<g><path style="opacity:1" fill="#181717" d="M 438.5,377.5 C 439.251,376.427 440.251,376.26 441.5,377C 440.552,377.483 439.552,377.649 438.5,377.5 Z"/></g>
<g><path style="opacity:1" fill="#181918" d="M 434.5,377.5 C 435.833,378.167 435.833,378.167 434.5,377.5 Z"/></g>
<g><path style="opacity:1" fill="#111911" d="M 454.5,391.5 C 455.833,392.167 455.833,392.167 454.5,391.5 Z"/></g>
<g><path style="opacity:1" fill="#181918" d="M 591.5,394.5 C 592.833,395.167 592.833,395.167 591.5,394.5 Z"/></g>
<g><path style="opacity:1" fill="#111211" d="M 454.5,397.5 C 455.833,398.167 455.833,398.167 454.5,397.5 Z"/></g>
<g><path style="opacity:1" fill="#181911" d="M 529.5,402.5 C 530.833,403.167 530.833,403.167 529.5,402.5 Z"/></g>
<g><path style="opacity:1" fill="#11120b" d="M 287.5,403.5 C 288.833,404.167 288.833,404.167 287.5,403.5 Z"/></g>
<g><path style="opacity:1" fill="#0b0c0b" d="M 288.5,406.5 C 289.833,407.167 289.833,407.167 288.5,406.5 Z"/></g>
<g><path style="opacity:1" fill="#181211" d="M 639.5,410.5 C 640.833,411.167 640.833,411.167 639.5,410.5 Z"/></g>
<g><path style="opacity:1" fill="#181911" d="M 202.5,428.5 C 203.833,429.167 203.833,429.167 202.5,428.5 Z"/></g>
<g><path style="opacity:1" fill="#111211" d="M 664.5,428.5 C 665.833,429.167 665.833,429.167 664.5,428.5 Z"/></g>
<g><path style="opacity:1" fill="#111211" d="M 296.5,431.5 C 297.833,432.167 297.833,432.167 296.5,431.5 Z"/></g>
<g><path style="opacity:1" fill="#111210" d="M 298.5,434.5 C 298.631,435.239 298.464,435.906 298,436.5C 297.308,435.563 297.475,434.897 298.5,434.5 Z"/></g>
<g><path style="opacity:1" fill="#181918" d="M 747.5,463.5 C 748.833,464.167 748.833,464.167 747.5,463.5 Z"/></g>
<g><path style="opacity:1" fill="#1c1d1c" d="M 685.5,470.5 C 684.532,472.607 684.198,474.941 684.5,477.5C 683.764,474.305 683.097,470.971 682.5,467.5C 682.846,466.304 683.346,466.304 684,467.5C 684.513,468.527 685.013,469.527 685.5,470.5 Z"/></g>
<g><path style="opacity:1" fill="#1d1d1c" d="M 764.5,475.5 C 765.552,475.351 766.552,475.517 767.5,476C 768.833,476.667 768.833,477.333 767.5,478C 765.288,478.789 763.288,478.622 761.5,477.5C 763.199,477.66 764.866,477.494 766.5,477C 765.584,476.722 764.918,476.222 764.5,475.5 Z"/></g>
<g><path style="opacity:1" fill="#111211" d="M 685.5,482.5 C 686.833,483.167 686.833,483.167 685.5,482.5 Z"/></g>
<g><path style="opacity:1" fill="#111210" d="M 688.5,482.5 C 689.573,483.251 689.74,484.251 689,485.5C 688.517,484.552 688.351,483.552 688.5,482.5 Z"/></g>
<g><path style="opacity:1" fill="#141211" d="M 696.5,491.5 C 697.525,491.897 697.692,492.563 697,493.5C 696.536,492.906 696.369,492.239 696.5,491.5 Z"/></g>
<g><path style="opacity:1" fill="#111211" d="M 696.5,494.5 C 697.833,495.167 697.833,495.167 696.5,494.5 Z"/></g>
<g><path style="opacity:1" fill="#111211" d="M 696.5,498.5 C 697.573,499.251 697.74,500.251 697,501.5C 696.517,500.552 696.351,499.552 696.5,498.5 Z"/></g>
<g><path style="opacity:1" fill="#2a252a" d="M 836.5,504.5 C 837.833,505.167 837.833,505.167 836.5,504.5 Z"/></g>
<g><path style="opacity:1" fill="#111211" d="M 696.5,506.5 C 697.833,507.167 697.833,507.167 696.5,506.5 Z"/></g>
<g><path style="opacity:1" fill="#181918" d="M 789.5,508.5 C 789.897,507.475 790.563,507.308 791.5,508C 790.906,508.464 790.239,508.631 789.5,508.5 Z"/></g>
<g><path style="opacity:1" fill="#1e2524" d="M 823.5,511.5 C 824.833,512.167 824.833,512.167 823.5,511.5 Z"/></g>
<g><path style="opacity:1" fill="#111211" d="M 696.5,512.5 C 697.573,513.251 697.74,514.251 697,515.5C 696.517,514.552 696.351,513.552 696.5,512.5 Z"/></g>
<g><path style="opacity:1" fill="#11120b" d="M 296.5,518.5 C 297.833,519.167 297.833,519.167 296.5,518.5 Z"/></g>
<g><path style="opacity:1" fill="#181918" d="M 713.5,519.5 C 714.833,520.167 714.833,520.167 713.5,519.5 Z"/></g>
<g><path style="opacity:1" fill="#181918" d="M 817.5,522.5 C 818.833,523.167 818.833,523.167 817.5,522.5 Z"/></g>
<g><path style="opacity:1" fill="#181918" d="M 821.5,523.5 C 822.833,524.167 822.833,524.167 821.5,523.5 Z"/></g>
<g><path style="opacity:1" fill="#181918" d="M 827.5,523.5 C 828.833,524.167 828.833,524.167 827.5,523.5 Z"/></g>
<g><path style="opacity:1" fill="#1f201e" d="M 811.5,522.5 C 812.167,522.5 812.833,522.5 813.5,522.5C 814.448,523.978 815.781,524.978 817.5,525.5C 814.772,525.829 812.438,525.163 810.5,523.5C 811.167,523.5 811.5,523.167 811.5,522.5 Z"/></g>
<g><path style="opacity:1" fill="#181211" d="M 714.5,526.5 C 715.833,527.167 715.833,527.167 714.5,526.5 Z"/></g>
<g><path style="opacity:1" fill="#313231" d="M 894.5,527.5 C 895.833,528.167 895.833,528.167 894.5,527.5 Z"/></g>
<g><path style="opacity:1" fill="#121414" d="M 721.5,532.5 C 721.5,533.167 721.5,533.833 721.5,534.5C 720.167,533.833 720.167,533.167 721.5,532.5 Z"/></g>
<g><path style="opacity:1" fill="#181918" d="M 704.5,534.5 C 703.833,535.167 703.833,535.167 704.5,534.5 Z"/></g>
<g><path style="opacity:1" fill="#181918" d="M 721.5,534.5 C 722.833,535.167 722.833,535.167 721.5,534.5 Z"/></g>
<g><path style="opacity:1" fill="#302f2e" d="M 894.5,533.5 C 895.627,534.122 896.627,534.955 897.5,536C 895.613,536.78 893.946,536.613 892.5,535.5C 893.833,535.5 894.5,534.833 894.5,533.5 Z"/></g>
<g><path style="opacity:1" fill="#181211" d="M 718.5,536.5 C 719.833,537.167 719.833,537.167 718.5,536.5 Z"/></g>
<g><path style="opacity:1" fill="#181918" d="M 853.5,539.5 C 854.239,539.369 854.906,539.536 855.5,540C 854.563,540.692 853.897,540.525 853.5,539.5 Z"/></g>
<g><path style="opacity:1" fill="#1e1e1b" d="M 849.5,540.5 C 853.833,541.167 858.167,541.833 862.5,542.5C 856.824,542.666 851.157,542.499 845.5,542C 846.563,540.812 847.897,540.312 849.5,540.5 Z"/></g>
<g><path style="opacity:1" fill="#171716" d="M 729.5,537.5 C 730.574,539.279 731.907,540.946 733.5,542.5C 730.719,543.443 728.719,542.443 727.5,539.5C 728.833,539.5 729.5,538.833 729.5,537.5 Z"/></g>
<g><path style="opacity:1" fill="#343332" d="M 892.5,557.5 C 896.485,558.514 896.485,559.514 892.5,560.5C 891.584,560.457 890.917,560.124 890.5,559.5C 891.833,559.5 892.5,558.833 892.5,557.5 Z"/></g>
<g><path style="opacity:1" fill="#1c1d1c" d="M 355.5,561.5 C 357.377,560.375 359.21,560.709 361,562.5C 361.585,563.998 361.085,564.998 359.5,565.5C 359.5,564.5 359.5,563.5 359.5,562.5C 358.041,562.567 356.708,562.234 355.5,561.5 Z"/></g>
<g><path style="opacity:1" fill="#111211" d="M 493.5,570.5 C 494.833,571.167 494.833,571.167 493.5,570.5 Z"/></g>
<g><path style="opacity:1" fill="#181f1e" d="M 827.5,573.5 C 828.833,574.167 828.833,574.167 827.5,573.5 Z"/></g>
<g><path style="opacity:1" fill="#11120b" d="M 556.5,584.5 C 557.833,585.167 557.833,585.167 556.5,584.5 Z"/></g>
<g><path style="opacity:1" fill="#111211" d="M 406.5,588.5 C 407.833,589.167 407.833,589.167 406.5,588.5 Z"/></g>
<g><path style="opacity:1" fill="#0b0c0b" d="M 554.5,591.5 C 555.833,592.167 555.833,592.167 554.5,591.5 Z"/></g>
<g><path style="opacity:1" fill="#110c0b" d="M 605.5,606.5 C 604.833,607.167 604.833,607.167 605.5,606.5 Z"/></g>
<g><path style="opacity:1" fill="#181211" d="M 268.5,618.5 C 269.833,619.167 269.833,619.167 268.5,618.5 Z"/></g>
<g><path style="opacity:1" fill="#111211" d="M 587.5,621.5 C 588.833,622.167 588.833,622.167 587.5,621.5 Z"/></g>
<g><path style="opacity:1" fill="#181211" d="M 399.5,634.5 C 400.833,635.167 400.833,635.167 399.5,634.5 Z"/></g>
<g><path style="opacity:1" fill="#181918" d="M 579.5,637.5 C 580.833,638.167 580.833,638.167 579.5,637.5 Z"/></g>
<g><path style="opacity:1" fill="#181218" d="M 355.5,645.5 C 354.833,646.167 354.833,646.167 355.5,645.5 Z"/></g>
<g><path style="opacity:1" fill="#181918" d="M 428.5,654.5 C 429.833,655.167 429.833,655.167 428.5,654.5 Z"/></g>
<g><path style="opacity:1" fill="#181918" d="M 428.5,656.5 C 429.833,657.167 429.833,657.167 428.5,656.5 Z"/></g>
<g><path style="opacity:1" fill="#181918" d="M 428.5,658.5 C 429.833,659.167 429.833,659.167 428.5,658.5 Z"/></g>
<g><path style="opacity:1" fill="#111211" d="M 512.5,660.5 C 511.833,659.167 511.833,659.167 512.5,660.5 Z"/></g>
<g><path style="opacity:1" fill="#171716" d="M 376.5,664.5 C 382.114,664.073 387.447,664.74 392.5,666.5C 389.383,666.128 386.383,666.128 383.5,666.5C 381.018,665.933 378.684,665.266 376.5,664.5 Z"/></g>
<g><path style="opacity:1" fill="#111211" d="M 628.5,664.5 C 629.833,665.167 629.833,665.167 628.5,664.5 Z"/></g>
<g><path style="opacity:1" fill="#1e1f1e" d="M 399.5,669.5 C 400.833,670.167 400.833,670.167 399.5,669.5 Z"/></g>
<g><path style="opacity:1" fill="#1e1918" d="M 403.5,670.5 C 404.833,671.167 404.833,671.167 403.5,670.5 Z"/></g>
<g><path style="opacity:1" fill="#181918" d="M 495.5,671.5 C 496.833,672.167 496.833,672.167 495.5,671.5 Z"/></g>
<g><path style="opacity:1" fill="#181918" d="M 651.5,677.5 C 652.833,678.167 652.833,678.167 651.5,677.5 Z"/></g>
<g><path style="opacity:1" fill="#27282c" d="M 230.5,678.5 C 230.328,679.492 230.662,680.158 231.5,680.5C 231.5,680.833 231.5,681.167 231.5,681.5C 229.448,680.947 229.115,679.947 230.5,678.5 Z"/></g>
<g><path style="opacity:1" fill="#1e1918" d="M 231.5,679.5 C 232.833,680.167 232.833,680.167 231.5,679.5 Z"/></g>
<g><path style="opacity:1" fill="#111211" d="M 479.5,680.5 C 479.897,679.475 480.563,679.308 481.5,680C 480.906,680.464 480.239,680.631 479.5,680.5 Z"/></g>
<g><path style="opacity:1" fill="#111911" d="M 484.5,681.5 C 483.833,680.167 483.833,680.167 484.5,681.5 Z"/></g>
<g><path style="opacity:1" fill="#111211" d="M 481.5,681.5 C 482.833,682.167 482.833,682.167 481.5,681.5 Z"/></g>
<g><path style="opacity:1" fill="#1e1918" d="M 651.5,704.5 C 652.833,705.167 652.833,705.167 651.5,704.5 Z"/></g>
<g><path style="opacity:1" fill="#181211" d="M 610.5,706.5 C 609.833,705.167 609.833,705.167 610.5,706.5 Z"/></g>
<g><path style="opacity:1" fill="#2a2b2a" d="M 192.5,708.5 C 191.833,709.167 191.833,709.167 192.5,708.5 Z"/></g>
<g><path style="opacity:1" fill="#181918" d="M 485.5,714.5 C 486.833,715.167 486.833,715.167 485.5,714.5 Z"/></g>
<g><path style="opacity:1" fill="#24252a" d="M 441.5,723.5 C 440.833,724.167 440.833,724.167 441.5,723.5 Z"/></g>
<g><path style="opacity:1" fill="#959695" d="M 307.5,933.5 C 308.833,934.167 308.833,934.167 307.5,933.5 Z"/></g>
</svg>
