<?xml version="1.0" encoding="UTF-8"?>
<!DOCTYPE svg PUBLIC "-//W3C//DTD SVG 1.1//EN" "http://www.w3.org/Graphics/SVG/1.1/DTD/svg11.dtd">
<svg xmlns="http://www.w3.org/2000/svg" version="1.1" width="1024px" height="1024px" style="shape-rendering:geometricPrecision; text-rendering:geometricPrecision; image-rendering:optimizeQuality; fill-rule:evenodd; clip-rule:evenodd" xmlns:xlink="http://www.w3.org/1999/xlink">
<g><path style="opacity:1" fill="#0b0c0b" d="M 428.5,327.5 C 429.833,328.167 429.833,328.167 428.5,327.5 Z"/></g>
<g><path style="opacity:1" fill="#0b0c0b" d="M 439.5,327.5 C 440.833,328.167 440.833,328.167 439.5,327.5 Z"/></g>
<g><path style="opacity:1" fill="#0b0c0b" d="M 455.5,327.5 C 456.833,328.167 456.833,328.167 455.5,327.5 Z"/></g>
<g><path style="opacity:1" fill="#0b0605" d="M 476.5,327.5 C 477.833,328.167 477.833,328.167 476.5,327.5 Z"/></g>
<g><path style="opacity:1" fill="#0b0c0b" d="M 401.5,330.5 C 402.833,331.167 402.833,331.167 401.5,330.5 Z"/></g>
<g><path style="opacity:1" fill="#000000" d="M 624.5,360.5 C 656.881,376.53 684.548,398.53 707.5,426.5C 707.917,425.876 708.584,425.543 709.5,425.5C 717.503,426.835 725.169,429.168 732.5,432.5C 732.842,433.338 733.508,433.672 734.5,433.5C 751.21,446.75 763.71,463.416 772,483.5C 783.155,510.142 790.488,537.475 794,565.5C 797.293,563.792 800.793,562.792 804.5,562.5C 807.781,562.58 810.781,561.913 813.5,560.5C 814.675,560.281 815.675,560.614 816.5,561.5C 804.823,568.338 794.823,577.172 786.5,588C 778.321,594.546 768.988,597.046 758.5,595.5C 756.81,594.897 755.31,593.897 754,592.5C 753.086,593.654 752.253,593.487 751.5,592C 752.448,591.517 753.448,591.351 754.5,591.5C 754.336,578.393 752.669,565.393 749.5,552.5C 749.5,551.167 749.5,549.833 749.5,548.5C 748.448,548.649 747.448,548.483 746.5,548C 747.252,547.329 747.586,546.496 747.5,545.5C 748.833,545.167 748.833,544.833 747.5,544.5C 747.322,541.784 746.822,539.117 746,536.5C 743.9,539.345 744.067,542.012 746.5,544.5C 745.686,547.002 745.353,549.502 745.5,552C 753.553,602.553 735.886,641.22 692.5,668C 674.191,678.49 655.191,687.323 635.5,694.5C 558.553,716.15 480.386,722.483 401,713.5C 400.667,713.833 400.333,714.167 400,714.5C 368.842,711.003 337.676,706.003 306.5,699.5C 282.004,692.849 257.337,685.182 232.5,676.5C 230.967,674.755 228.967,673.755 226.5,673.5C 226.158,672.662 225.492,672.328 224.5,672.5C 224.5,671.833 224.5,671.167 224.5,670.5C 228.249,670.751 231.915,671.417 235.5,672.5C 236.919,673.451 238.585,673.784 240.5,673.5C 258.129,676.114 275.796,678.447 293.5,680.5C 295.265,681.461 297.265,681.795 299.5,681.5C 344.955,684.884 390.622,684.717 436.5,681C 448.765,679.971 460.765,678.137 472.5,675.5C 489.91,673.22 506.91,669.553 523.5,664.5C 559.364,655.352 593.031,642.019 624.5,624.5C 628.173,623 631.506,621 634.5,618.5C 636.027,618.573 637.027,617.906 637.5,616.5C 643.348,613.985 648.348,610.318 652.5,605.5C 660.402,600.27 667.402,593.936 673.5,586.5C 675.878,584.122 677.878,581.455 679.5,578.5C 676.833,580.5 674.5,582.833 672.5,585.5C 668.873,587.794 665.539,590.46 662.5,593.5C 661.833,593.5 661.5,593.833 661.5,594.5C 656.929,596.738 652.929,599.738 649.5,603.5C 638.207,610.587 626.874,616.921 615.5,622.5C 615.167,622.167 614.833,621.833 614.5,621.5C 633.23,599.298 640.896,573.631 637.5,544.5C 637.719,543.325 637.386,542.325 636.5,541.5C 634.018,542.067 631.684,542.734 629.5,543.5C 623.224,544.894 617.058,544.561 611,542.5C 611.761,548.929 612.261,555.429 612.5,562C 613.171,569.318 611.504,575.985 607.5,582C 604.624,584.437 601.29,585.77 597.5,586C 590.833,586.667 584.167,586.667 577.5,586C 555.442,580.536 533.442,574.869 511.5,569C 514.873,567.128 518.54,566.295 522.5,566.5C 529.31,567.086 536.31,567.586 543.5,568C 537.632,564.49 531.465,562.99 525,563.5C 523.745,562.789 522.579,561.956 521.5,561C 531.618,558.695 541.451,559.529 551,563.5C 551.688,562.668 551.521,562.002 550.5,561.5C 545.977,558.645 541.31,557.312 536.5,557.5C 535.373,556.878 534.373,556.045 533.5,555C 535.219,553.943 537.053,553.11 539,552.5C 547.936,554.94 556.77,557.44 565.5,560C 555.635,551.301 546.301,542.134 537.5,532.5C 537.672,531.508 537.338,530.842 536.5,530.5C 531.92,524.351 528.087,517.684 525,510.5C 524.333,511.833 523.667,511.833 523,510.5C 522.517,509.552 522.351,508.552 522.5,507.5C 522.557,500.362 522.724,493.029 523,485.5C 523.943,482.176 524.776,478.843 525.5,475.5C 530.777,466.039 537.443,457.539 545.5,450C 543.721,450.044 542.055,450.711 540.5,452C 530.655,459.664 523.321,469.164 518.5,480.5C 517.249,482.382 516.082,484.382 515,486.5C 504.674,476.921 492.507,470.921 478.5,468.5C 477.587,477.565 475.587,486.399 472.5,495C 468.9,504.364 464.9,513.53 460.5,522.5C 455.846,529.129 451.179,535.796 446.5,542.5C 438.095,552.37 427.429,558.036 414.5,559.5C 401.705,555.104 389.371,549.604 377.5,543C 369.064,539.725 360.731,537.392 352.5,536C 354.725,534.869 357.058,534.036 359.5,533.5C 367.34,533.902 375.007,535.236 382.5,537.5C 383.312,535.917 382.645,534.917 380.5,534.5C 377.47,532.597 374.137,531.263 370.5,530.5C 369.833,529.167 369.167,529.167 368.5,530.5C 366.578,529.243 364.578,528.077 362.5,527C 372.123,526.48 381.457,527.98 390.5,531.5C 390.833,531.167 391.167,530.833 391.5,530.5C 386.791,526.492 381.458,523.825 375.5,522.5C 376.167,522.167 376.833,521.833 377.5,521.5C 378.833,521.5 380.167,521.5 381.5,521.5C 382.492,521.672 383.158,521.338 383.5,520.5C 390.396,523.271 397.396,526.104 404.5,529C 410.343,529.522 414.51,527.022 417,521.5C 421.451,509.236 423.951,496.569 424.5,483.5C 427.009,473.148 430.009,462.815 433.5,452.5C 433.291,451.914 432.957,451.414 432.5,451C 433.667,450.5 434.5,449.667 435,448.5C 438.261,439.658 441.761,430.992 445.5,422.5C 440.431,427.62 436.598,433.62 434,440.5C 424.586,428.914 412.419,424.414 397.5,427C 387.267,430.783 377.267,435.116 367.5,440C 351.093,445.592 334.26,448.092 317,447.5C 315.214,445.901 313.047,445.067 310.5,445C 304.501,443.614 298.501,443.281 292.5,444C 294.027,442.968 295.36,441.801 296.5,440.5C 299.007,440.368 299.674,439.368 298.5,437.5C 293.145,439.506 288.479,442.506 284.5,446.5C 270.903,456.547 255.736,462.881 239,465.5C 224.636,462.792 218.302,454.125 220,439.5C 221.914,434.665 224.581,430.331 228,426.5C 234.646,421.852 240.646,416.518 246,410.5C 249.226,403.628 252.726,396.961 256.5,390.5C 259.203,388.294 261.703,385.961 264,383.5C 269.549,383.938 275.049,383.105 280.5,381C 284.975,378.35 288.975,375.183 292.5,371.5C 318.563,354.554 345.896,342.888 374.5,336.5C 440.511,325.711 506.178,327.544 571.5,342C 590.502,347.153 608.169,353.319 624.5,360.5 Z M 289.5,405.5 C 290.497,405.47 291.164,405.97 291.5,407C 288.094,416.229 281.427,421.062 271.5,421.5C 271.781,419.037 272.781,416.87 274.5,415C 279.26,411.296 284.26,408.13 289.5,405.5 Z M 445.5,422.5 C 445.461,421.244 445.961,420.244 447,419.5C 447.585,420.998 447.085,421.998 445.5,422.5 Z M 707.5,426.5 C 709.785,427.957 711.618,429.957 713,432.5C 715.988,436.808 718.155,441.475 719.5,446.5C 715.142,440.121 711.142,433.454 707.5,426.5 Z M 310.5,432.5 C 308.058,433.719 305.724,435.219 303.5,437C 301.866,437.494 300.199,437.66 298.5,437.5C 301.999,434.754 305.999,433.087 310.5,432.5 Z M 742.5,526.5 C 743.791,528.949 744.791,531.616 745.5,534.5C 745.192,535.308 744.692,535.975 744,536.5C 743.174,533.207 742.674,529.874 742.5,526.5 Z M 747.5,544.5 C 747.5,544.833 747.5,545.167 747.5,545.5C 746.833,545.5 746.5,545.167 746.5,544.5C 744.067,542.012 743.9,539.345 746,536.5C 746.822,539.117 747.322,541.784 747.5,544.5 Z M 679.5,578.5 C 677.878,581.455 675.878,584.122 673.5,586.5C 672.833,586.5 672.5,586.167 672.5,585.5C 674.5,582.833 676.833,580.5 679.5,578.5 Z"/></g>
<g><path style="opacity:1" fill="#0b0c0b" d="M 392.5,331.5 C 393.833,332.167 393.833,332.167 392.5,331.5 Z"/></g>
<g><path style="opacity:1" fill="#0b0c08" d="M 374.5,336.5 C 373.761,336.631 373.094,336.464 372.5,336C 373.437,335.308 374.103,335.475 374.5,336.5 Z"/></g>
<g><path style="opacity:1" fill="#050605" d="M 550.5,335.5 C 551.833,336.167 551.833,336.167 550.5,335.5 Z"/></g>
<g><path style="opacity:1" fill="#0b0c0b" d="M 367.5,337.5 C 367.897,336.475 368.563,336.308 369.5,337C 368.906,337.464 368.239,337.631 367.5,337.5 Z"/></g>
<g><path style="opacity:1" fill="#0b0c0b" d="M 561.5,336.5 C 562.833,337.167 562.833,337.167 561.5,336.5 Z"/></g>
<g><path style="opacity:1" fill="#11120b" d="M 359.5,338.5 C 360.833,339.167 360.833,339.167 359.5,338.5 Z"/></g>
<g><path style="opacity:1" fill="#050c05" d="M 615.5,352.5 C 616.833,353.167 616.833,353.167 615.5,352.5 Z"/></g>
<g><path style="opacity:1" fill="#050c05" d="M 612.5,353.5 C 613.833,354.167 613.833,354.167 612.5,353.5 Z"/></g>
<g><path style="opacity:1" fill="#0b0c0b" d="M 304.5,359.5 C 305.833,360.167 305.833,360.167 304.5,359.5 Z"/></g>
<g><path style="opacity:1" fill="#0b0c0b" d="M 308.5,359.5 C 309.833,360.167 309.833,360.167 308.5,359.5 Z"/></g>
<g><path style="opacity:1" fill="#050605" d="M 624.5,359.5 C 625.833,360.167 625.833,360.167 624.5,359.5 Z"/></g>
<g><path style="opacity:1" fill="#0b0c0b" d="M 292.5,371.5 C 291.833,370.167 291.833,370.167 292.5,371.5 Z"/></g>
<g><path style="opacity:1" fill="#110c11" d="M 284.5,375.5 C 285.833,376.167 285.833,376.167 284.5,375.5 Z"/></g>
<g><path style="opacity:1" fill="#0b0605" d="M 667.5,383.5 C 668.833,384.167 668.833,384.167 667.5,383.5 Z"/></g>
<g><path style="opacity:1" fill="#181218" d="M 244.5,408.5 C 243.833,407.167 243.833,407.167 244.5,408.5 Z"/></g>
<g><path style="opacity:1" fill="#111211" d="M 244.5,408.5 C 245.833,409.167 245.833,409.167 244.5,408.5 Z"/></g>
<g><path style="opacity:1" fill="#0b0c0b" d="M 409.5,428.5 C 409.897,427.475 410.563,427.308 411.5,428C 410.906,428.464 410.239,428.631 409.5,428.5 Z"/></g>
<g><path style="opacity:1" fill="#0b0c0b" d="M 411.5,429.5 C 412.833,430.167 412.833,430.167 411.5,429.5 Z"/></g>
<g><path style="opacity:1" fill="#0b0c0b" d="M 419.5,430.5 C 420.833,431.167 420.833,431.167 419.5,430.5 Z"/></g>
<g><path style="opacity:1" fill="#111211" d="M 732.5,431.5 C 733.833,432.167 733.833,432.167 732.5,431.5 Z"/></g>
<g><path style="opacity:1" fill="#0b1211" d="M 734.5,432.5 C 735.833,433.167 735.833,433.167 734.5,432.5 Z"/></g>
<g><path style="opacity:1" fill="#0b0c0b" d="M 429.5,438.5 C 430.833,439.167 430.833,439.167 429.5,438.5 Z"/></g>
<g><path style="opacity:1" fill="#110c0b" d="M 296.5,440.5 C 295.833,439.167 295.833,439.167 296.5,440.5 Z"/></g>
<g><path style="opacity:1" fill="#0b0c0b" d="M 295.5,445.5 C 296.833,446.167 296.833,446.167 295.5,445.5 Z"/></g>
<g><path style="opacity:1" fill="#111211" d="M 303.5,445.5 C 304.833,446.167 304.833,446.167 303.5,445.5 Z"/></g>
<g><path style="opacity:1" fill="#110c0b" d="M 305.5,446.5 C 305.897,445.475 306.563,445.308 307.5,446C 306.906,446.464 306.239,446.631 305.5,446.5 Z"/></g>
<g><path style="opacity:1" fill="#0b120b" d="M 352.5,445.5 C 353.833,446.167 353.833,446.167 352.5,445.5 Z"/></g>
<g><path style="opacity:1" fill="#0b1211" d="M 284.5,446.5 C 285.833,447.167 285.833,447.167 284.5,446.5 Z"/></g>
<g><path style="opacity:1" fill="#0b0c0b" d="M 293.5,446.5 C 294.833,447.167 294.833,447.167 293.5,446.5 Z"/></g>
<g><path style="opacity:1" fill="#0e1010" d="M 311.5,447.5 C 312.601,446.402 313.934,446.235 315.5,447C 314.207,447.49 312.873,447.657 311.5,447.5 Z"/></g>
<g><path style="opacity:1" fill="#110e10" d="M 347.5,447.5 C 347.897,446.475 348.563,446.308 349.5,447C 348.906,447.464 348.239,447.631 347.5,447.5 Z"/></g>
<g><path style="opacity:1" fill="#0b0c0b" d="M 432.5,448.5 C 433.833,449.167 433.833,449.167 432.5,448.5 Z"/></g>
<g><path style="opacity:1" fill="#181918" d="M 219.5,454.5 C 220.833,455.167 220.833,455.167 219.5,454.5 Z"/></g>
<g><path style="opacity:1" fill="#0b0c0b" d="M 480.5,469.5 C 481.525,469.897 481.692,470.563 481,471.5C 480.536,470.906 480.369,470.239 480.5,469.5 Z"/></g>
<g><path style="opacity:1" fill="#0b0c0b" d="M 525.5,475.5 C 524.733,474.828 524.066,473.995 523.5,473C 525.061,472.812 525.728,473.645 525.5,475.5 Z"/></g>
<g><path style="opacity:1" fill="#0b0c0b" d="M 523.5,476.5 C 524.833,477.167 524.833,477.167 523.5,476.5 Z"/></g>
<g><path style="opacity:1" fill="#0b0c11" d="M 423.5,480.5 C 424.833,481.167 424.833,481.167 423.5,480.5 Z"/></g>
<g><path style="opacity:1" fill="#0b0c0b" d="M 518.5,480.5 C 519.833,481.167 519.833,481.167 518.5,480.5 Z"/></g>
<g><path style="opacity:1" fill="#110c0b" d="M 424.5,483.5 C 423.833,482.167 423.833,482.167 424.5,483.5 Z"/></g>
<g><path style="opacity:1" fill="#0b060b" d="M 519.5,482.5 C 520.833,483.167 520.833,483.167 519.5,482.5 Z"/></g>
<g><path style="opacity:1" fill="#0b0c0b" d="M 520.5,487.5 C 521.833,488.167 521.833,488.167 520.5,487.5 Z"/></g>
<g><path style="opacity:1" fill="#0b0c0b" d="M 520.5,489.5 C 521.833,490.167 521.833,490.167 520.5,489.5 Z"/></g>
<g><path style="opacity:1" fill="#0b0c0b" d="M 520.5,495.5 C 521.613,496.946 521.78,498.613 521,500.5C 520.506,498.866 520.34,497.199 520.5,495.5 Z"/></g>
<g><path style="opacity:1" fill="#0b0c0b" d="M 522.5,507.5 C 521.833,506.167 521.833,506.167 522.5,507.5 Z"/></g>
<g><path style="opacity:1" fill="#0b120b" d="M 467.5,509.5 C 468.833,510.167 468.833,510.167 467.5,509.5 Z"/></g>
<g><path style="opacity:1" fill="#110c0b" d="M 519.5,514.5 C 520.833,515.167 520.833,515.167 519.5,514.5 Z"/></g>
<g><path style="opacity:1" fill="#111211" d="M 415.5,519.5 C 416.833,520.167 416.833,520.167 415.5,519.5 Z"/></g>
<g><path style="opacity:1" fill="#181918" d="M 372.5,520.5 C 373.833,521.167 373.833,521.167 372.5,520.5 Z"/></g>
<g><path style="opacity:1" fill="#1f2020" d="M 383.5,520.5 C 382.508,520.328 381.842,520.662 381.5,521.5C 380.167,521.5 378.833,521.5 377.5,521.5C 377.389,520.883 377.056,520.383 376.5,520C 379.039,519.204 381.372,519.371 383.5,520.5 Z"/></g>
<g><path style="opacity:1" fill="#111918" d="M 385.5,520.5 C 386.833,521.167 386.833,521.167 385.5,520.5 Z"/></g>
<g><path style="opacity:1" fill="#181911" d="M 387.5,520.5 C 388.833,521.167 388.833,521.167 387.5,520.5 Z"/></g>
<g><path style="opacity:1" fill="#110c0b" d="M 415.5,520.5 C 414.833,521.167 414.833,521.167 415.5,520.5 Z"/></g>
<g><path style="opacity:1" fill="#0b1211" d="M 786.5,520.5 C 787.833,521.167 787.833,521.167 786.5,520.5 Z"/></g>
<g><path style="opacity:1" fill="#1d1918" d="M 375.5,522.5 C 374.475,522.103 374.308,521.437 375,520.5C 375.464,521.094 375.631,521.761 375.5,522.5 Z"/></g>
<g><path style="opacity:1" fill="#110c0b" d="M 460.5,522.5 C 461.833,523.167 461.833,523.167 460.5,522.5 Z"/></g>
<g><path style="opacity:1" fill="#161615" d="M 383.5,526.5 C 384.525,526.897 384.692,527.563 384,528.5C 383.536,527.906 383.369,527.239 383.5,526.5 Z"/></g>
<g><path style="opacity:1" fill="#111211" d="M 407.5,527.5 C 408.833,528.167 408.833,528.167 407.5,527.5 Z"/></g>
<g><path style="opacity:1" fill="#181918" d="M 368.5,530.5 C 369.167,530.5 369.833,530.5 370.5,530.5C 370.5,530.833 370.5,531.167 370.5,531.5C 369.508,531.672 368.842,531.338 368.5,530.5 Z"/></g>
<g><path style="opacity:1" fill="#0b0c0b" d="M 536.5,530.5 C 535.833,531.167 535.833,531.167 536.5,530.5 Z"/></g>
<g><path style="opacity:1" fill="#1e1918" d="M 360.5,531.5 C 361.833,532.167 361.833,532.167 360.5,531.5 Z"/></g>
<g><path style="opacity:1" fill="#181918" d="M 370.5,531.5 C 371.833,532.167 371.833,532.167 370.5,531.5 Z"/></g>
<g><path style="opacity:1" fill="#0b0c0b" d="M 537.5,532.5 C 536.833,533.167 536.833,533.167 537.5,532.5 Z"/></g>
<g><path style="opacity:1" fill="#111211" d="M 380.5,534.5 C 379.833,535.167 379.833,535.167 380.5,534.5 Z"/></g>
<g><path style="opacity:1" fill="#111211" d="M 446.5,542.5 C 447.833,543.167 447.833,543.167 446.5,542.5 Z"/></g>
<g><path style="opacity:1" fill="#191a1b" d="M 637.5,544.5 C 634.946,543.612 632.279,543.279 629.5,543.5C 631.684,542.734 634.018,542.067 636.5,541.5C 637.386,542.325 637.719,543.325 637.5,544.5 Z"/></g>
<g><path style="opacity:1" fill="#0b0c0b" d="M 747.5,549.5 C 748.525,549.897 748.692,550.563 748,551.5C 747.536,550.906 747.369,550.239 747.5,549.5 Z"/></g>
<g><path style="opacity:1" fill="#111211" d="M 535.5,552.5 C 535.897,551.475 536.563,551.308 537.5,552C 536.906,552.464 536.239,552.631 535.5,552.5 Z"/></g>
<g><path style="opacity:1" fill="#111211" d="M 542.5,551.5 C 543.833,552.167 543.833,552.167 542.5,551.5 Z"/></g>
<g><path style="opacity:1" fill="#0b0c0b" d="M 749.5,552.5 C 748.833,553.167 748.833,553.167 749.5,552.5 Z"/></g>
<g><path style="opacity:1" fill="#111211" d="M 403.5,557.5 C 404.833,558.167 404.833,558.167 403.5,557.5 Z"/></g>
<g><path style="opacity:1" fill="#111211" d="M 536.5,557.5 C 537.239,557.369 537.906,557.536 538.5,558C 537.563,558.692 536.897,558.525 536.5,557.5 Z"/></g>
<g><path style="opacity:1" fill="#0b0c0b" d="M 747.5,558.5 C 748.833,559.167 748.833,559.167 747.5,558.5 Z"/></g>
<g><path style="opacity:1" fill="#111211" d="M 793.5,560.5 C 794.833,561.167 794.833,561.167 793.5,560.5 Z"/></g>
<g><path style="opacity:1" fill="#1f1d1c" d="M 813.5,560.5 C 810.781,561.913 807.781,562.58 804.5,562.5C 807.219,561.087 810.219,560.42 813.5,560.5 Z"/></g>
<g><path style="opacity:1" fill="#141211" d="M 522.5,565.5 C 522.897,564.475 523.563,564.308 524.5,565C 523.906,565.464 523.239,565.631 522.5,565.5 Z"/></g>
<g><path style="opacity:1" fill="#181918" d="M 804.5,570.5 C 805.833,571.167 805.833,571.167 804.5,570.5 Z"/></g>
<g><path style="opacity:1" fill="#111211" d="M 531.5,574.5 C 532.833,575.167 532.833,575.167 531.5,574.5 Z"/></g>
<g><path style="opacity:1" fill="#11120b" d="M 751.5,575.5 C 752.833,576.167 752.833,576.167 751.5,575.5 Z"/></g>
<g><path style="opacity:1" fill="#0b0c0b" d="M 751.5,577.5 C 752.833,578.167 752.833,578.167 751.5,577.5 Z"/></g>
<g><path style="opacity:1" fill="#110c0b" d="M 548.5,582.5 C 549.833,583.167 549.833,583.167 548.5,582.5 Z"/></g>
<g><path style="opacity:1" fill="#0b0c0b" d="M 632.5,583.5 C 633.833,584.167 633.833,584.167 632.5,583.5 Z"/></g>
<g><path style="opacity:1" fill="#110c0b" d="M 599.5,586.5 C 600.833,587.167 600.833,587.167 599.5,586.5 Z"/></g>
<g><path style="opacity:1" fill="#110c0b" d="M 631.5,586.5 C 632.833,587.167 632.833,587.167 631.5,586.5 Z"/></g>
<g><path style="opacity:1" fill="#0b0c0b" d="M 585.5,587.5 C 586.833,588.167 586.833,588.167 585.5,587.5 Z"/></g>
<g><path style="opacity:1" fill="#110c0b" d="M 594.5,587.5 C 595.833,588.167 595.833,588.167 594.5,587.5 Z"/></g>
<g><path style="opacity:1" fill="#0b0c10" d="M 747.5,589.5 C 748.525,589.897 748.692,590.563 748,591.5C 747.536,590.906 747.369,590.239 747.5,589.5 Z"/></g>
<g><path style="opacity:1" fill="#110c0b" d="M 662.5,593.5 C 663.833,594.167 663.833,594.167 662.5,593.5 Z"/></g>
<g><path style="opacity:1" fill="#0b0c0b" d="M 661.5,594.5 C 661.833,594.5 662.167,594.5 662.5,594.5C 662.315,595.17 661.981,595.17 661.5,594.5 Z"/></g>
<g><path style="opacity:1" fill="#11120b" d="M 758.5,595.5 C 757.833,596.167 757.833,596.167 758.5,595.5 Z"/></g>
<g><path style="opacity:1" fill="#0b0c0b" d="M 746.5,596.5 C 747.833,597.167 747.833,597.167 746.5,596.5 Z"/></g>
<g><path style="opacity:1" fill="#111211" d="M 760.5,596.5 C 761.833,597.167 761.833,597.167 760.5,596.5 Z"/></g>
<g><path style="opacity:1" fill="#0b0c0b" d="M 625.5,601.5 C 626.833,602.167 626.833,602.167 625.5,601.5 Z"/></g>
<g><path style="opacity:1" fill="#0b0c0b" d="M 652.5,601.5 C 653.833,602.167 653.833,602.167 652.5,601.5 Z"/></g>
<g><path style="opacity:1" fill="#0b0c0b" d="M 649.5,603.5 C 650.833,604.167 650.833,604.167 649.5,603.5 Z"/></g>
<g><path style="opacity:1" fill="#0b0c05" d="M 652.5,605.5 C 651.833,604.167 651.833,604.167 652.5,605.5 Z"/></g>
<g><path style="opacity:1" fill="#0b0c0b" d="M 645.5,608.5 C 646.833,609.167 646.833,609.167 645.5,608.5 Z"/></g>
<g><path style="opacity:1" fill="#0b0c0b" d="M 637.5,616.5 C 636.833,615.167 636.833,615.167 637.5,616.5 Z"/></g>
<g><path style="opacity:1" fill="#0b060b" d="M 634.5,618.5 C 633.833,617.167 633.833,617.167 634.5,618.5 Z"/></g>
<g><path style="opacity:1" fill="#0b0c0b" d="M 619.5,623.5 C 620.833,624.167 620.833,624.167 619.5,623.5 Z"/></g>
<g><path style="opacity:1" fill="#111211" d="M 624.5,624.5 C 623.833,623.167 623.833,623.167 624.5,624.5 Z"/></g>
<g><path style="opacity:1" fill="#0b0c0b" d="M 589.5,639.5 C 590.833,640.167 590.833,640.167 589.5,639.5 Z"/></g>
<g><path style="opacity:1" fill="#0b0c0b" d="M 537.5,658.5 C 538.833,659.167 538.833,659.167 537.5,658.5 Z"/></g>
<g><path style="opacity:1" fill="#0b0a0b" d="M 523.5,664.5 C 522.448,664.649 521.448,664.483 520.5,664C 521.749,663.26 522.749,663.427 523.5,664.5 Z"/></g>
<g><path style="opacity:1" fill="#313231" d="M 224.5,668.5 C 225.833,669.167 225.833,669.167 224.5,668.5 Z"/></g>
<g><path style="opacity:1" fill="#292a29" d="M 224.5,669.5 C 224.5,669.833 224.5,670.167 224.5,670.5C 224.5,671.167 224.5,671.833 224.5,672.5C 219.674,671.028 219.674,670.028 224.5,669.5 Z"/></g>
<g><path style="opacity:1" fill="#2b2b2d" d="M 240.5,673.5 C 238.585,673.784 236.919,673.451 235.5,672.5C 237.477,671.128 239.144,671.462 240.5,673.5 Z"/></g>
<g><path style="opacity:1" fill="#110c11" d="M 684.5,673.5 C 685.833,674.167 685.833,674.167 684.5,673.5 Z"/></g>
<g><path style="opacity:1" fill="#2c2b2c" d="M 226.5,673.5 C 227.463,674.363 227.463,675.03 226.5,675.5C 225.227,674.743 225.227,674.077 226.5,673.5 Z"/></g>
<g><path style="opacity:1" fill="#181918" d="M 263.5,674.5 C 264.833,675.167 264.833,675.167 263.5,674.5 Z"/></g>
<g><path style="opacity:1" fill="#0b0c05" d="M 472.5,675.5 C 471.833,674.167 471.833,674.167 472.5,675.5 Z"/></g>
<g><path style="opacity:1" fill="#2a2524" d="M 232.5,676.5 C 231.833,677.167 231.833,677.167 232.5,676.5 Z"/></g>
<g><path style="opacity:1" fill="#2a2b2a" d="M 229.5,678.5 C 230.833,679.167 230.833,679.167 229.5,678.5 Z"/></g>
<g><path style="opacity:1" fill="#111211" d="M 304.5,679.5 C 305.833,680.167 305.833,680.167 304.5,679.5 Z"/></g>
<g><path style="opacity:1" fill="#0b0c0b" d="M 431.5,680.5 C 431.897,679.475 432.563,679.308 433.5,680C 432.906,680.464 432.239,680.631 431.5,680.5 Z"/></g>
<g><path style="opacity:1" fill="#0b0c0b" d="M 434.5,679.5 C 435.833,680.167 435.833,680.167 434.5,679.5 Z"/></g>
<g><path style="opacity:1" fill="#1c1c1e" d="M 299.5,681.5 C 297.265,681.795 295.265,681.461 293.5,680.5C 295.597,680.003 297.43,679.67 299,679.5C 299.464,680.094 299.631,680.761 299.5,681.5 Z"/></g>
<g><path style="opacity:1" fill="#181918" d="M 271.5,692.5 C 272.833,693.167 272.833,693.167 271.5,692.5 Z"/></g>
<g><path style="opacity:1" fill="#181918" d="M 278.5,693.5 C 277.833,692.167 277.833,692.167 278.5,693.5 Z"/></g>
<g><path style="opacity:1" fill="#0b0c0b" d="M 641.5,692.5 C 642.833,693.167 642.833,693.167 641.5,692.5 Z"/></g>
<g><path style="opacity:1" fill="#181918" d="M 275.5,693.5 C 276.833,694.167 276.833,694.167 275.5,693.5 Z"/></g>
<g><path style="opacity:1" fill="#181918" d="M 278.5,693.5 C 279.833,694.167 279.833,694.167 278.5,693.5 Z"/></g>
<g><path style="opacity:1" fill="#0b0c0b" d="M 643.5,693.5 C 644.833,694.167 644.833,694.167 643.5,693.5 Z"/></g>
<g><path style="opacity:1" fill="#181918" d="M 275.5,694.5 C 274.833,695.167 274.833,695.167 275.5,694.5 Z"/></g>
<g><path style="opacity:1" fill="#101211" d="M 635.5,694.5 C 636.239,694.369 636.906,694.536 637.5,695C 636.563,695.692 635.897,695.525 635.5,694.5 Z"/></g>
<g><path style="opacity:1" fill="#111211" d="M 306.5,699.5 C 305.833,700.167 305.833,700.167 306.5,699.5 Z"/></g>
<g><path style="opacity:1" fill="#141412" d="M 307.5,700.5 C 308.525,700.897 308.692,701.563 308,702.5C 307.536,701.906 307.369,701.239 307.5,700.5 Z"/></g>
<g><path style="opacity:1" fill="#111218" d="M 311.5,701.5 C 312.833,702.167 312.833,702.167 311.5,701.5 Z"/></g>
<g><path style="opacity:1" fill="#0b0c0b" d="M 609.5,702.5 C 610.833,703.167 610.833,703.167 609.5,702.5 Z"/></g>
<g><path style="opacity:1" fill="#0b0c0b" d="M 591.5,706.5 C 592.833,707.167 592.833,707.167 591.5,706.5 Z"/></g>
<g><path style="opacity:1" fill="#110c11" d="M 341.5,707.5 C 342.833,708.167 342.833,708.167 341.5,707.5 Z"/></g>
<g><path style="opacity:1" fill="#0b0c0b" d="M 347.5,709.5 C 348.833,710.167 348.833,710.167 347.5,709.5 Z"/></g>
<g><path style="opacity:1" fill="#111211" d="M 354.5,709.5 C 355.833,710.167 355.833,710.167 354.5,709.5 Z"/></g>
<g><path style="opacity:1" fill="#0b0c0b" d="M 574.5,710.5 C 574.897,709.475 575.563,709.308 576.5,710C 575.906,710.464 575.239,710.631 574.5,710.5 Z"/></g>
<g><path style="opacity:1" fill="#0b0c0b" d="M 568.5,710.5 C 569.833,711.167 569.833,711.167 568.5,710.5 Z"/></g>
<g><path style="opacity:1" fill="#0b0c0b" d="M 542.5,714.5 C 543.833,715.167 543.833,715.167 542.5,714.5 Z"/></g>
<g><path style="opacity:1" fill="#0b120b" d="M 401.5,715.5 C 402.833,716.167 402.833,716.167 401.5,715.5 Z"/></g>
<g><path style="opacity:1" fill="#0d0c0b" d="M 403.5,716.5 C 404.601,715.402 405.934,715.235 407.5,716C 406.207,716.49 404.873,716.657 403.5,716.5 Z"/></g>
<g><path style="opacity:1" fill="#0b0c0b" d="M 529.5,715.5 C 530.833,716.167 530.833,716.167 529.5,715.5 Z"/></g>
<g><path style="opacity:1" fill="#0b0c0b" d="M 544.5,716.5 C 545.833,717.167 545.833,717.167 544.5,716.5 Z"/></g>
<g><path style="opacity:1" fill="#0b0c0b" d="M 403.5,717.5 C 404.833,718.167 404.833,718.167 403.5,717.5 Z"/></g>
<g><path style="opacity:1" fill="#0b0c0b" d="M 429.5,717.5 C 430.833,718.167 430.833,718.167 429.5,717.5 Z"/></g>
<g><path style="opacity:1" fill="#0b0c0b" d="M 434.5,718.5 C 434.897,717.475 435.563,717.308 436.5,718C 435.906,718.464 435.239,718.631 434.5,718.5 Z"/></g>
<g><path style="opacity:1" fill="#0b0c0b" d="M 503.5,718.5 C 503.897,717.475 504.563,717.308 505.5,718C 504.906,718.464 504.239,718.631 503.5,718.5 Z"/></g>
<g><path style="opacity:1" fill="#0b0c0b" d="M 506.5,718.5 C 506.897,717.475 507.563,717.308 508.5,718C 507.906,718.464 507.239,718.631 506.5,718.5 Z"/></g>
<g><path style="opacity:1" fill="#0b0c0b" d="M 452.5,718.5 C 453.833,719.167 453.833,719.167 452.5,718.5 Z"/></g>
<g><path style="opacity:1" fill="#0b0c0b" d="M 456.5,719.5 C 456.897,718.475 457.563,718.308 458.5,719C 457.906,719.464 457.239,719.631 456.5,719.5 Z"/></g>
<g><path style="opacity:1" fill="#0b0c0b" d="M 460.5,719.5 C 460.897,718.475 461.563,718.308 462.5,719C 461.906,719.464 461.239,719.631 460.5,719.5 Z"/></g>
<g><path style="opacity:1" fill="#0b060b" d="M 464.5,718.5 C 465.833,719.167 465.833,719.167 464.5,718.5 Z"/></g>
<g><path style="opacity:1" fill="#0b080b" d="M 467.5,719.5 C 467.897,718.475 468.563,718.308 469.5,719C 468.906,719.464 468.239,719.631 467.5,719.5 Z"/></g>
<g><path style="opacity:1" fill="#5c5d5c" d="M 307.5,933.5 C 308.833,934.167 308.833,934.167 307.5,933.5 Z"/></g>
</svg>
