<?xml version="1.0" encoding="UTF-8"?>
<!DOCTYPE svg PUBLIC "-//W3C//DTD SVG 1.1//EN" "http://www.w3.org/Graphics/SVG/1.1/DTD/svg11.dtd">
<svg xmlns="http://www.w3.org/2000/svg" version="1.1" width="1024px" height="1024px" style="shape-rendering:geometricPrecision; text-rendering:geometricPrecision; image-rendering:optimizeQuality; fill-rule:evenodd; clip-rule:evenodd" xmlns:xlink="http://www.w3.org/1999/xlink">
<g><path style="opacity:1" fill="#0b0c0b" d="M 505.5,242.5 C 506.833,243.167 506.833,243.167 505.5,242.5 Z"/></g>
<g><path style="opacity:1" fill="#0b0c0b" d="M 527.5,242.5 C 528.833,243.167 528.833,243.167 527.5,242.5 Z"/></g>
<g><path style="opacity:1" fill="#000000" d="M 571.5,270.5 C 586.67,290.158 599.837,311.158 611,333.5C 616.638,347.312 617.638,361.645 614,376.5C 623.968,355.84 622.135,336.173 608.5,317.5C 608.833,317.167 609.167,316.833 609.5,316.5C 620.239,320.97 630.906,325.637 641.5,330.5C 650.61,336.902 659.61,343.569 668.5,350.5C 669.326,351.451 669.492,352.451 669,353.5C 664.157,351.941 659.323,350.274 654.5,348.5C 658.045,353.174 662.711,357.341 668.5,361C 678.508,370.899 687.174,381.733 694.5,393.5C 697.321,399.812 700.155,406.145 703,412.5C 703.667,413.833 703.667,415.167 703,416.5C 697.613,411.557 691.779,407.224 685.5,403.5C 706.296,438.063 725.463,474.063 743,511.5C 748.03,520.668 753.197,529.668 758.5,538.5C 763.226,546.944 768.226,555.277 773.5,563.5C 773.333,563.833 773.167,564.167 773,564.5C 770.401,562.121 767.567,560.121 764.5,558.5C 760.804,555.027 756.804,552.693 752.5,551.5C 766.177,566.19 775.677,583.19 781,602.5C 779.296,600.627 777.463,598.96 775.5,597.5C 773.143,593.955 770.143,591.455 766.5,590C 768.752,592.736 770.752,595.569 772.5,598.5C 780.087,613.187 783.754,628.853 783.5,645.5C 783.164,656.3 782.497,666.8 781.5,677C 786.086,701.178 790.753,725.345 795.5,749.5C 795.049,760.566 790.716,769.733 782.5,777C 778.805,779.349 774.805,780.849 770.5,781.5C 765.077,780.189 759.41,780.189 753.5,781.5C 751.167,781.5 748.833,781.5 746.5,781.5C 743.135,781.046 739.802,780.38 736.5,779.5C 714.77,784.105 708.77,776.439 718.5,756.5C 718.457,755.584 718.124,754.917 717.5,754.5C 718.969,752.895 718.635,752.395 716.5,753C 713.035,755.463 709.869,758.296 707,761.5C 705.213,765.577 703.046,769.41 700.5,773C 696.591,774.611 692.924,774.111 689.5,771.5C 683.866,749.967 691.533,735.467 712.5,728C 718.572,722.661 720.072,716.161 717,708.5C 714.158,699.453 710.658,690.787 706.5,682.5C 702.23,670.356 698.564,658.023 695.5,645.5C 694.852,643.914 694.352,642.247 694,640.5C 693.503,642.81 693.337,645.143 693.5,647.5C 694.143,654.028 694.643,660.695 695,667.5C 688.448,658.059 683.781,647.725 681,636.5C 679.429,628.059 677.763,619.726 676,611.5C 674.453,617.373 672.453,623.04 670,628.5C 666.958,603.125 663.625,577.792 660,552.5C 658.253,559.854 655.753,566.854 652.5,573.5C 649.524,554.792 645.691,536.125 641,517.5C 640.093,522.662 639.26,527.829 638.5,533C 639.186,535.461 638.853,537.961 637.5,540.5C 636.914,540.291 636.414,539.957 636,539.5C 630.345,521.863 625.178,504.196 620.5,486.5C 618.337,476.513 616.17,466.513 614,456.5C 616.667,506.509 603.5,551.842 574.5,592.5C 578.458,591.273 581.792,588.606 584.5,584.5C 586.89,583.109 588.557,581.109 589.5,578.5C 595.97,570.918 601.47,562.585 606,553.5C 606.689,552.643 607.522,551.977 608.5,551.5C 609.696,551.846 609.696,552.346 608.5,553C 617.536,556.888 624.869,562.721 630.5,570.5C 638.574,587.101 640.407,604.434 636,622.5C 630.278,643.612 620.612,662.612 607,679.5C 601.667,685.5 596.333,691.5 591,697.5C 586.794,701.708 582.294,705.542 577.5,709C 593.858,711.448 610.191,715.281 626.5,720.5C 634.373,724.203 640.54,729.869 645,737.5C 645.889,740.687 646.722,743.853 647.5,747C 647,747.5 646.5,748 646,748.5C 641.344,744.671 636.344,741.337 631,738.5C 631.199,741.099 632.033,743.599 633.5,746C 631.24,747.689 628.74,748.856 626,749.5C 620.018,748.925 614.185,747.592 608.5,745.5C 603.899,742.076 599.399,738.409 595,734.5C 597.037,738.935 598.87,743.602 600.5,748.5C 598.527,752.9 595.027,754.567 590,753.5C 585.146,753.206 580.312,752.706 575.5,752C 568.153,749.657 560.819,747.323 553.5,745C 543.081,744.847 532.748,743.847 522.5,742C 514.846,741.375 510.512,737.375 509.5,730C 511.425,722.223 513.759,714.557 516.5,707C 516.333,706.5 516.167,706 516,705.5C 515.085,706.328 514.419,707.328 514,708.5C 510.543,707.858 507.21,708.524 504,710.5C 503.833,710 503.667,709.5 503.5,709C 508.776,698.955 512.776,688.455 515.5,677.5C 516.598,676.399 516.765,675.066 516,673.5C 515.283,674.044 514.783,674.711 514.5,675.5C 513.5,676.5 512.5,677.5 511.5,678.5C 507.025,682.243 502.025,685.243 496.5,687.5C 496.167,687.167 495.833,686.833 495.5,686.5C 499.043,679.538 501.376,672.205 502.5,664.5C 509.132,646.538 509.965,628.205 505,609.5C 503.524,603.881 501.024,598.881 497.5,594.5C 495.657,590.31 492.99,586.644 489.5,583.5C 487.408,581.395 485.075,579.728 482.5,578.5C 480.853,576.674 478.853,575.34 476.5,574.5C 459.252,565.749 441.252,564.249 422.5,570C 423.025,570.692 423.692,571.192 424.5,571.5C 432.795,570.59 441.128,570.59 449.5,571.5C 455.108,572.99 460.774,574.656 466.5,576.5C 489.683,589.496 501.683,609.496 502.5,636.5C 501.399,660.302 494.565,682.302 482,702.5C 476.957,710.087 471.79,717.587 466.5,725C 473.091,727.531 479.758,729.864 486.5,732C 500.451,739.402 506.284,750.902 504,766.5C 502.041,769.413 499.541,770.413 496.5,769.5C 495.404,766.968 494.071,764.635 492.5,762.5C 490.896,759.07 488.563,756.57 485.5,755C 486.417,758.175 488.084,760.842 490.5,763C 490.167,763.333 489.833,763.667 489.5,764C 494.535,770.238 493.202,774.071 485.5,775.5C 481.293,775.246 477.793,773.579 475,770.5C 472.217,761.885 466.884,755.552 459,751.5C 458.333,752.167 458.333,752.833 459,753.5C 463.74,758.315 466.907,763.982 468.5,770.5C 467.751,774.789 465.084,776.789 460.5,776.5C 452.839,775.004 448.339,770.338 447,762.5C 445.039,759.537 442.706,756.871 440,754.5C 441.442,760.65 443.608,766.65 446.5,772.5C 446.41,774.425 445.41,775.592 443.5,776C 436.976,777.011 430.643,776.345 424.5,774C 419.228,771.059 414.228,767.726 409.5,764C 403.454,762.881 397.454,761.548 391.5,760C 388.977,758.64 386.977,756.807 385.5,754.5C 386.83,744.858 387.663,735.191 388,725.5C 385.047,715.964 381.88,706.631 378.5,697.5C 374.376,683.003 370.876,668.337 368,653.5C 364.356,630.561 365.689,607.894 372,585.5C 378.946,564.829 385.779,544.162 392.5,523.5C 394.405,519.784 395.739,515.784 396.5,511.5C 400.416,499.836 403.416,487.836 405.5,475.5C 407.509,469.766 408.342,463.766 408,457.5C 400.855,479.101 394.022,500.767 387.5,522.5C 386.943,517.972 385.609,513.805 383.5,510C 384.602,507.599 384.769,505.099 384,502.5C 373.4,528.233 366.233,554.9 362.5,582.5C 361.817,582.137 361.15,581.804 360.5,581.5C 356.499,568.832 353.999,555.832 353,542.5C 344.914,573.156 344.414,603.656 351.5,634C 351.333,634.5 351.167,635 351,635.5C 347.257,631.268 343.757,626.935 340.5,622.5C 340.5,621.833 340.5,621.167 340.5,620.5C 340.013,619.527 339.513,618.527 339,617.5C 338.192,621.027 338.359,624.36 339.5,627.5C 339.977,639.659 338.811,651.659 336,663.5C 334.359,670.604 331.859,677.27 328.5,683.5C 327.676,679.688 327.176,675.688 327,671.5C 325.913,669.068 325.413,669.402 325.5,672.5C 323.39,687.729 319.223,702.396 313,716.5C 311.228,722.467 312.728,727.301 317.5,731C 337.262,739.359 344.596,753.859 339.5,774.5C 336.526,776.566 333.526,776.732 330.5,775C 327.405,766.634 322.072,760.134 314.5,755.5C 313.369,757.074 313.202,758.741 314,760.5C 316.303,764.939 318.47,769.439 320.5,774C 319.223,778.479 316.223,780.813 311.5,781C 307.314,781.573 303.147,781.406 299,780.5C 294.825,781.113 290.658,781.779 286.5,782.5C 277.243,780.937 267.909,780.103 258.5,780C 245.395,774.489 239.062,764.489 239.5,750C 242.231,731.177 244.898,712.344 247.5,693.5C 245.959,680 243.459,666.667 240,653.5C 237.02,632.215 240.853,611.882 251.5,592.5C 247.503,594.797 243.837,598.131 240.5,602.5C 240.167,602 239.833,601.5 239.5,601C 241.812,592.55 244.812,584.384 248.5,576.5C 253.443,568.803 258.776,561.303 264.5,554C 257.705,556.403 251.371,559.903 245.5,564.5C 244.479,563.998 244.312,563.332 245,562.5C 252.822,551.155 259.822,539.822 266,528.5C 281.539,497.089 297.872,466.089 315,435.5C 321.304,424.719 328.137,414.386 335.5,404.5C 336.338,404.158 336.672,403.492 336.5,402.5C 337.833,402.167 337.833,401.833 336.5,401.5C 335.5,401.833 334.833,402.5 334.5,403.5C 328.667,406.588 323.333,410.422 318.5,415C 317.241,415.982 315.908,416.315 314.5,416C 324.075,396.423 336.741,379.089 352.5,364C 358.221,359.279 364.221,354.946 370.5,351C 364.848,351.835 358.848,352.502 352.5,353C 360.232,347.81 367.899,342.644 375.5,337.5C 392.256,328.708 409.756,321.708 428,316.5C 428.5,316.667 429,316.833 429.5,317C 428.177,317.816 427.511,318.983 427.5,320.5C 419.051,332.035 415.551,345.035 417,359.5C 418.95,364.996 420.95,370.662 423,376.5C 419.354,362.293 420.354,348.293 426,334.5C 427.921,329.661 430.088,324.994 432.5,320.5C 442.161,303.849 452.828,287.849 464.5,272.5C 469.5,266.833 474.833,261.5 480.5,256.5C 507.413,238.494 533.746,239.327 559.5,259C 563.369,263.037 567.369,266.87 571.5,270.5 Z"/></g>
<g><path style="opacity:1" fill="#0b0c0b" d="M 480.5,256.5 C 479.833,255.167 479.833,255.167 480.5,256.5 Z"/></g>
<g><path style="opacity:1" fill="#0b0c0b" d="M 468.5,264.5 C 469.833,265.167 469.833,265.167 468.5,264.5 Z"/></g>
<g><path style="opacity:1" fill="#0b0c0b" d="M 466.5,265.5 C 467.833,266.167 467.833,266.167 466.5,265.5 Z"/></g>
<g><path style="opacity:1" fill="#050c0b" d="M 571.5,269.5 C 572.833,270.167 572.833,270.167 571.5,269.5 Z"/></g>
<g><path style="opacity:1" fill="#0b0c0b" d="M 464.5,272.5 C 463.833,271.167 463.833,271.167 464.5,272.5 Z"/></g>
<g><path style="opacity:1" fill="#0b0c0b" d="M 444.5,296.5 C 445.833,297.167 445.833,297.167 444.5,296.5 Z"/></g>
<g><path style="opacity:1" fill="#0b0c0b" d="M 430.5,315.5 C 431.833,316.167 431.833,316.167 430.5,315.5 Z"/></g>
<g><path style="opacity:1" fill="#050c0b" d="M 432.5,320.5 C 431.833,319.167 431.833,319.167 432.5,320.5 Z"/></g>
<g><path style="opacity:1" fill="#0b0c05" d="M 427.5,320.5 C 428.833,321.167 428.833,321.167 427.5,320.5 Z"/></g>
<g><path style="opacity:1" fill="#0b0c0b" d="M 399.5,321.5 C 400.833,322.167 400.833,322.167 399.5,321.5 Z"/></g>
<g><path style="opacity:1" fill="#050c0b" d="M 609.5,321.5 C 610.833,322.167 610.833,322.167 609.5,321.5 Z"/></g>
<g><path style="opacity:1" fill="#0b0c0b" d="M 625.5,321.5 C 626.833,322.167 626.833,322.167 625.5,321.5 Z"/></g>
<g><path style="opacity:1" fill="#0b0c05" d="M 426.5,328.5 C 427.833,329.167 427.833,329.167 426.5,328.5 Z"/></g>
<g><path style="opacity:1" fill="#0b0c0b" d="M 641.5,329.5 C 642.833,330.167 642.833,330.167 641.5,329.5 Z"/></g>
<g><path style="opacity:1" fill="#0b0c0b" d="M 375.5,337.5 C 374.833,336.167 374.833,336.167 375.5,337.5 Z"/></g>
<g><path style="opacity:1" fill="#0b0c0b" d="M 420.5,346.5 C 421.833,347.167 421.833,347.167 420.5,346.5 Z"/></g>
<g><path style="opacity:1" fill="#0b0c0b" d="M 356.5,347.5 C 357.833,348.167 357.833,348.167 356.5,347.5 Z"/></g>
<g><path style="opacity:1" fill="#0b0c0b" d="M 420.5,347.5 C 419.833,348.167 419.833,348.167 420.5,347.5 Z"/></g>
<g><path style="opacity:1" fill="#0b0c0b" d="M 618.5,348.5 C 619.525,348.897 619.692,349.563 619,350.5C 618.536,349.906 618.369,349.239 618.5,348.5 Z"/></g>
<g><path style="opacity:1" fill="#0b0c0b" d="M 419.5,350.5 C 420.833,351.167 420.833,351.167 419.5,350.5 Z"/></g>
<g><path style="opacity:1" fill="#0b0c0b" d="M 358.5,353.5 C 359.833,354.167 359.833,354.167 358.5,353.5 Z"/></g>
<g><path style="opacity:1" fill="#0b0c0b" d="M 362.5,353.5 C 363.833,354.167 363.833,354.167 362.5,353.5 Z"/></g>
<g><path style="opacity:1" fill="#0b0c0b" d="M 618.5,358.5 C 619.525,358.897 619.692,359.563 619,360.5C 618.536,359.906 618.369,359.239 618.5,358.5 Z"/></g>
<g><path style="opacity:1" fill="#0b0c0b" d="M 352.5,359.5 C 353.833,360.167 353.833,360.167 352.5,359.5 Z"/></g>
<g><path style="opacity:1" fill="#11120b" d="M 419.5,361.5 C 418.833,360.167 418.833,360.167 419.5,361.5 Z"/></g>
<g><path style="opacity:1" fill="#0b0c0b" d="M 419.5,361.5 C 420.833,362.167 420.833,362.167 419.5,361.5 Z"/></g>
<g><path style="opacity:1" fill="#0b0c0b" d="M 419.5,363.5 C 420.833,364.167 420.833,364.167 419.5,363.5 Z"/></g>
<g><path style="opacity:1" fill="#0b0c11" d="M 338.5,375.5 C 339.833,376.167 339.833,376.167 338.5,375.5 Z"/></g>
<g><path style="opacity:1" fill="#0b0c0b" d="M 329.5,383.5 C 330.833,384.167 330.833,384.167 329.5,383.5 Z"/></g>
<g><path style="opacity:1" fill="#0b0c0b" d="M 694.5,392.5 C 695.833,393.167 695.833,393.167 694.5,392.5 Z"/></g>
<g><path style="opacity:1" fill="#212722" d="M 336.5,401.5 C 336.5,401.833 336.5,402.167 336.5,402.5C 336.672,403.492 336.338,404.158 335.5,404.5C 335.5,403.833 335.167,403.5 334.5,403.5C 334.833,402.5 335.5,401.833 336.5,401.5 Z"/></g>
<g><path style="opacity:1" fill="#0b0c0b" d="M 316.5,408.5 C 317.833,409.167 317.833,409.167 316.5,408.5 Z"/></g>
<g><path style="opacity:1" fill="#0b0c0b" d="M 695.5,417.5 C 696.833,418.167 696.833,418.167 695.5,417.5 Z"/></g>
<g><path style="opacity:1" fill="#0b0c0b" d="M 303.5,451.5 C 304.833,452.167 304.833,452.167 303.5,451.5 Z"/></g>
<g><path style="opacity:1" fill="#0b0c0b" d="M 300.5,456.5 C 301.833,457.167 301.833,457.167 300.5,456.5 Z"/></g>
<g><path style="opacity:1" fill="#0b0c0b" d="M 292.5,472.5 C 293.833,473.167 293.833,473.167 292.5,472.5 Z"/></g>
<g><path style="opacity:1" fill="#0b060b" d="M 291.5,474.5 C 292.833,475.167 292.833,475.167 291.5,474.5 Z"/></g>
<g><path style="opacity:1" fill="#0b0d0b" d="M 405.5,475.5 C 404.637,476.463 403.97,476.463 403.5,475.5C 404.257,474.227 404.923,474.227 405.5,475.5 Z"/></g>
<g><path style="opacity:1" fill="#11120b" d="M 616.5,476.5 C 617.833,477.167 617.833,477.167 616.5,476.5 Z"/></g>
<g><path style="opacity:1" fill="#0b0c05" d="M 403.5,478.5 C 404.833,479.167 404.833,479.167 403.5,478.5 Z"/></g>
<g><path style="opacity:1" fill="#0b0c0b" d="M 619.5,486.5 C 618.427,485.749 618.26,484.749 619,483.5C 619.483,484.448 619.649,485.448 619.5,486.5 Z"/></g>
<g><path style="opacity:1" fill="#0b0c0b" d="M 619.5,486.5 C 619.833,486.5 620.167,486.5 620.5,486.5C 620.315,487.17 619.981,487.17 619.5,486.5 Z"/></g>
<g><path style="opacity:1" fill="#0b0c0b" d="M 284.5,487.5 C 285.833,488.167 285.833,488.167 284.5,487.5 Z"/></g>
<g><path style="opacity:1" fill="#0b0c0b" d="M 614.5,488.5 C 615.525,488.897 615.692,489.563 615,490.5C 614.536,489.906 614.369,489.239 614.5,488.5 Z"/></g>
<g><path style="opacity:1" fill="#0b0c0b" d="M 400.5,490.5 C 401.833,491.167 401.833,491.167 400.5,490.5 Z"/></g>
<g><path style="opacity:1" fill="#0b0c0b" d="M 620.5,492.5 C 621.833,493.167 621.833,493.167 620.5,492.5 Z"/></g>
<g><path style="opacity:1" fill="#110c0b" d="M 395.5,507.5 C 396.833,508.167 396.833,508.167 395.5,507.5 Z"/></g>
<g><path style="opacity:1" fill="#0b0c0b" d="M 611.5,509.5 C 612.833,510.167 612.833,510.167 611.5,509.5 Z"/></g>
<g><path style="opacity:1" fill="#050c0b" d="M 396.5,511.5 C 395.833,510.167 395.833,510.167 396.5,511.5 Z"/></g>
<g><path style="opacity:1" fill="#0b0c0b" d="M 625.5,510.5 C 626.525,510.897 626.692,511.563 626,512.5C 625.536,511.906 625.369,511.239 625.5,510.5 Z"/></g>
<g><path style="opacity:1" fill="#0b0c0b" d="M 383.5,514.5 C 384.833,515.167 384.833,515.167 383.5,514.5 Z"/></g>
<g><path style="opacity:1" fill="#0b0c0b" d="M 626.5,516.5 C 627.525,516.897 627.692,517.563 627,518.5C 626.536,517.906 626.369,517.239 626.5,516.5 Z"/></g>
<g><path style="opacity:1" fill="#050c0b" d="M 390.5,517.5 C 391.833,518.167 391.833,518.167 390.5,517.5 Z"/></g>
<g><path style="opacity:1" fill="#100c0b" d="M 392.5,523.5 C 391.475,523.103 391.308,522.437 392,521.5C 392.464,522.094 392.631,522.761 392.5,523.5 Z"/></g>
<g><path style="opacity:1" fill="#0b0c0b" d="M 606.5,529.5 C 607.833,530.167 607.833,530.167 606.5,529.5 Z"/></g>
<g><path style="opacity:1" fill="#0b0c0b" d="M 642.5,530.5 C 643.833,531.167 643.833,531.167 642.5,530.5 Z"/></g>
<g><path style="opacity:1" fill="#0b0c11" d="M 631.5,531.5 C 632.833,532.167 632.833,532.167 631.5,531.5 Z"/></g>
<g><path style="opacity:1" fill="#0b0c0b" d="M 642.5,532.5 C 643.525,532.897 643.692,533.563 643,534.5C 642.536,533.906 642.369,533.239 642.5,532.5 Z"/></g>
<g><path style="opacity:1" fill="#111211" d="M 758.5,537.5 C 759.833,538.167 759.833,538.167 758.5,537.5 Z"/></g>
<g><path style="opacity:1" fill="#0b0c0b" d="M 633.5,538.5 C 634.833,539.167 634.833,539.167 633.5,538.5 Z"/></g>
<g><path style="opacity:1" fill="#111211" d="M 352.5,555.5 C 353.833,556.167 353.833,556.167 352.5,555.5 Z"/></g>
<g><path style="opacity:1" fill="#0b0c0b" d="M 256.5,558.5 C 257.833,559.167 257.833,559.167 256.5,558.5 Z"/></g>
<g><path style="opacity:1" fill="#111211" d="M 659.5,558.5 C 660.833,559.167 660.833,559.167 659.5,558.5 Z"/></g>
<g><path style="opacity:1" fill="#111211" d="M 764.5,558.5 C 763.833,559.167 763.833,559.167 764.5,558.5 Z"/></g>
<g><path style="opacity:1" fill="#0b0c11" d="M 239.5,560.5 C 240.833,561.167 240.833,561.167 239.5,560.5 Z"/></g>
<g><path style="opacity:1" fill="#0b0c0b" d="M 353.5,562.5 C 354.525,562.897 354.692,563.563 354,564.5C 353.536,563.906 353.369,563.239 353.5,562.5 Z"/></g>
<g><path style="opacity:1" fill="#111211" d="M 768.5,562.5 C 769.833,563.167 769.833,563.167 768.5,562.5 Z"/></g>
<g><path style="opacity:1" fill="#111211" d="M 774.5,563.5 C 775.525,563.897 775.692,564.563 775,565.5C 774.536,564.906 774.369,564.239 774.5,563.5 Z"/></g>
<g><path style="opacity:1" fill="#0b0c0a" d="M 660.5,563.5 C 661.525,563.897 661.692,564.563 661,565.5C 660.536,564.906 660.369,564.239 660.5,563.5 Z"/></g>
<g><path style="opacity:1" fill="#0b0c0b" d="M 354.5,566.5 C 355.833,567.167 355.833,567.167 354.5,566.5 Z"/></g>
<g><path style="opacity:1" fill="#0b120b" d="M 457.5,569.5 C 458.833,570.167 458.833,570.167 457.5,569.5 Z"/></g>
<g><path style="opacity:1" fill="#0b0c0b" d="M 630.5,569.5 C 631.833,570.167 631.833,570.167 630.5,569.5 Z"/></g>
<g><path style="opacity:1" fill="#0b0c0b" d="M 449.5,570.5 C 450.833,571.167 450.833,571.167 449.5,570.5 Z"/></g>
<g><path style="opacity:1" fill="#0b0c0b" d="M 356.5,572.5 C 355.833,571.167 355.833,571.167 356.5,572.5 Z"/></g>
<g><path style="opacity:1" fill="#0b0c0b" d="M 649.5,571.5 C 650.833,572.167 650.833,572.167 649.5,571.5 Z"/></g>
<g><path style="opacity:1" fill="#0b0c0b" d="M 356.5,572.5 C 357.833,573.167 357.833,573.167 356.5,572.5 Z"/></g>
<g><path style="opacity:1" fill="#110c0b" d="M 469.5,572.5 C 470.833,573.167 470.833,573.167 469.5,572.5 Z"/></g>
<g><path style="opacity:1" fill="#0b0c0b" d="M 654.5,572.5 C 655.833,573.167 655.833,573.167 654.5,572.5 Z"/></g>
<g><path style="opacity:1" fill="#0b0c0b" d="M 472.5,573.5 C 473.833,574.167 473.833,574.167 472.5,573.5 Z"/></g>
<g><path style="opacity:1" fill="#110c0b" d="M 652.5,573.5 C 653.833,574.167 653.833,574.167 652.5,573.5 Z"/></g>
<g><path style="opacity:1" fill="#0b0c0b" d="M 466.5,576.5 C 466.369,575.761 466.536,575.094 467,574.5C 467.692,575.437 467.525,576.103 466.5,576.5 Z"/></g>
<g><path style="opacity:1" fill="#050c05" d="M 476.5,574.5 C 475.833,575.167 475.833,575.167 476.5,574.5 Z"/></g>
<g><path style="opacity:1" fill="#0b0c11" d="M 248.5,576.5 C 247.833,575.167 247.833,575.167 248.5,576.5 Z"/></g>
<g><path style="opacity:1" fill="#0b120b" d="M 586.5,576.5 C 587.833,577.167 587.833,577.167 586.5,576.5 Z"/></g>
<g><path style="opacity:1" fill="#050c0b" d="M 589.5,578.5 C 588.833,577.167 588.833,577.167 589.5,578.5 Z"/></g>
<g><path style="opacity:1" fill="#0b100b" d="M 482.5,578.5 C 482.103,579.525 481.437,579.692 480.5,579C 481.094,578.536 481.761,578.369 482.5,578.5 Z"/></g>
<g><path style="opacity:1" fill="#0b0c0b" d="M 635.5,578.5 C 636.833,579.167 636.833,579.167 635.5,578.5 Z"/></g>
<g><path style="opacity:1" fill="#0a0a0b" d="M 360.5,581.5 C 360.631,582.239 360.464,582.906 360,583.5C 359.308,582.563 359.475,581.897 360.5,581.5 Z"/></g>
<g><path style="opacity:1" fill="#111211" d="M 584.5,584.5 C 583.833,583.167 583.833,583.167 584.5,584.5 Z"/></g>
<g><path style="opacity:1" fill="#0b0c0b" d="M 496.5,594.5 C 495.833,593.167 495.833,593.167 496.5,594.5 Z"/></g>
<g><path style="opacity:1" fill="#0b120b" d="M 496.5,594.5 C 496.833,594.5 497.167,594.5 497.5,594.5C 497.315,595.17 496.981,595.17 496.5,594.5 Z"/></g>
<g><path style="opacity:1" fill="#1b1d1c" d="M 572.5,594.5 C 571.852,597.323 570.186,598.823 567.5,599C 569.037,597.293 570.704,595.793 572.5,594.5 Z"/></g>
<g><path style="opacity:1" fill="#100e10" d="M 772.5,598.5 C 772.369,597.761 772.536,597.094 773,596.5C 773.692,597.437 773.525,598.103 772.5,598.5 Z"/></g>
<g><path style="opacity:1" fill="#111211" d="M 775.5,597.5 C 774.833,598.167 774.833,598.167 775.5,597.5 Z"/></g>
<g><path style="opacity:1" fill="#0b0c0b" d="M 499.5,600.5 C 500.833,601.167 500.833,601.167 499.5,600.5 Z"/></g>
<g><path style="opacity:1" fill="#11120b" d="M 774.5,600.5 C 775.833,601.167 775.833,601.167 774.5,600.5 Z"/></g>
<g><path style="opacity:1" fill="#11120b" d="M 776.5,600.5 C 777.833,601.167 777.833,601.167 776.5,600.5 Z"/></g>
<g><path style="opacity:1" fill="#111211" d="M 244.5,602.5 C 245.833,603.167 245.833,603.167 244.5,602.5 Z"/></g>
<g><path style="opacity:1" fill="#0b0c0b" d="M 675.5,618.5 C 676.833,619.167 676.833,619.167 675.5,618.5 Z"/></g>
<g><path style="opacity:1" fill="#1c1d1d" d="M 340.5,620.5 C 339.167,621.167 339.167,621.833 340.5,622.5C 339.699,624.042 339.366,625.708 339.5,627.5C 338.359,624.36 338.192,621.027 339,617.5C 339.513,618.527 340.013,619.527 340.5,620.5 Z"/></g>
<g><path style="opacity:1" fill="#110e0b" d="M 666.5,620.5 C 667.525,620.897 667.692,621.563 667,622.5C 666.536,621.906 666.369,621.239 666.5,620.5 Z"/></g>
<g><path style="opacity:1" fill="#0b0c0b" d="M 503.5,626.5 C 504.833,627.167 504.833,627.167 503.5,626.5 Z"/></g>
<g><path style="opacity:1" fill="#0b0c0b" d="M 363.5,629.5 C 364.833,630.167 364.833,630.167 363.5,629.5 Z"/></g>
<g><path style="opacity:1" fill="#0b0c0b" d="M 506.5,632.5 C 507.833,633.167 507.833,633.167 506.5,632.5 Z"/></g>
<g><path style="opacity:1" fill="#0b120b" d="M 679.5,637.5 C 680.833,638.167 680.833,638.167 679.5,637.5 Z"/></g>
<g><path style="opacity:1" fill="#0b0c0b" d="M 680.5,640.5 C 681.833,641.167 681.833,641.167 680.5,640.5 Z"/></g>
<g><path style="opacity:1" fill="#0b0c0b" d="M 505.5,641.5 C 506.525,641.897 506.692,642.563 506,643.5C 505.536,642.906 505.369,642.239 505.5,641.5 Z"/></g>
<g><path style="opacity:1" fill="#1a1e1e" d="M 695.5,645.5 C 694.833,646.167 694.167,646.833 693.5,647.5C 693.337,645.143 693.503,642.81 694,640.5C 694.352,642.247 694.852,643.914 695.5,645.5 Z"/></g>
<g><path style="opacity:1" fill="#0b0c0b" d="M 502.5,649.5 C 503.833,650.167 503.833,650.167 502.5,649.5 Z"/></g>
<g><path style="opacity:1" fill="#0b0c0b" d="M 504.5,649.5 C 505.833,650.167 505.833,650.167 504.5,649.5 Z"/></g>
<g><path style="opacity:1" fill="#0b120b" d="M 502.5,664.5 C 501.833,663.167 501.833,663.167 502.5,664.5 Z"/></g>
<g><path style="opacity:1" fill="#0b0c0b" d="M 240.5,664.5 C 241.833,665.167 241.833,665.167 240.5,664.5 Z"/></g>
<g><path style="opacity:1" fill="#11100b" d="M 501.5,664.5 C 501.217,665.289 500.717,665.956 500,666.5C 499.472,665.184 499.972,664.517 501.5,664.5 Z"/></g>
<g><path style="opacity:1" fill="#0b0c0b" d="M 240.5,666.5 C 241.833,667.167 241.833,667.167 240.5,666.5 Z"/></g>
<g><path style="opacity:1" fill="#10120b" d="M 498.5,668.5 C 498.897,667.475 499.563,667.308 500.5,668C 499.906,668.464 499.239,668.631 498.5,668.5 Z"/></g>
<g><path style="opacity:1" fill="#0b0c0b" d="M 699.5,667.5 C 700.833,668.167 700.833,668.167 699.5,667.5 Z"/></g>
<g><path style="opacity:1" fill="#0b0c0b" d="M 700.5,669.5 C 701.833,670.167 701.833,670.167 700.5,669.5 Z"/></g>
<g><path style="opacity:1" fill="#0b120b" d="M 369.5,670.5 C 370.833,671.167 370.833,671.167 369.5,670.5 Z"/></g>
<g><path style="opacity:1" fill="#0b0e0e" d="M 499.5,669.5 C 500.525,669.897 500.692,670.563 500,671.5C 499.536,670.906 499.369,670.239 499.5,669.5 Z"/></g>
<g><path style="opacity:1" fill="#0b120b" d="M 498.5,673.5 C 499.833,674.167 499.833,674.167 498.5,673.5 Z"/></g>
<g><path style="opacity:1" fill="#171817" d="M 328.5,683.5 C 328.44,684.043 328.107,684.376 327.5,684.5C 326.833,680.353 326.166,676.353 325.5,672.5C 325.413,669.402 325.913,669.068 327,671.5C 327.176,675.688 327.676,679.688 328.5,683.5 Z"/></g>
<g><path style="opacity:1" fill="#242523" d="M 515.5,677.5 C 515.672,676.508 515.338,675.842 514.5,675.5C 514.783,674.711 515.283,674.044 516,673.5C 516.765,675.066 516.598,676.399 515.5,677.5 Z"/></g>
<g><path style="opacity:1" fill="#0b0c0b" d="M 495.5,677.5 C 496.833,678.167 496.833,678.167 495.5,677.5 Z"/></g>
<g><path style="opacity:1" fill="#0b1211" d="M 371.5,678.5 C 372.833,679.167 372.833,679.167 371.5,678.5 Z"/></g>
<g><path style="opacity:1" fill="#0b0c0b" d="M 511.5,678.5 C 512.833,679.167 512.833,679.167 511.5,678.5 Z"/></g>
<g><path style="opacity:1" fill="#0b120b" d="M 705.5,682.5 C 704.833,681.167 704.833,681.167 705.5,682.5 Z"/></g>
<g><path style="opacity:1" fill="#0b0c0b" d="M 494.5,682.5 C 495.833,683.167 495.833,683.167 494.5,682.5 Z"/></g>
<g><path style="opacity:1" fill="#0b0c0b" d="M 705.5,682.5 C 705.833,682.5 706.167,682.5 706.5,682.5C 706.167,685.167 705.833,685.167 705.5,682.5 Z"/></g>
<g><path style="opacity:1" fill="#0b0c0b" d="M 244.5,684.5 C 245.833,685.167 245.833,685.167 244.5,684.5 Z"/></g>
<g><path style="opacity:1" fill="#0b0c0b" d="M 378.5,697.5 C 378.649,698.552 378.483,699.552 378,700.5C 377.26,699.251 377.427,698.251 378.5,697.5 Z"/></g>
<g><path style="opacity:1" fill="#0b0c0b" d="M 244.5,699.5 C 245.833,700.167 245.833,700.167 244.5,699.5 Z"/></g>
<g><path style="opacity:1" fill="#0b0c0b" d="M 787.5,703.5 C 788.833,704.167 788.833,704.167 787.5,703.5 Z"/></g>
<g><path style="opacity:1" fill="#11120b" d="M 581.5,707.5 C 582.833,708.167 582.833,708.167 581.5,707.5 Z"/></g>
<g><path style="opacity:1" fill="#0b0c0b" d="M 511.5,708.5 C 512.833,709.167 512.833,709.167 511.5,708.5 Z"/></g>
<g><path style="opacity:1" fill="#0b120b" d="M 243.5,709.5 C 244.833,710.167 244.833,710.167 243.5,709.5 Z"/></g>
<g><path style="opacity:1" fill="#11120b" d="M 715.5,710.5 C 716.833,711.167 716.833,711.167 715.5,710.5 Z"/></g>
<g><path style="opacity:1" fill="#0b0c0b" d="M 600.5,711.5 C 601.833,712.167 601.833,712.167 600.5,711.5 Z"/></g>
<g><path style="opacity:1" fill="#0b0c0b" d="M 609.5,714.5 C 609.897,713.475 610.563,713.308 611.5,714C 610.906,714.464 610.239,714.631 609.5,714.5 Z"/></g>
<g><path style="opacity:1" fill="#0b0c0b" d="M 716.5,716.5 C 717.833,717.167 717.833,717.167 716.5,716.5 Z"/></g>
<g><path style="opacity:1" fill="#111211" d="M 241.5,719.5 C 242.833,720.167 242.833,720.167 241.5,719.5 Z"/></g>
<g><path style="opacity:1" fill="#0b1211" d="M 626.5,719.5 C 627.833,720.167 627.833,720.167 626.5,719.5 Z"/></g>
<g><path style="opacity:1" fill="#0b120b" d="M 241.5,722.5 C 242.833,723.167 242.833,723.167 241.5,722.5 Z"/></g>
<g><path style="opacity:1" fill="#0b0c0b" d="M 385.5,722.5 C 386.833,723.167 386.833,723.167 385.5,722.5 Z"/></g>
<g><path style="opacity:1" fill="#050c0b" d="M 478.5,727.5 C 479.833,728.167 479.833,728.167 478.5,727.5 Z"/></g>
<g><path style="opacity:1" fill="#0b0c0b" d="M 703.5,729.5 C 704.833,730.167 704.833,730.167 703.5,729.5 Z"/></g>
<g><path style="opacity:1" fill="#0b0c0b" d="M 793.5,730.5 C 794.833,731.167 794.833,731.167 793.5,730.5 Z"/></g>
<g><path style="opacity:1" fill="#0b0c0b" d="M 386.5,732.5 C 387.833,733.167 387.833,733.167 386.5,732.5 Z"/></g>
<g><path style="opacity:1" fill="#0b0c0b" d="M 385.5,738.5 C 386.833,739.167 386.833,739.167 385.5,738.5 Z"/></g>
<g><path style="opacity:1" fill="#0b0c0b" d="M 514.5,740.5 C 515.833,741.167 515.833,741.167 514.5,740.5 Z"/></g>
<g><path style="opacity:1" fill="#0b0c0b" d="M 542.5,746.5 C 542.897,745.475 543.563,745.308 544.5,746C 543.906,746.464 543.239,746.631 542.5,746.5 Z"/></g>
<g><path style="opacity:1" fill="#0b0c0b" d="M 546.5,746.5 C 547.251,745.427 548.251,745.26 549.5,746C 548.552,746.483 547.552,746.649 546.5,746.5 Z"/></g>
<g><path style="opacity:1" fill="#0b0c0b" d="M 608.5,745.5 C 607.833,746.167 607.833,746.167 608.5,745.5 Z"/></g>
<g><path style="opacity:1" fill="#0b0c0b" d="M 601.5,746.5 C 602.833,747.167 602.833,747.167 601.5,746.5 Z"/></g>
<g><path style="opacity:1" fill="#111211" d="M 640.5,746.5 C 641.833,747.167 641.833,747.167 640.5,746.5 Z"/></g>
<g><path style="opacity:1" fill="#0b0c0b" d="M 618.5,749.5 C 619.833,750.167 619.833,750.167 618.5,749.5 Z"/></g>
<g><path style="opacity:1" fill="#0b0c0b" d="M 593.5,754.5 C 594.833,755.167 594.833,755.167 593.5,754.5 Z"/></g>
<g><path style="opacity:1" fill="#0b120b" d="M 717.5,754.5 C 716.833,755.167 716.833,755.167 717.5,754.5 Z"/></g>
<g><path style="opacity:1" fill="#101211" d="M 385.5,754.5 C 385.631,755.239 385.464,755.906 385,756.5C 384.308,755.563 384.475,754.897 385.5,754.5 Z"/></g>
<g><path style="opacity:1" fill="#11120b" d="M 466.5,758.5 C 467.833,759.167 467.833,759.167 466.5,758.5 Z"/></g>
<g><path style="opacity:1" fill="#0b0c0b" d="M 492.5,762.5 C 491.833,763.167 491.833,763.167 492.5,762.5 Z"/></g>
<g><path style="opacity:1" fill="#0b0c0b" d="M 401.5,763.5 C 402.833,764.167 402.833,764.167 401.5,763.5 Z"/></g>
<g><path style="opacity:1" fill="#0b120b" d="M 240.5,764.5 C 241.833,765.167 241.833,765.167 240.5,764.5 Z"/></g>
<g><path style="opacity:1" fill="#11120b" d="M 496.5,769.5 C 495.833,770.167 495.833,770.167 496.5,769.5 Z"/></g>
<g><path style="opacity:1" fill="#111211" d="M 241.5,770.5 C 242.833,771.167 242.833,771.167 241.5,770.5 Z"/></g>
<g><path style="opacity:1" fill="#0b0c0b" d="M 448.5,771.5 C 449.833,772.167 449.833,772.167 448.5,771.5 Z"/></g>
<g><path style="opacity:1" fill="#0b0c0b" d="M 689.5,771.5 C 688.833,772.167 688.833,772.167 689.5,771.5 Z"/></g>
<g><path style="opacity:1" fill="#0b0c0b" d="M 471.5,772.5 C 472.833,773.167 472.833,773.167 471.5,772.5 Z"/></g>
<g><path style="opacity:1" fill="#0b0c0b" d="M 316.5,780.5 C 317.833,781.167 317.833,781.167 316.5,780.5 Z"/></g>
<g><path style="opacity:1" fill="#111211" d="M 777.5,780.5 C 778.833,781.167 778.833,781.167 777.5,780.5 Z"/></g>
<g><path style="opacity:1" fill="#11120b" d="M 258.5,781.5 C 259.833,782.167 259.833,782.167 258.5,781.5 Z"/></g>
<g><path style="opacity:1" fill="#0b0c0b" d="M 274.5,781.5 C 275.833,782.167 275.833,782.167 274.5,781.5 Z"/></g>
<g><path style="opacity:1" fill="#0b0c0b" d="M 299.5,781.5 C 300.833,782.167 300.833,782.167 299.5,781.5 Z"/></g>
<g><path style="opacity:1" fill="#0b060b" d="M 722.5,781.5 C 723.833,782.167 723.833,782.167 722.5,781.5 Z"/></g>
<g><path style="opacity:1" fill="#0b080b" d="M 732.5,782.5 C 732.897,781.475 733.563,781.308 734.5,782C 733.906,782.464 733.239,782.631 732.5,782.5 Z"/></g>
<g><path style="opacity:1" fill="#171b18" d="M 746.5,781.5 C 748.833,781.5 751.167,781.5 753.5,781.5C 753.631,782.239 753.464,782.906 753,783.5C 750.723,782.883 748.556,782.216 746.5,781.5 Z"/></g>
<g><path style="opacity:1" fill="#0b0c0b" d="M 308.5,782.5 C 309.833,783.167 309.833,783.167 308.5,782.5 Z"/></g>
<g><path style="opacity:1" fill="#0b0c0b" d="M 732.5,782.5 C 731.833,783.167 731.833,783.167 732.5,782.5 Z"/></g>
<g><path style="opacity:1" fill="#0b0c0b" d="M 755.5,783.5 C 755.897,782.475 756.563,782.308 757.5,783C 756.906,783.464 756.239,783.631 755.5,783.5 Z"/></g>
<g><path style="opacity:1" fill="#0b0c0b" d="M 764.5,782.5 C 765.833,783.167 765.833,783.167 764.5,782.5 Z"/></g>
<g><path style="opacity:1" fill="#1e1f1e" d="M 307.5,933.5 C 308.833,934.167 308.833,934.167 307.5,933.5 Z"/></g>
</svg>
