<?xml version="1.0" encoding="UTF-8"?>
<!DOCTYPE svg PUBLIC "-//W3C//DTD SVG 1.1//EN" "http://www.w3.org/Graphics/SVG/1.1/DTD/svg11.dtd">
<svg xmlns="http://www.w3.org/2000/svg" version="1.1" width="1024px" height="1024px" style="shape-rendering:geometricPrecision; text-rendering:geometricPrecision; image-rendering:optimizeQuality; fill-rule:evenodd; clip-rule:evenodd" xmlns:xlink="http://www.w3.org/1999/xlink">
<g><path style="opacity:1" fill="#434443" d="M 259.5,141.5 C 260.833,142.167 260.833,142.167 259.5,141.5 Z"/></g>
<g><path style="opacity:1" fill="#000000" d="M 666.5,379.5 C 663.535,432.855 645.701,481.188 613,524.5C 601.762,537.74 589.262,549.573 575.5,560C 564.962,569.893 564.962,579.893 575.5,590C 578.948,591.927 582.615,593.261 586.5,594C 597.273,592.81 606.44,595.977 614,603.5C 619.26,611.268 619.76,619.268 615.5,627.5C 614.5,628.833 613.5,628.833 612.5,627.5C 611.869,620.704 608.869,615.204 603.5,611C 602.241,610.018 600.908,609.685 599.5,610C 607.41,616.571 609.576,624.738 606,634.5C 604.77,637.732 602.77,640.399 600,642.5C 598.365,631.402 593.198,622.235 584.5,615C 583.833,614.333 583.167,614.333 582.5,615C 587.63,622.748 586.796,629.915 580,636.5C 576.897,626.566 570.731,619.233 561.5,614.5C 555.284,609.472 548.617,604.972 541.5,601C 537.367,597.869 533.534,594.369 530,590.5C 525.136,592.009 520.303,594.343 515.5,597.5C 518.293,600.729 521.627,603.229 525.5,605C 533.75,607.32 542.083,609.32 550.5,611C 562.696,618.598 565.863,629.098 560,642.5C 554.795,648.459 553.295,647.626 555.5,640C 555.139,632.944 552.139,627.277 546.5,623C 544.956,621.813 543.289,621.48 541.5,622C 550.377,628.072 552.877,636.239 549,646.5C 547.579,649.009 545.912,651.343 544,653.5C 544.681,647.364 542.515,642.531 537.5,639C 522.786,629.358 507.786,629.025 492.5,638C 488.829,641.171 485.496,644.671 482.5,648.5C 479.43,645.146 477.596,641.146 477,636.5C 476.744,633.443 476.244,630.443 475.5,627.5C 476.243,626.818 476.909,626.151 477.5,625.5C 480.763,620.344 485.429,616.844 491.5,615C 486.595,614.518 482.095,615.685 478,618.5C 470.884,639.063 461.884,658.73 451,677.5C 443.707,688.293 434.874,697.626 424.5,705.5C 430.486,692.521 435.652,679.188 440,665.5C 441.116,662.18 441.783,658.847 442,655.5C 439.544,660.741 437.377,666.075 435.5,671.5C 427.695,688.934 417.029,704.434 403.5,718C 395.946,724.448 387.279,728.115 377.5,729C 384.615,721.209 390.115,712.375 394,702.5C 394.991,700.553 395.325,698.553 395,696.5C 388.888,707.078 382.055,717.078 374.5,726.5C 371.5,728.833 368.833,731.5 366.5,734.5C 359.697,740.307 352.364,745.307 344.5,749.5C 343.662,749.158 343.328,748.492 343.5,747.5C 347.289,740.088 350.956,732.588 354.5,725C 354.389,723.278 353.889,723.112 353,724.5C 349.49,729.529 345.99,734.529 342.5,739.5C 342.167,739.5 341.833,739.5 341.5,739.5C 340.662,739.158 340.328,738.492 340.5,737.5C 342.779,731.94 344.779,726.274 346.5,720.5C 356.68,693.473 365.18,665.807 372,637.5C 372.707,635.919 373.54,634.419 374.5,633C 378.597,630.63 382.264,627.797 385.5,624.5C 394.313,618.588 402.98,612.422 411.5,606C 453.629,592.608 491.629,571.941 525.5,544C 526.167,543.333 526.833,543.333 527.5,544C 525.709,546.414 524.043,548.914 522.5,551.5C 522.833,551.833 523.167,552.167 523.5,552.5C 528.229,549.806 532.896,547.14 537.5,544.5C 575.636,527.863 601.47,499.863 615,460.5C 615.995,457.874 616.328,455.207 616,452.5C 610.957,466.007 604.457,478.674 596.5,490.5C 579.482,511.522 559.149,528.522 535.5,541.5C 533.61,541.297 532.11,541.963 531,543.5C 530.333,542.5 530.333,541.5 531,540.5C 536.795,534.108 541.462,527.441 545,520.5C 546.187,518.956 546.52,517.289 546,515.5C 522.704,538.706 496.871,558.372 468.5,574.5C 455.732,580.301 442.898,585.967 430,591.5C 429.51,590.207 429.343,588.873 429.5,587.5C 430.552,587.649 431.552,587.483 432.5,587C 438.79,581.551 444.124,575.385 448.5,568.5C 451.811,565.215 454.645,561.548 457,557.5C 457.982,556.241 458.315,554.908 458,553.5C 442.349,569.651 426.182,585.317 409.5,600.5C 400.716,606.402 392.049,612.569 383.5,619C 381.956,620.187 380.289,620.52 378.5,620C 387.101,608.802 394.435,596.802 400.5,584C 399.944,583.617 399.611,583.117 399.5,582.5C 393.479,589.861 387.813,597.528 382.5,605.5C 372.272,617.902 361.439,629.902 350,641.5C 351.575,625.523 354.909,609.856 360,594.5C 365.03,581.226 370.53,568.226 376.5,555.5C 383.741,544.349 389.908,532.682 395,520.5C 384.69,533.645 374.19,546.645 363.5,559.5C 370.952,523.223 382.119,486.89 397,450.5C 406.586,429.636 418.419,410.303 432.5,392.5C 440.167,384.167 448.167,376.167 456.5,368.5C 469.413,359.21 483.08,351.21 497.5,344.5C 493.493,343.542 489.66,344.209 486,346.5C 485.5,346 485,345.5 484.5,345C 490.13,336.911 495.13,328.411 499.5,319.5C 499.333,319.167 499.167,318.833 499,318.5C 495.354,321.816 492.021,325.482 489,329.5C 490.048,305.019 498.548,283.519 514.5,265C 504.792,259.63 498.459,251.63 495.5,241C 495.833,240.5 496.167,240 496.5,239.5C 499.178,242.67 502.511,244.503 506.5,245C 502.36,242.179 499.027,238.679 496.5,234.5C 492.758,226.855 491.758,218.855 493.5,210.5C 499.282,216.557 505.949,221.391 513.5,225C 526.496,231.332 539.829,236.832 553.5,241.5C 584.111,232.122 613.944,234.122 643,247.5C 662.107,245.127 679.274,238.961 694.5,229C 703.14,218.341 705.64,219.841 702,233.5C 700.826,245.319 694.993,253.819 684.5,259C 688.609,259.353 692.276,258.186 695.5,255.5C 696.408,256.79 696.241,258.123 695,259.5C 689.316,268.854 681.482,275.688 671.5,280C 682.863,302.202 685.697,325.035 680,348.5C 678.973,344.392 677.64,340.392 676,336.5C 676.97,353.375 674.636,370.041 669,386.5C 668.637,381.047 667.637,375.714 666,370.5C 665.699,373.507 665.865,376.507 666.5,379.5 Z M 497.5,344.5 C 497.791,343.351 498.624,342.684 500,342.5C 500.833,342.667 501.667,342.833 502.5,343C 500.975,344.009 499.308,344.509 497.5,344.5 Z M 607.5,366.5 C 621.615,368.561 631.448,376.561 637,390.5C 642.099,404.612 642.433,419.278 638,434.5C 640.278,414.549 635.945,396.216 625,379.5C 620.266,373.563 614.432,369.23 607.5,366.5 Z M 401.5,579.5 C 401.715,581.179 401.048,582.179 399.5,582.5C 399.932,581.29 400.599,580.29 401.5,579.5 Z"/></g>
<g><path style="opacity:1" fill="#111211" d="M 490.5,216.5 C 491.833,217.167 491.833,217.167 490.5,216.5 Z"/></g>
<g><path style="opacity:1" fill="#050605" d="M 584.5,233.5 C 585.833,234.167 585.833,234.167 584.5,233.5 Z"/></g>
<g><path style="opacity:1" fill="#050605" d="M 590.5,234.5 C 590.897,233.475 591.563,233.308 592.5,234C 591.906,234.464 591.239,234.631 590.5,234.5 Z"/></g>
<g><path style="opacity:1" fill="#050605" d="M 496.5,234.5 C 495.833,235.167 495.833,235.167 496.5,234.5 Z"/></g>
<g><path style="opacity:1" fill="#050605" d="M 663.5,240.5 C 664.833,241.167 664.833,241.167 663.5,240.5 Z"/></g>
<g><path style="opacity:1" fill="#050605" d="M 660.5,242.5 C 660.897,241.475 661.563,241.308 662.5,242C 661.906,242.464 661.239,242.631 660.5,242.5 Z"/></g>
<g><path style="opacity:1" fill="#050605" d="M 495.5,246.5 C 496.833,247.167 496.833,247.167 495.5,246.5 Z"/></g>
<g><path style="opacity:1" fill="#050605" d="M 500.5,280.5 C 501.833,281.167 501.833,281.167 500.5,280.5 Z"/></g>
<g><path style="opacity:1" fill="#313231" d="M 275.5,333.5 C 276.833,334.167 276.833,334.167 275.5,333.5 Z"/></g>
<g><path style="opacity:1" fill="#000006" d="M 456.5,368.5 C 455.833,367.167 455.833,367.167 456.5,368.5 Z"/></g>
<g><path style="opacity:1" fill="#050605" d="M 441.5,375.5 C 442.833,376.167 442.833,376.167 441.5,375.5 Z"/></g>
<g><path style="opacity:1" fill="#050605" d="M 666.5,379.5 C 667.525,379.897 667.692,380.563 667,381.5C 666.536,380.906 666.369,380.239 666.5,379.5 Z"/></g>
<g><path style="opacity:1" fill="#000006" d="M 432.5,392.5 C 431.833,391.167 431.833,391.167 432.5,392.5 Z"/></g>
<g><path style="opacity:1" fill="#050605" d="M 391.5,458.5 C 392.833,459.167 392.833,459.167 391.5,458.5 Z"/></g>
<g><path style="opacity:1" fill="#050006" d="M 607.5,474.5 C 608.833,475.167 608.833,475.167 607.5,474.5 Z"/></g>
<g><path style="opacity:1" fill="#050006" d="M 596.5,490.5 C 597.833,491.167 597.833,491.167 596.5,490.5 Z"/></g>
<g><path style="opacity:1" fill="#08060a" d="M 370.5,520.5 C 371.525,520.897 371.692,521.563 371,522.5C 370.536,521.906 370.369,521.239 370.5,520.5 Z"/></g>
<g><path style="opacity:1" fill="#050605" d="M 535.5,541.5 C 536.833,542.167 536.833,542.167 535.5,541.5 Z"/></g>
<g><path style="opacity:1" fill="#050605" d="M 528.5,543.5 C 529.833,544.167 529.833,544.167 528.5,543.5 Z"/></g>
<g><path style="opacity:1" fill="#050605" d="M 537.5,544.5 C 536.761,544.631 536.094,544.464 535.5,544C 536.437,543.308 537.103,543.475 537.5,544.5 Z"/></g>
<g><path style="opacity:1" fill="#050605" d="M 376.5,555.5 C 375.833,554.167 375.833,554.167 376.5,555.5 Z"/></g>
<g><path style="opacity:1" fill="#000006" d="M 448.5,568.5 C 447.833,567.167 447.833,567.167 448.5,568.5 Z"/></g>
<g><path style="opacity:1" fill="#050605" d="M 367.5,570.5 C 368.833,571.167 368.833,571.167 367.5,570.5 Z"/></g>
<g><path style="opacity:1" fill="#000600" d="M 468.5,574.5 C 469.833,575.167 469.833,575.167 468.5,574.5 Z"/></g>
<g><path style="opacity:1" fill="#050006" d="M 440.5,575.5 C 441.833,576.167 441.833,576.167 440.5,575.5 Z"/></g>
<g><path style="opacity:1" fill="#000000" d="M 457.5,585.5 C 458.833,586.167 458.833,586.167 457.5,585.5 Z"/></g>
<g><path style="opacity:1" fill="#050605" d="M 600.5,593.5 C 601.833,594.167 601.833,594.167 600.5,593.5 Z"/></g>
<g><path style="opacity:1" fill="#050600" d="M 409.5,600.5 C 410.833,601.167 410.833,601.167 409.5,600.5 Z"/></g>
<g><path style="opacity:1" fill="#050006" d="M 382.5,605.5 C 383.833,606.167 383.833,606.167 382.5,605.5 Z"/></g>
<g><path style="opacity:1" fill="#050600" d="M 401.5,610.5 C 402.833,611.167 402.833,611.167 401.5,610.5 Z"/></g>
<g><path style="opacity:1" fill="#050605" d="M 561.5,614.5 C 560.833,615.167 560.833,615.167 561.5,614.5 Z"/></g>
<g><path style="opacity:1" fill="#050006" d="M 568.5,621.5 C 569.833,622.167 569.833,622.167 568.5,621.5 Z"/></g>
<g><path style="opacity:1" fill="#050605" d="M 377.5,623.5 C 378.833,624.167 378.833,624.167 377.5,623.5 Z"/></g>
<g><path style="opacity:1" fill="#050605" d="M 385.5,624.5 C 384.833,623.167 384.833,623.167 385.5,624.5 Z"/></g>
<g><path style="opacity:1" fill="#050600" d="M 477.5,625.5 C 476.833,624.167 476.833,624.167 477.5,625.5 Z"/></g>
<g><path style="opacity:1" fill="#050605" d="M 474.5,632.5 C 475.833,633.167 475.833,633.167 474.5,632.5 Z"/></g>
<g><path style="opacity:1" fill="#050a08" d="M 576.5,631.5 C 577.525,631.897 577.692,632.563 577,633.5C 576.536,632.906 576.369,632.239 576.5,631.5 Z"/></g>
<g><path style="opacity:1" fill="#0b0a0b" d="M 578.5,638.5 C 578.897,637.475 579.563,637.308 580.5,638C 579.906,638.464 579.239,638.631 578.5,638.5 Z"/></g>
<g><path style="opacity:1" fill="#050601" d="M 435.5,671.5 C 436.525,671.897 436.692,672.563 436,673.5C 435.536,672.906 435.369,672.239 435.5,671.5 Z"/></g>
<g><path style="opacity:1" fill="#050605" d="M 421.5,698.5 C 422.833,699.167 422.833,699.167 421.5,698.5 Z"/></g>
<g><path style="opacity:1" fill="#0b0c0b" d="M 424.5,705.5 C 423.833,706.167 423.833,706.167 424.5,705.5 Z"/></g>
<g><path style="opacity:1" fill="#181218" d="M 346.5,720.5 C 345.833,719.167 345.833,719.167 346.5,720.5 Z"/></g>
<g><path style="opacity:1" fill="#05060c" d="M 374.5,726.5 C 375.833,727.167 375.833,727.167 374.5,726.5 Z"/></g>
<g><path style="opacity:1" fill="#0b0c0b" d="M 366.5,734.5 C 367.833,735.167 367.833,735.167 366.5,734.5 Z"/></g>
<g><path style="opacity:1" fill="#202020" d="M 338.5,739.5 C 337.761,739.631 337.094,739.464 336.5,739C 337.437,738.308 338.103,738.475 338.5,739.5 Z"/></g>
<g><path style="opacity:1" fill="#1a1919" d="M 340.5,737.5 C 340.328,738.492 340.662,739.158 341.5,739.5C 341.167,740.5 340.5,741.167 339.5,741.5C 339.167,740.833 338.833,740.167 338.5,739.5C 339.167,738.833 339.833,738.167 340.5,737.5 Z"/></g>
<g><path style="opacity:1" fill="#1e1f1e" d="M 342.5,739.5 C 343.833,740.167 343.833,740.167 342.5,739.5 Z"/></g>
<g><path style="opacity:1" fill="#1e1f1e" d="M 339.5,741.5 C 338.833,742.167 338.833,742.167 339.5,741.5 Z"/></g>
<g><path style="opacity:1" fill="#1c1b1b" d="M 343.5,747.5 C 343.328,748.492 343.662,749.158 344.5,749.5C 344.5,749.833 344.5,750.167 344.5,750.5C 340.999,750.649 340.666,749.649 343.5,747.5 Z"/></g>
<g><path style="opacity:1" fill="#1e1f1e" d="M 344.5,750.5 C 345.833,751.167 345.833,751.167 344.5,750.5 Z"/></g>
<g><path style="opacity:1" fill="#434443" d="M 307.5,933.5 C 308.833,934.167 308.833,934.167 307.5,933.5 Z"/></g>
</svg>
