<?xml version="1.0" encoding="UTF-8"?>
<!DOCTYPE svg PUBLIC "-//W3C//DTD SVG 1.1//EN" "http://www.w3.org/Graphics/SVG/1.1/DTD/svg11.dtd">
<svg xmlns="http://www.w3.org/2000/svg" version="1.1" width="1024px" height="1024px" style="shape-rendering:geometricPrecision; text-rendering:geometricPrecision; image-rendering:optimizeQuality; fill-rule:evenodd; clip-rule:evenodd" xmlns:xlink="http://www.w3.org/1999/xlink">
<g><path style="opacity:1" fill="#000000" d="M 398.5,320.5 C 395.158,323.173 392.491,325.839 390.5,328.5C 404.605,320.521 419.605,315.021 435.5,312C 454.151,310.616 457.651,317.449 446,332.5C 434.107,346.726 420.607,359.226 405.5,370C 397.5,375 389.5,380 381.5,385C 365.646,392.76 349.979,400.76 334.5,409C 344.804,411.71 354.471,415.044 363.5,419C 370.777,420.467 378.111,420.801 385.5,420C 428.068,410.497 470.401,398.83 512.5,385C 544.999,375.593 577.999,372.926 611.5,377C 626.971,379.741 641.638,384.741 655.5,392C 659.858,393.075 663.858,392.408 667.5,390C 673.109,379.851 681.109,377.185 691.5,382C 707.066,396.029 712.566,413.195 708,433.5C 705.101,440.732 699.934,445.565 692.5,448C 693.044,448.717 693.711,449.217 694.5,449.5C 698.305,463.611 704.639,476.444 713.5,488C 720.49,487.682 726.823,485.348 732.5,481C 746.845,473.693 758.012,476.86 766,490.5C 773.26,505.366 782.26,519.033 793,531.5C 808,545.167 823,558.833 838,572.5C 840.857,576.898 843.691,581.232 846.5,585.5C 849.863,593.266 848.53,600.1 842.5,606C 834.902,609.052 827.236,609.052 819.5,606C 800.759,599.88 784.925,589.38 772,574.5C 767.719,568.91 763.219,563.577 758.5,558.5C 751.584,548.999 744.917,539.332 738.5,529.5C 721.296,538.103 703.629,545.603 685.5,552C 674.14,555.061 662.807,556.894 651.5,557.5C 645.07,556.476 638.736,554.976 632.5,553C 616.337,544.086 600.337,534.92 584.5,525.5C 583.304,525.846 583.304,526.346 584.5,527C 586.5,528.333 588.5,529.667 590.5,531C 578.595,529.185 566.595,527.685 554.5,526.5C 542.582,527.317 530.915,529.484 519.5,533C 495.023,541.937 470.356,550.27 445.5,558C 428.395,561.658 411.229,563.491 394,563.5C 391.333,562.833 388.667,562.167 386,561.5C 356.8,575.35 327.3,588.517 297.5,601C 282.439,609.915 268.106,619.749 254.5,630.5C 245.86,634.879 236.693,637.546 227,638.5C 223.358,638.287 219.858,637.453 216.5,636C 213.903,633.683 213.07,630.85 214,627.5C 225.83,608.011 242.663,594.844 264.5,588C 261.153,588.217 257.82,588.884 254.5,590C 250.344,591.466 246.01,593.299 241.5,595.5C 232.364,598.157 223.364,601.324 214.5,605C 206.254,607.817 197.921,608.15 189.5,606C 187.03,603.934 185.696,601.267 185.5,598C 188.813,586.379 195.146,576.712 204.5,569C 217.873,558.481 232.54,550.314 248.5,544.5C 260.21,540.934 271.543,536.6 282.5,531.5C 280.996,521.185 277.329,511.352 271.5,502C 269.047,501.262 266.547,500.762 264,500.5C 251.264,502.687 238.598,505.02 226,507.5C 209.55,507.117 196.884,499.784 188,485.5C 183.454,478.8 183.454,472.133 188,465.5C 200.663,449.494 212.83,433.161 224.5,416.5C 238.44,403.224 255.106,395.391 274.5,393C 272.405,392.444 272.238,391.944 274,391.5C 274.772,391.645 275.439,391.978 276,392.5C 291.058,373.77 307.225,355.936 324.5,339C 344.725,322.221 367.725,310.721 393.5,304.5C 398.585,304.685 401.585,307.185 402.5,312C 401.284,314.931 399.95,317.764 398.5,320.5 Z"/></g>
<g><path style="opacity:1" fill="#050605" d="M 398.5,320.5 C 399.833,321.167 399.833,321.167 398.5,320.5 Z"/></g>
<g><path style="opacity:1" fill="#0b1211" d="M 345.5,321.5 C 346.833,322.167 346.833,322.167 345.5,321.5 Z"/></g>
<g><path style="opacity:1" fill="#0b0c0b" d="M 257.5,394.5 C 258.833,395.167 258.833,395.167 257.5,394.5 Z"/></g>
<g><path style="opacity:1" fill="#050600" d="M 356.5,398.5 C 357.833,399.167 357.833,399.167 356.5,398.5 Z"/></g>
<g><path style="opacity:1" fill="#050605" d="M 449.5,401.5 C 450.833,402.167 450.833,402.167 449.5,401.5 Z"/></g>
<g><path style="opacity:1" fill="#05060c" d="M 224.5,416.5 C 223.833,415.167 223.833,415.167 224.5,416.5 Z"/></g>
<g><path style="opacity:1" fill="#000000" d="M 391.5,417.5 C 391.897,416.475 392.563,416.308 393.5,417C 392.906,417.464 392.239,417.631 391.5,417.5 Z"/></g>
<g><path style="opacity:1" fill="#050605" d="M 694.5,448.5 C 695.833,449.167 695.833,449.167 694.5,448.5 Z"/></g>
<g><path style="opacity:1" fill="#0b0c0b" d="M 747.5,475.5 C 748.833,476.167 748.833,476.167 747.5,475.5 Z"/></g>
<g><path style="opacity:1" fill="#000000" d="M 282.5,531.5 C 281.833,530.167 281.833,530.167 282.5,531.5 Z"/></g>
<g><path style="opacity:1" fill="#000000" d="M 742.5,538.5 C 754.781,560.131 770.448,579.131 789.5,595.5C 785.037,597.467 780.37,597.967 775.5,597C 761.746,593.457 749.746,586.791 739.5,577C 732.937,570.605 726.603,564.105 720.5,557.5C 717.12,553.118 713.12,549.451 708.5,546.5C 712.481,544.295 716.481,542.295 720.5,540.5C 721.492,540.672 722.158,540.338 722.5,539.5C 725.018,538.736 727.351,537.736 729.5,536.5C 732.151,535.51 734.817,534.51 737.5,533.5C 739.393,534.963 741.059,536.63 742.5,538.5 Z"/></g>
<g><path style="opacity:1" fill="#010200" d="M 729.5,536.5 C 728.761,536.631 728.094,536.464 727.5,536C 728.437,535.308 729.103,535.475 729.5,536.5 Z"/></g>
<g><path style="opacity:1" fill="#050000" d="M 742.5,537.5 C 743.833,538.167 743.833,538.167 742.5,537.5 Z"/></g>
<g><path style="opacity:1" fill="#000000" d="M 722.5,539.5 C 721.833,538.167 721.833,538.167 722.5,539.5 Z"/></g>
<g><path style="opacity:1" fill="#050600" d="M 720.5,540.5 C 719.833,539.167 719.833,539.167 720.5,540.5 Z"/></g>
<g><path style="opacity:1" fill="#000000" d="M 248.5,544.5 C 247.833,543.167 247.833,543.167 248.5,544.5 Z"/></g>
<g><path style="opacity:1" fill="#000000" d="M 720.5,557.5 C 719.833,558.167 719.833,558.167 720.5,557.5 Z"/></g>
<g><path style="opacity:1" fill="#050000" d="M 758.5,558.5 C 757.833,559.167 757.833,559.167 758.5,558.5 Z"/></g>
<g><path style="opacity:1" fill="#111211" d="M 846.5,584.5 C 847.833,585.167 847.833,585.167 846.5,584.5 Z"/></g>
<g><path style="opacity:1" fill="#050000" d="M 241.5,595.5 C 242.833,596.167 242.833,596.167 241.5,595.5 Z"/></g>
<g><path style="opacity:1" fill="#050c05" d="M 254.5,630.5 C 255.833,631.167 255.833,631.167 254.5,630.5 Z"/></g>
<g><path style="opacity:1" fill="#959695" d="M 307.5,933.5 C 308.833,934.167 308.833,934.167 307.5,933.5 Z"/></g>
</svg>
