<?xml version="1.0" encoding="UTF-8"?>
<!DOCTYPE svg PUBLIC "-//W3C//DTD SVG 1.1//EN" "http://www.w3.org/Graphics/SVG/1.1/DTD/svg11.dtd">
<svg xmlns="http://www.w3.org/2000/svg" version="1.1" width="1024px" height="1024px" style="shape-rendering:geometricPrecision; text-rendering:geometricPrecision; image-rendering:optimizeQuality; fill-rule:evenodd; clip-rule:evenodd" xmlns:xlink="http://www.w3.org/1999/xlink">
<g><path style="opacity:1" fill="#050605" d="M 393.5,288.5 C 393.897,287.475 394.563,287.308 395.5,288C 394.906,288.464 394.239,288.631 393.5,288.5 Z"/></g>
<g><path style="opacity:1" fill="#050600" d="M 400.5,287.5 C 401.833,288.167 401.833,288.167 400.5,287.5 Z"/></g>
<g><path style="opacity:1" fill="#050605" d="M 424.5,287.5 C 425.833,288.167 425.833,288.167 424.5,287.5 Z"/></g>
<g><path style="opacity:1" fill="#050605" d="M 383.5,288.5 C 384.833,289.167 384.833,289.167 383.5,288.5 Z"/></g>
<g><path style="opacity:1" fill="#000000" d="M 670.5,312.5 C 678.824,315.277 687.157,318.277 695.5,321.5C 715.958,333.062 736.625,343.396 757.5,352.5C 765.807,357.324 773.807,362.657 781.5,368.5C 793.167,378.167 803.833,388.833 813.5,400.5C 834.401,426.007 846.234,455.34 849,488.5C 850.196,503.097 851.196,517.43 852,531.5C 854.105,547.551 861.272,560.718 873.5,571C 880.863,574.369 887.029,579.202 892,585.5C 894.812,593.878 891.646,597.878 882.5,597.5C 875.345,597.672 869.511,595.005 865,589.5C 862.182,582.563 859.515,575.563 857,568.5C 844.798,553.784 835.298,537.451 828.5,519.5C 827.614,520.325 827.281,521.325 827.5,522.5C 823.613,531.368 820.946,540.701 819.5,550.5C 822.042,566.907 828.376,581.573 838.5,594.5C 840.912,598.994 843.079,603.661 845,608.5C 845.791,612.926 845.457,617.259 844,621.5C 840,628.833 836,636.167 832,643.5C 830.273,651.598 832.106,658.598 837.5,664.5C 839.696,668.583 840.529,672.916 840,677.5C 837.705,679.938 834.872,681.438 831.5,682C 810.94,685.762 790.273,686.428 769.5,684C 764.77,683.106 762.436,680.272 762.5,675.5C 762.466,672.567 763.299,669.9 765,667.5C 772.039,662.155 779.039,656.822 786,651.5C 787.484,645.235 787.818,638.902 787,632.5C 774.735,613.898 763.735,594.564 754,574.5C 748.616,568.613 742.783,563.28 736.5,558.5C 729.194,567.439 723.694,577.439 720,588.5C 719.667,595.167 719.333,601.833 719,608.5C 718.75,611.754 717.75,614.754 716,617.5C 709.721,623.779 703.387,630.113 697,636.5C 691.378,644.718 688.378,653.718 688,663.5C 693.132,672.728 690.632,678.228 680.5,680C 657.247,682.74 634.247,681.406 611.5,676C 607.5,674.333 605.5,671.333 605.5,667C 605.973,661.387 608.306,656.721 612.5,653C 616.692,651.724 620.526,649.891 624,647.5C 624.414,647.957 624.914,648.291 625.5,648.5C 636.044,643.124 644.544,635.458 651,625.5C 653.254,621.993 655.254,618.327 657,614.5C 659.689,601.518 657.189,589.851 649.5,579.5C 649.023,577.536 647.856,576.202 646,575.5C 611.182,590.699 575.016,594.866 537.5,588C 527.716,586.536 518.049,584.536 508.5,582C 490.761,575.921 473.094,569.754 455.5,563.5C 457.223,578.394 461.723,592.394 469,605.5C 469.339,608.036 469.839,610.536 470.5,613C 469.231,620.724 467.898,628.724 466.5,637C 468.528,645.75 471.361,654.25 475,662.5C 475.867,666.956 475.534,671.289 474,675.5C 466.982,679.09 459.482,680.923 451.5,681C 433.442,681.837 415.442,681.17 397.5,679C 393.016,677.3 391.516,674.466 393,670.5C 397.252,662.918 403.418,657.418 411.5,654C 421.471,644.947 423.971,634.114 419,621.5C 411.419,610.672 404.085,599.672 397,588.5C 396.023,587.226 395.189,587.226 394.5,588.5C 382.765,592.783 372.599,599.45 364,608.5C 360.667,614.167 360.667,619.833 364,625.5C 369.542,630.711 375.375,635.544 381.5,640C 386.6,645.697 386.767,651.53 382,657.5C 366.922,677.528 347.088,684.695 322.5,679C 319.938,676.711 318.271,673.877 317.5,670.5C 320.442,662.403 321.609,654.07 321,645.5C 314.037,631.65 310.204,616.983 309.5,601.5C 309.619,595.404 310.452,589.404 312,583.5C 316.432,569.699 321.932,556.365 328.5,543.5C 330.682,542.177 331.349,540.51 330.5,538.5C 326.084,536.955 321.417,535.955 316.5,535.5C 308.435,537.695 300.435,539.028 292.5,539.5C 284.603,552.954 274.603,564.621 262.5,574.5C 252.748,583.221 242.748,591.721 232.5,600C 225.32,605.093 217.653,609.426 209.5,613C 200.571,622.386 190.571,623.719 179.5,617C 154.834,616.664 142.334,603.83 142,578.5C 140.676,574.677 138.176,572.011 134.5,570.5C 128.066,566.108 121.399,561.941 114.5,558C 108.336,553.333 102.336,548.5 96.5,543.5C 82.1049,529.093 72.4382,511.426 67.5,490.5C 67.8678,489.09 68.7011,488.09 70,487.5C 72.0856,489.437 74.2522,491.104 76.5,492.5C 84.1046,500.314 93.1046,506.147 103.5,510C 117.903,515.295 132.569,517.295 147.5,516C 142.178,509.346 137.678,502.179 134,494.5C 131.798,488.872 131.465,483.205 133,477.5C 135.841,475.496 139.007,474.996 142.5,476C 165.067,491.986 181.901,487.486 193,462.5C 197.237,449.711 198.237,436.711 196,423.5C 191.412,420.456 186.912,417.29 182.5,414C 178.536,409.877 175.203,405.377 172.5,400.5C 170.474,393.821 169.14,386.988 168.5,380C 168.392,376.558 169.558,373.725 172,371.5C 177.062,380.807 184.228,387.973 193.5,393C 195.108,393.658 196.275,393.158 197,391.5C 197.498,388.518 197.665,385.518 197.5,382.5C 198.391,378.778 200.724,377.278 204.5,378C 207.5,381.667 210.5,385.333 213.5,389C 215.365,390.301 217.365,390.635 219.5,390C 229.025,378.315 238.691,366.815 248.5,355.5C 258.018,346.259 267.684,337.259 277.5,328.5C 283.776,324.354 290.11,320.187 296.5,316C 305.139,311.842 313.806,308.008 322.5,304.5C 352.994,294.446 384.16,289.113 416,288.5C 429.218,289.6 442.385,291.433 455.5,294C 474.223,298.797 492.89,303.797 511.5,309C 525.424,311.253 539.424,311.92 553.5,311C 576.137,309.058 598.804,307.558 621.5,306.5C 638.062,306.779 654.395,308.779 670.5,312.5 Z"/></g>
<g><path style="opacity:1" fill="#000006" d="M 470.5,295.5 C 471.833,296.167 471.833,296.167 470.5,295.5 Z"/></g>
<g><path style="opacity:1" fill="#040605" d="M 322.5,304.5 C 321.448,304.649 320.448,304.483 319.5,304C 320.749,303.26 321.749,303.427 322.5,304.5 Z"/></g>
<g><path style="opacity:1" fill="#050605" d="M 496.5,303.5 C 497.833,304.167 497.833,304.167 496.5,303.5 Z"/></g>
<g><path style="opacity:1" fill="#050605" d="M 509.5,306.5 C 510.833,307.167 510.833,307.167 509.5,306.5 Z"/></g>
<g><path style="opacity:1" fill="#000000" d="M 670.5,311.5 C 671.833,312.167 671.833,312.167 670.5,311.5 Z"/></g>
<g><path style="opacity:1" fill="#050c05" d="M 298.5,312.5 C 299.833,313.167 299.833,313.167 298.5,312.5 Z"/></g>
<g><path style="opacity:1" fill="#000600" d="M 287.5,319.5 C 288.833,320.167 288.833,320.167 287.5,319.5 Z"/></g>
<g><path style="opacity:1" fill="#000600" d="M 695.5,320.5 C 694.833,319.167 694.833,319.167 695.5,320.5 Z"/></g>
<g><path style="opacity:1" fill="#050605" d="M 695.5,320.5 C 696.833,321.167 696.833,321.167 695.5,320.5 Z"/></g>
<g><path style="opacity:1" fill="#050605" d="M 277.5,328.5 C 276.833,327.167 276.833,327.167 277.5,328.5 Z"/></g>
<g><path style="opacity:1" fill="#050605" d="M 731.5,338.5 C 732.833,339.167 732.833,339.167 731.5,338.5 Z"/></g>
<g><path style="opacity:1" fill="#000004" d="M 757.5,352.5 C 757.897,351.475 758.563,351.308 759.5,352C 758.906,352.464 758.239,352.631 757.5,352.5 Z"/></g>
<g><path style="opacity:1" fill="#000006" d="M 248.5,355.5 C 247.833,354.167 247.833,354.167 248.5,355.5 Z"/></g>
<g><path style="opacity:1" fill="#000000" d="M 781.5,367.5 C 782.833,368.167 782.833,368.167 781.5,367.5 Z"/></g>
<g><path style="opacity:1" fill="#0b0c0b" d="M 201.5,375.5 C 202.833,376.167 202.833,376.167 201.5,375.5 Z"/></g>
<g><path style="opacity:1" fill="#0b0c0b" d="M 197.5,382.5 C 196.833,381.167 196.833,381.167 197.5,382.5 Z"/></g>
<g><path style="opacity:1" fill="#0b0c0b" d="M 195.5,386.5 C 196.833,387.167 196.833,387.167 195.5,386.5 Z"/></g>
<g><path style="opacity:1" fill="#050605" d="M 813.5,399.5 C 814.833,400.167 814.833,400.167 813.5,399.5 Z"/></g>
<g><path style="opacity:1" fill="#111211" d="M 172.5,400.5 C 171.833,401.167 171.833,401.167 172.5,400.5 Z"/></g>
<g><path style="opacity:1" fill="#050605" d="M 195.5,437.5 C 196.833,438.167 196.833,438.167 195.5,437.5 Z"/></g>
<g><path style="opacity:1" fill="#111211" d="M 129.5,482.5 C 130.833,483.167 130.833,483.167 129.5,482.5 Z"/></g>
<g><path style="opacity:1" fill="#3d3e37" d="M 65.5,490.5 C 66.8333,491.167 66.8333,491.167 65.5,490.5 Z"/></g>
<g><path style="opacity:1" fill="#313231" d="M 76.5,491.5 C 77.8333,492.167 77.8333,492.167 76.5,491.5 Z"/></g>
<g><path style="opacity:1" fill="#242524" d="M 82.5,495.5 C 83.8333,496.167 83.8333,496.167 82.5,495.5 Z"/></g>
<g><path style="opacity:1" fill="#050605" d="M 117.5,511.5 C 118.833,512.167 118.833,512.167 117.5,511.5 Z"/></g>
<g><path style="opacity:1" fill="#1e251e" d="M 75.5,517.5 C 76.8333,518.167 76.8333,518.167 75.5,517.5 Z"/></g>
<g><path style="opacity:1" fill="#010000" d="M 827.5,522.5 C 828.573,523.251 828.74,524.251 828,525.5C 827.517,524.552 827.351,523.552 827.5,522.5 Z"/></g>
<g><path style="opacity:1" fill="#050605" d="M 323.5,537.5 C 324.833,538.167 324.833,538.167 323.5,537.5 Z"/></g>
<g><path style="opacity:1" fill="#050600" d="M 330.5,538.5 C 330.103,539.525 329.437,539.692 328.5,539C 329.094,538.536 329.761,538.369 330.5,538.5 Z"/></g>
<g><path style="opacity:1" fill="#050605" d="M 854.5,538.5 C 855.833,539.167 855.833,539.167 854.5,538.5 Z"/></g>
<g><path style="opacity:1" fill="#000000" d="M 328.5,543.5 C 327.833,542.167 327.833,542.167 328.5,543.5 Z"/></g>
<g><path style="opacity:1" fill="#181918" d="M 96.5,543.5 C 95.8333,544.167 95.8333,544.167 96.5,543.5 Z"/></g>
<g><path style="opacity:1" fill="#000006" d="M 839.5,546.5 C 840.833,547.167 840.833,547.167 839.5,546.5 Z"/></g>
<g><path style="opacity:1" fill="#050000" d="M 840.5,548.5 C 841.833,549.167 841.833,549.167 840.5,548.5 Z"/></g>
<g><path style="opacity:1" fill="#050006" d="M 822.5,560.5 C 823.833,561.167 823.833,561.167 822.5,560.5 Z"/></g>
<g><path style="opacity:1" fill="#000000" d="M 461.5,566.5 C 462.833,567.167 462.833,567.167 461.5,566.5 Z"/></g>
<g><path style="opacity:1" fill="#050006" d="M 824.5,567.5 C 825.833,568.167 825.833,568.167 824.5,567.5 Z"/></g>
<g><path style="opacity:1" fill="#050605" d="M 855.5,569.5 C 856.833,570.167 856.833,570.167 855.5,569.5 Z"/></g>
<g><path style="opacity:1" fill="#111211" d="M 134.5,570.5 C 133.833,571.167 133.833,571.167 134.5,570.5 Z"/></g>
<g><path style="opacity:1" fill="#000605" d="M 827.5,573.5 C 828.833,574.167 828.833,574.167 827.5,573.5 Z"/></g>
<g><path style="opacity:1" fill="#000000" d="M 262.5,574.5 C 263.833,575.167 263.833,575.167 262.5,574.5 Z"/></g>
<g><path style="opacity:1" fill="#000000" d="M 649.5,579.5 C 648.833,580.167 648.833,580.167 649.5,579.5 Z"/></g>
<g><path style="opacity:1" fill="#111211" d="M 140.5,580.5 C 141.833,581.167 141.833,581.167 140.5,580.5 Z"/></g>
<g><path style="opacity:1" fill="#000000" d="M 518.5,585.5 C 519.833,586.167 519.833,586.167 518.5,585.5 Z"/></g>
<g><path style="opacity:1" fill="#000000" d="M 394.5,588.5 C 395.833,589.167 395.833,589.167 394.5,588.5 Z"/></g>
<g><path style="opacity:1" fill="#000000" d="M 548.5,590.5 C 549.833,591.167 549.833,591.167 548.5,590.5 Z"/></g>
<g><path style="opacity:1" fill="#000605" d="M 838.5,593.5 C 839.833,594.167 839.833,594.167 838.5,593.5 Z"/></g>
<g><path style="opacity:1" fill="#181918" d="M 882.5,599.5 C 883.251,598.427 884.251,598.26 885.5,599C 884.552,599.483 883.552,599.649 882.5,599.5 Z"/></g>
<g><path style="opacity:1" fill="#0b0605" d="M 220.5,608.5 C 221.833,609.167 221.833,609.167 220.5,608.5 Z"/></g>
<g><path style="opacity:1" fill="#050006" d="M 365.5,609.5 C 366.833,610.167 366.833,610.167 365.5,609.5 Z"/></g>
<g><path style="opacity:1" fill="#050605" d="M 308.5,611.5 C 309.525,611.897 309.692,612.563 309,613.5C 308.536,612.906 308.369,612.239 308.5,611.5 Z"/></g>
<g><path style="opacity:1" fill="#110c0b" d="M 186.5,621.5 C 187.833,622.167 187.833,622.167 186.5,621.5 Z"/></g>
<g><path style="opacity:1" fill="#000600" d="M 785.5,642.5 C 786.525,642.897 786.692,643.563 786,644.5C 785.536,643.906 785.369,643.239 785.5,642.5 Z"/></g>
<g><path style="opacity:1" fill="#000000" d="M 319.5,646.5 C 320.833,647.167 320.833,647.167 319.5,646.5 Z"/></g>
<g><path style="opacity:1" fill="#000000" d="M 470.5,647.5 C 471.833,648.167 471.833,648.167 470.5,647.5 Z"/></g>
<g><path style="opacity:1" fill="#000006" d="M 784.5,648.5 C 785.833,649.167 785.833,649.167 784.5,648.5 Z"/></g>
<g><path style="opacity:1" fill="#0b0c05" d="M 838.5,664.5 C 837.833,663.167 837.833,663.167 838.5,664.5 Z"/></g>
<g><path style="opacity:1" fill="#0b0c0b" d="M 838.5,664.5 C 839.833,665.167 839.833,665.167 838.5,664.5 Z"/></g>
<g><path style="opacity:1" fill="#050805" d="M 760.5,676.5 C 761.525,676.897 761.692,677.563 761,678.5C 760.536,677.906 760.369,677.239 760.5,676.5 Z"/></g>
<g><path style="opacity:1" fill="#0b0605" d="M 414.5,681.5 C 415.833,682.167 415.833,682.167 414.5,681.5 Z"/></g>
<g><path style="opacity:1" fill="#050605" d="M 437.5,683.5 C 437.897,682.475 438.563,682.308 439.5,683C 438.906,683.464 438.239,683.631 437.5,683.5 Z"/></g>
<g><path style="opacity:1" fill="#050605" d="M 445.5,682.5 C 446.833,683.167 446.833,683.167 445.5,682.5 Z"/></g>
<g><path style="opacity:1" fill="#050c05" d="M 662.5,682.5 C 663.833,683.167 663.833,683.167 662.5,682.5 Z"/></g>
<g><path style="opacity:1" fill="#757675" d="M 307.5,933.5 C 308.833,934.167 308.833,934.167 307.5,933.5 Z"/></g>
</svg>
